<?xml version="1.0" standalone="no"?>
<!DOCTYPE svg PUBLIC "-//W3C//DTD SVG 20010904//EN"
 "http://www.w3.org/TR/2001/REC-SVG-20010904/DTD/svg10.dtd">
<svg version="1.0" xmlns="http://www.w3.org/2000/svg"
 width="720.000000pt" height="480.000000pt" viewBox="0 0 720.000000 480.000000"
 preserveAspectRatio="xMidYMid meet">

<g transform="translate(0.000000,480.000000) scale(0.100000,-0.100000)"
fill="#000000" stroke="none">
<path d="M3649 4146 c-4 -5 -45 -12 -179 -30 -62 -9 -79 -14 -62 -20 12 -4 22
-14 22 -23 0 -11 6 -14 23 -9 12 4 36 9 52 11 28 4 29 4 5 -5 -19 -7 -7 -9 47
-7 67 2 104 14 76 24 -9 3 -6 11 7 26 11 11 20 24 20 29 0 9 -4 10 -11 4z
m-66 -63 c-7 -2 -19 -2 -25 0 -7 3 -2 5 12 5 14 0 19 -2 13 -5z"/>
<path d="M3926 4064 c-54 -7 -101 -16 -105 -20 -5 -6 53 -2 174 11 l40 5 -45
-14 -45 -14 63 -1 c53 -1 67 -5 87 -26 23 -22 25 -22 25 -5 0 26 -40 68 -70
74 -14 2 -69 -2 -124 -10z"/>
<path d="M3908 4023 c6 -2 18 -2 25 0 6 3 1 5 -13 5 -14 0 -19 -2 -12 -5z"/>
<path d="M2488 3995 c-2 -3 -51 -12 -107 -19 -57 -8 -105 -16 -107 -18 -1 -2
1 -10 6 -18 7 -11 13 -12 35 -2 15 7 68 15 118 19 83 5 106 13 107 36 0 8 -44
10 -52 2z"/>
<path d="M3935 3983 c-22 -2 -47 -6 -55 -10 -14 -6 -54 -11 -107 -14 -14 -1
-23 -8 -24 -18 0 -9 -3 -11 -5 -5 -5 13 -41 7 -61 -9 -9 -6 -13 -5 -13 3 0 10
-17 11 -72 5 -72 -7 -103 -19 -92 -36 3 -5 0 -9 -5 -9 -6 0 -11 5 -11 11 0 10
-53 4 -74 -9 -5 -3 -28 -6 -50 -6 -22 -1 -41 -7 -44 -14 -5 -15 -32 -16 -32
-2 0 6 -6 5 -14 -2 -12 -11 -11 -14 3 -20 14 -6 13 -7 -3 -7 -14 -1 -16 -4 -8
-14 6 -7 7 -18 3 -26 -6 -8 -11 -9 -15 -3 -8 13 -59 8 -64 -6 -2 -6 2 -20 8
-31 6 -12 7 -21 2 -21 -5 0 -15 13 -22 30 -7 16 -17 27 -23 23 -7 -4 -8 0 -3
13 4 10 4 15 0 11 -4 -4 -16 0 -25 9 -23 21 -69 27 -69 9 0 -11 -34 -29 -52
-26 -14 2 -8 -20 7 -25 8 -4 12 -10 9 -15 -3 -5 20 -57 51 -114 31 -58 54
-105 52 -105 -3 0 -35 52 -72 115 -63 109 -73 120 -102 116 -7 -1 -13 3 -13 9
0 7 -5 6 -14 -2 -8 -7 -12 -16 -9 -21 8 -13 -25 -19 -47 -7 -20 11 -21 10 -15
-12 7 -21 6 -22 -10 -8 -15 13 -19 12 -36 -9 -11 -13 -19 -19 -19 -13 0 6 -11
8 -27 5 -16 -3 -36 -5 -45 -5 -10 0 -15 -5 -12 -12 3 -7 -8 -18 -23 -24 -24
-11 -26 -11 -10 1 21 18 22 28 1 20 -9 -3 -20 0 -25 8 -5 8 -9 9 -9 3 0 -6
-14 -11 -30 -12 -41 -1 -71 -12 -65 -23 4 -5 1 -9 -4 -9 -6 0 -11 5 -11 11 0
7 -10 9 -25 7 -14 -3 -25 -1 -25 4 0 5 -5 6 -10 3 -6 -4 -8 -10 -6 -14 3 -4
-13 -8 -34 -8 -22 0 -40 4 -40 9 0 4 -7 8 -16 8 -10 0 -12 -5 -7 -12 13 -23
11 -36 -6 -33 -9 1 -15 8 -13 15 2 8 -3 10 -13 6 -9 -3 -18 -6 -20 -6 -2 0 -1
-8 2 -18 2 -10 -6 -27 -20 -40 -20 -19 -26 -20 -41 -9 -16 12 -16 13 5 14 22
2 39 19 39 38 -1 6 -5 2 -11 -7 -5 -10 -19 -18 -30 -18 -11 0 -28 -4 -39 -10
-14 -7 -17 -6 -16 8 0 9 -6 18 -14 18 -8 1 -21 2 -28 3 -7 0 -12 9 -10 18 2
10 -4 18 -15 19 -10 1 -11 0 -3 -3 8 -2 12 -12 9 -23 -5 -19 -5 -19 -22 0 -9
10 -29 22 -46 25 -25 4 -27 4 -10 -5 18 -9 17 -10 -8 -6 -17 2 -31 -2 -36 -12
-6 -10 -10 -11 -15 -3 -11 17 -29 13 -22 -4 4 -13 2 -13 -14 -5 -29 15 -47 12
-91 -16 -23 -14 -43 -23 -47 -20 -3 3 0 6 8 6 10 0 10 4 -1 17 -13 15 -12 16
9 11 14 -4 22 -2 22 7 0 9 -8 11 -21 8 -14 -4 -26 0 -34 10 -10 15 -12 13 -11
-12 1 -16 4 -27 9 -24 4 2 7 -1 7 -6 0 -6 -7 -11 -15 -11 -8 0 -15 6 -15 14 0
8 -5 18 -12 22 -6 4 -8 3 -5 -3 4 -6 -10 -2 -30 8 -22 11 -41 15 -47 10 -11
-9 -17 -11 -35 -11 -5 0 -16 -6 -23 -13 -11 -12 -16 -12 -26 0 -10 10 -10 13
2 13 8 0 17 4 21 9 3 6 -12 9 -35 8 -22 -1 -40 -5 -40 -9 0 -5 -10 -4 -21 3
-12 6 -19 7 -15 1 3 -5 -1 -12 -9 -16 -9 -3 -15 0 -15 9 0 17 -26 20 -35 4 -4
-6 -13 -8 -20 -5 -8 3 -15 -2 -17 -9 -3 -13 -7 -13 -29 -1 -25 13 -26 12 -23
-8 2 -11 1 -15 -2 -8 -5 10 -9 10 -20 1 -8 -6 -21 -8 -31 -3 -10 4 -20 8 -23
8 -3 1 -11 5 -19 10 -10 7 -12 6 -6 -4 6 -10 4 -12 -8 -7 -10 3 -17 2 -17 -3
0 -6 -12 -10 -27 -10 -22 0 -25 2 -13 10 11 8 7 10 -18 8 -17 -1 -32 -6 -32
-11 0 -4 -4 -6 -9 -3 -5 4 -7 -3 -4 -14 7 -25 -13 -27 -21 -2 -5 15 -16 17
-83 14 -43 -2 -84 -8 -90 -14 -9 -7 -13 -7 -13 0 0 12 -38 4 -59 -12 -12 -9
-13 -8 -6 4 4 8 -4 4 -18 -9 -27 -24 -39 -17 -14 8 10 11 3 12 -38 6 -27 -4
-56 -12 -62 -17 -15 -12 -18 -118 -3 -118 6 0 10 5 10 12 0 6 3 8 6 5 4 -4 2
-12 -4 -20 -18 -21 -3 -95 17 -83 7 5 11 -19 13 -96 2 -43 7 -46 31 -18 16 19
47 18 47 -2 0 -6 -6 -5 -15 2 -12 10 -16 9 -21 -3 -3 -9 -14 -19 -25 -22 -10
-4 -19 -11 -19 -16 0 -6 3 -8 8 -6 4 3 8 -8 9 -24 1 -16 3 -37 4 -46 1 -10 -1
-26 -6 -35 -5 -13 0 -21 18 -29 31 -14 50 -52 34 -68 -6 -6 -7 -14 -3 -18 4
-4 11 -1 16 7 15 24 22 5 9 -24 -9 -20 -15 -23 -23 -13 -6 7 -10 10 -9 8 2 -2
-2 -11 -9 -18 -9 -11 -9 -16 2 -23 7 -5 14 -18 15 -29 1 -11 -2 -18 -7 -15 -4
3 -8 1 -8 -5 0 -13 35 -33 43 -25 3 4 5 -4 4 -15 -1 -15 -7 -21 -18 -18 -12 3
-15 -1 -12 -14 5 -16 8 -17 21 -7 14 12 14 10 3 -11 -12 -21 -10 -26 15 -49
16 -14 21 -22 12 -19 -10 3 -19 0 -22 -10 -9 -23 4 -36 22 -21 10 8 13 8 9 1
-4 -6 -1 -14 5 -16 7 -3 0 -6 -17 -7 -25 0 -28 -3 -15 -13 9 -7 14 -27 14 -52
-2 -27 3 -44 14 -53 14 -11 15 -14 3 -21 -8 -5 -11 -16 -8 -25 4 -9 1 -16 -5
-16 -7 0 -6 -6 2 -16 17 -20 22 -62 8 -70 -6 -4 -5 -10 3 -15 11 -7 9 -9 -5
-9 -17 0 -18 -2 -4 -17 18 -21 22 -85 6 -95 -9 -5 -8 -11 1 -22 7 -8 10 -20 7
-25 -4 -5 2 -14 11 -20 13 -8 14 -10 4 -11 -12 0 -12 -3 -3 -12 7 -7 12 -16
12 -22 0 -5 -3 -7 -6 -3 -4 3 -13 -1 -22 -9 -12 -13 -13 -17 -2 -24 7 -4 9
-13 6 -19 -4 -6 -2 -11 3 -11 6 0 11 -4 11 -10 0 -5 -7 -10 -15 -10 -11 0 -14
-9 -10 -37 2 -20 0 -56 -6 -80 -9 -33 -8 -47 1 -58 7 -9 10 -19 6 -23 -4 -4
-14 1 -21 11 -12 17 -13 16 -11 -6 0 -14 6 -23 12 -20 7 2 15 0 19 -6 3 -6 -2
-11 -13 -11 -24 0 -34 -79 -42 -325 -2 -70 -5 -91 -10 -70 -6 23 -8 13 -9 -40
0 -45 5 -80 14 -99 8 -15 15 -41 15 -57 0 -23 6 -32 28 -40 28 -11 132 -5 212
13 87 18 463 88 478 88 39 0 -14 -14 -293 -75 -165 -36 -302 -70 -305 -76 -4
-5 -29 -12 -57 -15 -63 -8 -96 11 -117 69 -15 40 -16 40 -13 9 2 -21 -1 -32
-10 -32 -7 0 -13 10 -13 22 0 16 -3 19 -11 11 -17 -17 7 -78 42 -108 36 -29
88 -33 146 -10 57 22 738 156 786 154 12 0 -9 -11 -48 -24 -44 -15 -61 -24
-45 -24 14 -1 32 -6 40 -12 12 -9 11 -10 -5 -4 -16 5 -17 4 -8 -6 10 -10 4
-16 -28 -31 -49 -22 -50 -22 -43 -4 3 8 1 24 -5 35 -10 17 -16 19 -37 11 -14
-6 -37 -10 -50 -10 -15 0 -23 -4 -19 -10 4 -7 -3 -8 -21 -4 -21 5 -25 4 -19
-6 6 -10 3 -12 -13 -8 -12 4 -25 2 -28 -3 -3 -6 -14 -7 -24 -4 -10 3 -21 1
-25 -5 -4 -6 -15 -8 -26 -5 -11 4 -19 2 -19 -5 0 -6 -10 -8 -25 -4 -16 4 -25
2 -25 -6 0 -6 -4 -9 -9 -6 -5 3 -21 0 -36 -8 -38 -20 -16 -28 45 -16 29 6 137
13 239 17 220 7 289 -2 397 -53 41 -20 78 -33 81 -30 4 3 0 6 -7 6 -7 0 -11 2
-8 5 8 8 39 -6 33 -15 -6 -10 21 -16 100 -25 79 -9 131 -33 146 -67 6 -16 13
-28 15 -28 2 0 26 -9 54 -20 28 -11 48 -15 44 -9 -4 7 -7 128 -8 270 -1 252
-1 258 -23 281 -18 19 -20 27 -11 36 9 9 6 12 -14 12 -38 0 -46 17 -47 102 -1
62 -6 85 -26 124 -14 26 -23 55 -20 64 6 20 -23 49 -51 51 -46 5 -51 0 -58
-51 -4 -28 -16 -65 -26 -83 l-20 -32 -2 30 c-1 31 -4 53 -8 70 -2 6 -8 -27
-14 -73 -6 -45 -15 -83 -21 -82 -6 0 -12 43 -16 97 -3 54 -6 86 -7 71 -3 -36
-12 -35 -37 5 -11 18 -30 33 -43 35 -12 2 -19 8 -16 14 4 6 -1 8 -13 4 -24 -8
-45 27 -47 77 0 19 -4 33 -8 30 -5 -2 -9 5 -9 16 -1 12 -2 24 -3 29 -1 4 -5
21 -9 38 -5 17 -3 43 3 58 5 15 6 25 1 22 -5 -3 -12 1 -15 10 -4 12 -2 15 9
10 19 -7 19 1 -1 21 -12 12 -14 26 -9 52 3 20 8 63 11 96 2 33 7 78 10 100 3
22 7 73 10 114 l5 73 -38 -6 c-98 -17 -90 -10 -99 -89 -4 -40 -8 -96 -8 -125
-1 -37 -5 -51 -13 -48 -7 3 -15 1 -18 -5 -4 -5 1 -12 9 -15 23 -9 19 -29 -9
-48 -28 -18 -33 -36 -10 -36 18 0 19 -12 4 -27 -8 -8 -8 -13 0 -17 19 -12 12
-30 -16 -43 -29 -14 -39 -11 -27 8 4 7 8 25 8 41 1 21 -4 28 -18 28 -13 0 -17
5 -14 18 4 15 0 17 -28 14 -33 -4 -39 -22 -8 -22 8 0 12 -4 9 -10 -4 -6 -18
-4 -37 6 -24 12 -28 18 -17 25 11 7 11 9 -3 9 -10 0 -18 6 -18 14 0 8 -5 18
-12 22 -7 5 -8 3 -4 -5 5 -7 1 -20 -7 -29 -8 -9 -17 -27 -19 -39 -5 -16 -2
-20 10 -16 10 4 13 2 8 -5 -4 -7 -17 -12 -30 -12 -19 0 -22 4 -18 31 2 17 11
33 18 36 18 7 18 23 0 23 -13 0 -13 7 -7 77 1 7 9 10 19 7 16 -5 16 -5 -1 6
-15 10 -17 21 -11 91 l7 79 -29 0 c-44 0 -104 -20 -111 -36 -3 -8 -13 -14 -22
-14 -9 0 -21 -11 -28 -25 -6 -14 -7 -25 -3 -25 5 0 10 -6 13 -12 2 -7 2 -3 0
9 -2 15 4 26 17 33 20 11 20 9 14 -62 -3 -40 -10 -80 -15 -88 -5 -10 -8 -11
-9 -2 0 6 -5 12 -11 12 -5 0 -7 -5 -3 -12 4 -6 0 -17 -10 -23 -13 -10 -14 -18
-6 -36 8 -20 9 -20 8 -4 -3 22 8 45 22 45 4 0 4 -17 0 -37 -5 -20 -6 -41 -3
-47 4 -5 -6 -7 -25 -3 -41 8 -41 -1 -1 -15 17 -6 27 -13 22 -17 -12 -9 -13
-41 -1 -41 6 0 5 -6 -2 -15 -9 -11 -9 -15 -1 -15 7 0 9 -5 6 -10 -4 -6 -11 -8
-16 -4 -6 3 -5 -3 3 -15 7 -12 16 -21 20 -21 5 0 8 -5 8 -11 0 -8 -5 -7 -15 1
-9 7 -19 9 -23 5 -4 -4 -2 -10 4 -12 18 -6 5 -41 -18 -49 -11 -3 -22 -3 -25 0
-3 3 -14 1 -24 -4 -12 -7 -20 -7 -24 0 -3 5 -2 10 3 10 5 0 7 11 4 25 -3 17 0
25 8 23 7 -2 15 3 17 10 3 7 -1 11 -7 10 -7 -2 -15 3 -17 10 -3 8 8 12 34 13
30 2 32 3 10 6 -15 2 -27 7 -28 11 0 4 -2 19 -4 35 -2 18 1 27 10 27 9 0 12
-6 9 -15 -5 -11 -2 -13 9 -9 13 5 14 10 5 24 -6 10 -17 16 -23 14 -15 -6 -11
52 4 70 9 11 9 15 -1 19 -11 4 -11 6 0 6 9 1 10 6 3 20 -6 10 -8 21 -5 24 3 3
7 33 9 67 3 46 9 68 24 84 12 12 21 26 21 31 0 5 -6 1 -13 -10 -13 -17 -14
-17 -20 5 -3 13 -3 28 1 34 3 6 5 19 3 30 -2 15 2 17 22 12 14 -3 27 -2 29 4
2 5 26 11 53 13 28 2 58 7 68 12 9 4 26 5 37 2 11 -3 23 -1 26 5 3 5 17 7 29
4 13 -3 25 -2 27 2 3 8 215 48 303 57 28 3 61 7 75 9 34 7 139 22 230 35 41 6
86 13 100 16 52 13 327 56 375 60 28 2 85 10 128 18 70 13 77 13 78 -2 2 -23
2 -23 -5 -57 -5 -23 -2 -36 9 -48 21 -20 35 -12 35 19 0 13 6 26 13 28 9 4 9
6 0 6 -7 1 -11 7 -8 14 2 6 6 39 10 72 21 203 27 259 41 355 3 25 7 54 9 65 1
11 3 23 4 26 0 4 31 10 69 13 37 4 78 9 92 11 14 1 50 6 80 9 30 4 62 9 71 12
9 2 42 7 73 9 32 3 61 7 64 9 4 2 36 7 72 11 36 3 72 8 80 10 8 3 35 7 60 9
66 8 198 26 251 34 25 5 51 6 58 4 12 -4 15 -44 4 -56 -4 -3 -8 -26 -10 -49
-1 -23 -7 -80 -13 -125 -6 -46 -14 -116 -17 -155 -3 -40 -8 -74 -12 -77 -5 -5
-7 -89 -3 -132 1 -10 9 -18 17 -18 8 0 15 -4 15 -10 0 -13 21 -13 40 0 12 8
13 12 1 19 -10 7 -11 13 -2 30 7 11 16 21 22 21 6 0 7 6 3 13 -5 9 -3 8 7 -1
12 -11 11 -15 -3 -23 -25 -14 -23 -33 1 -19 28 15 35 12 17 -6 -20 -20 -20
-40 0 -48 24 -9 31 -7 14 4 -13 9 -13 11 -1 19 8 5 21 7 30 4 12 -5 13 -3 5 6
-9 10 -17 10 -35 1 l-24 -11 21 18 c25 22 37 50 24 58 -15 9 -12 22 6 29 9 4
23 1 30 -5 9 -8 14 -8 14 -1 0 6 -5 14 -10 17 -8 5 -7 11 1 21 9 11 8 14 -5
14 -9 0 -16 5 -16 10 0 6 5 10 11 10 6 0 9 9 6 20 -3 11 -1 20 4 20 5 0 9 4 9
10 0 5 -8 7 -17 3 -16 -6 -15 -3 2 17 17 20 17 22 3 17 -15 -5 -16 -2 -8 19
13 32 12 37 -1 29 -6 -4 -5 3 3 14 11 18 11 23 -2 31 -12 8 -12 10 -1 10 10 0
12 9 8 34 -3 19 0 39 6 45 9 9 8 14 -3 21 -8 5 -18 6 -24 3 -5 -3 -6 -1 -2 5
4 7 19 10 34 6 26 -5 26 -5 8 10 -18 14 -15 21 7 17 5 -1 6 8 2 19 -4 11 -2
20 4 20 6 0 11 5 11 11 0 5 -4 8 -9 4 -5 -3 -12 -1 -15 4 -4 5 -1 13 5 17 8 4
7 9 -2 15 -9 5 -10 9 -2 9 7 0 9 9 5 23 -5 20 -4 21 13 7 11 -9 16 -10 11 -2
-4 6 -4 18 1 25 10 16 11 58 0 80 -5 11 -3 19 6 23 19 7 19 14 21 209 1 106 6
178 14 191 22 41 -11 49 -143 37z m-595 -137 c0 -2 -7 -7 -16 -10 -8 -3 -12
-2 -9 4 6 10 25 14 25 6z m-227 -19 c4 3 7 2 7 -4 0 -18 -12 -22 -26 -8 -18
18 -18 31 -1 16 8 -6 17 -8 20 -4z m546 -11 c-2 -2 -31 -6 -64 -10 -41 -4 -55
-3 -45 4 13 9 119 15 109 6z m-419 -36 c0 -5 -2 -10 -4 -10 -3 0 -8 5 -11 10
-3 6 -1 10 4 10 6 0 11 -4 11 -10z m-290 -26 c0 -8 -5 -12 -10 -9 -6 4 -8 11
-5 16 9 14 15 11 15 -7z m-115 -44 c-3 -5 -10 -10 -16 -10 -5 0 -9 5 -9 10 0
6 7 10 16 10 8 0 12 -4 9 -10z m405 -34 c0 -12 -5 -7 -19 24 -11 24 -11 24 3
6 9 -11 16 -24 16 -30z m-456 18 c9 -24 7 -28 -9 -14 -17 14 -20 30 -6 30 5 0
12 -7 15 -16z m-39 -4 c3 -6 -1 -7 -9 -4 -18 7 -21 14 -7 14 6 0 13 -4 16 -10z
m90 -10 c3 -6 -1 -7 -9 -4 -18 7 -21 14 -7 14 6 0 13 -4 16 -10z m-315 -10 c0
-5 -8 -10 -17 -10 -15 0 -16 2 -3 10 19 12 20 12 20 0z m55 -9 c3 -5 2 -12 -3
-15 -5 -3 -9 1 -9 9 0 17 3 19 12 6z m-825 -39 c0 -7 5 -10 10 -7 6 3 10 2 10
-3 0 -21 -14 -19 -36 5 -24 26 -25 26 -39 7 -11 -15 -14 -16 -15 -3 0 27 19
38 46 25 13 -6 24 -17 24 -24z m355 28 c7 -11 -14 -55 -22 -46 -3 3 -1 12 5
19 9 10 8 17 0 25 -9 9 -9 12 -1 12 7 0 15 -4 18 -10z m-625 -10 c0 -5 -5 -10
-11 -10 -5 0 -7 5 -4 10 3 6 8 10 11 10 2 0 4 -4 4 -10z m598 1 c10 -6 10 -10
-1 -20 -12 -9 -16 -7 -20 9 -5 21 0 25 21 11z m382 -1 c0 -5 -10 -10 -22 -9
-22 0 -22 1 -3 9 11 5 21 9 23 9 1 1 2 -3 2 -9z m-1158 -52 c-6 -6 -12 -4 -16
7 -3 9 -2 13 4 10 6 -3 10 0 11 7 0 10 2 10 6 0 3 -8 1 -18 -5 -24z m148 -12
c0 -6 -7 -3 -14 7 -7 9 -22 17 -32 17 -16 0 -16 2 -4 10 16 10 50 -14 50 -34z
m924 33 c-3 -5 -11 -9 -19 -9 -7 0 -15 -6 -18 -12 -3 -7 -5 -4 -4 7 1 13 8 20
24 21 13 1 20 -2 17 -7z m-1134 -14 c0 -8 -4 -15 -10 -15 -5 0 -7 7 -4 15 4 8
8 15 10 15 2 0 4 -7 4 -15z m105 5 c3 -5 1 -10 -4 -10 -6 0 -11 5 -11 10 0 6
2 10 4 10 3 0 8 -4 11 -10z m65 -31 c0 -4 -7 -6 -15 -3 -8 4 -15 10 -15 15 0
4 7 6 15 3 8 -4 15 -10 15 -15z m515 11 c3 -5 1 -10 -4 -10 -6 0 -11 5 -11 10
0 6 2 10 4 10 3 0 8 -4 11 -10z m65 0 c0 -5 -5 -10 -11 -10 -5 0 -7 5 -4 10 3
6 8 10 11 10 2 0 4 -4 4 -10z m220 0 c0 -5 -2 -10 -4 -10 -3 0 -8 5 -11 10 -3
6 -1 10 4 10 6 0 11 -4 11 -10z m-850 -16 c0 -2 -7 -4 -15 -4 -8 0 -15 4 -15
10 0 5 7 7 15 4 8 -4 15 -8 15 -10z m145 -4 c3 -5 1 -10 -4 -10 -6 0 -11 5
-11 10 0 6 2 10 4 10 3 0 8 -4 11 -10z m759 -15 c-4 -8 -1 -15 6 -15 10 0 10
-3 0 -15 -7 -8 -18 -15 -24 -14 -7 0 -6 2 1 6 8 3 11 14 7 29 -4 14 -2 24 5
24 6 0 8 -7 5 -15z m889 -37 c6 -22 5 -22 -8 -4 -17 22 -20 40 -6 32 5 -3 11
-16 14 -28z m-923 2 c0 -5 -5 -10 -11 -10 -5 0 -7 5 -4 10 3 6 8 10 11 10 2 0
4 -4 4 -10z m1810 -54 c0 -2 -7 -7 -16 -10 -8 -3 -12 -2 -9 4 6 10 25 14 25 6z
m-2807 -50 c4 -10 1 -13 -9 -9 -7 3 -14 9 -14 14 0 14 17 10 23 -5z m1542
-172 c25 -25 26 -29 21 -118 -12 -193 -26 -232 -97 -278 -25 -16 -125 -34
-164 -29 -65 7 -88 60 -74 167 4 33 10 84 13 114 12 98 60 144 169 160 91 13
105 11 132 -16z m-1940 -4 c-3 -5 -12 -10 -18 -10 -7 0 -6 4 3 10 19 12 23 12
15 0z m1620 -32 c-3 -13 -7 -33 -8 -45 -1 -24 -46 -41 -68 -27 -6 3 -14 2 -18
-3 -3 -6 -27 -13 -53 -16 -26 -3 -56 -10 -66 -16 -50 -27 -73 -183 -33 -218
23 -19 79 -24 102 -9 10 7 16 25 16 49 0 20 3 40 6 44 4 3 7 17 7 29 0 23 2
24 74 39 17 4 18 -1 12 -63 -4 -37 -8 -94 -9 -127 l-3 -60 -39 -2 c-22 -1 -58
-5 -80 -8 -91 -13 -103 -13 -134 6 -17 10 -31 25 -31 33 0 8 -6 16 -14 19 -36
14 -23 189 21 264 31 53 93 103 136 110 17 3 50 9 72 13 22 4 57 8 78 9 34 1
37 -1 32 -21z m-509 -81 c-3 -16 -6 -35 -6 -42 0 -16 -39 -26 -126 -30 -51 -2
-70 -8 -85 -24 -10 -11 -19 -25 -19 -30 0 -19 32 -41 53 -36 68 14 99 14 122
-1 60 -39 50 -167 -18 -231 -31 -30 -60 -39 -153 -47 -22 -3 -62 -8 -89 -11
l-48 -8 7 34 c3 19 7 39 8 46 1 12 100 33 155 33 42 0 88 52 73 80 -9 17 -18
19 -58 14 -73 -9 -87 -8 -115 11 -24 15 -32 32 -28 58 0 4 -3 7 -8 7 -8 0 -6
23 5 77 10 50 72 101 134 109 13 1 46 6 73 9 37 5 52 4 58 -6 7 -11 9 -10 9 4
0 13 7 17 31 15 28 -2 30 -5 25 -31z m-1092 7 c10 -25 -1 -29 -14 -5 -6 12 -7
21 -1 21 5 0 12 -7 15 -16z m-24 -15 c0 -5 -7 -9 -15 -9 -9 0 -12 6 -9 15 6
15 24 11 24 -6z m753 -53 c-2 -22 -6 -43 -10 -47 -5 -4 -33 -10 -63 -13 -113
-11 -166 -33 -176 -72 -5 -19 -9 -22 -15 -12 -5 8 -9 -20 -9 -69 0 -70 3 -86
20 -103 17 -17 28 -19 78 -13 31 3 69 7 85 7 15 1 27 4 27 9 0 4 9 7 19 7 14
0 19 -7 17 -25 0 -14 -4 -25 -7 -25 -3 0 -4 -11 -2 -23 5 -23 1 -24 -89 -38
-81 -12 -116 -14 -165 -10 -13 1 -71 51 -59 51 4 0 -1 9 -12 20 -14 16 -18 33
-16 87 3 75 8 115 19 135 28 50 72 108 83 108 6 0 12 6 12 14 0 12 28 25 70
32 8 1 35 7 60 12 25 6 65 10 90 9 l45 -2 -2 -39z m485 -33 c2 -19 -1 -32 -7
-29 -5 3 -8 -2 -7 -12 1 -13 -8 -18 -41 -20 l-43 -3 0 40 c0 45 13 57 63 58
31 1 33 -1 35 -34z m1872 -4 c0 -5 -7 -9 -15 -9 -9 0 -12 6 -9 15 6 15 24 11
24 -6z m17 -99 c1 -11 -3 -18 -8 -14 -6 3 -8 11 -6 17 2 7 -3 21 -12 32 -16
19 -15 20 4 3 12 -9 21 -26 22 -38z m-37 -14 c0 -8 -5 -18 -12 -22 -7 -5 -9
-2 -5 9 3 9 1 18 -6 21 -7 2 -4 5 6 5 9 1 17 -5 17 -13z m-100 -36 c0 -5 -2
-10 -4 -10 -3 0 -8 5 -11 10 -3 6 -1 10 4 10 6 0 11 -4 11 -10z m30 -61 c0 -5
-9 -9 -20 -9 -17 0 -19 2 -8 14 13 14 28 12 28 -5z m-1802 -36 c3 -45 3 -45
-70 -57 -31 -6 -36 -4 -33 11 2 10 4 32 4 50 1 34 14 42 66 40 28 -2 30 -5 33
-44z m-1148 17 c0 -5 -7 -10 -16 -10 -8 0 -12 5 -9 10 3 6 10 10 16 10 5 0 9
-4 9 -10z m565 -560 c-3 -5 -11 -10 -16 -10 -6 0 -7 5 -4 10 3 6 11 10 16 10
6 0 7 -4 4 -10z m195 0 c0 -5 -4 -10 -10 -10 -5 0 -10 5 -10 10 0 6 5 10 10
10 6 0 10 -4 10 -10z m-176 -26 c9 -3 16 -10 16 -15 0 -13 -23 -10 -44 6 -16
12 -17 15 -4 15 9 0 23 -3 32 -6z m297 -109 c5 4 9 1 9 -5 0 -7 -6 -10 -14 -7
-8 3 -17 1 -20 -6 -5 -9 -8 -8 -12 2 -5 11 -8 11 -15 0 -6 -10 -9 -8 -9 9 0
19 4 22 20 17 11 -4 20 -3 19 2 -3 20 4 26 8 5 2 -12 9 -20 14 -17z m-111 -16
c0 -11 -4 -18 -10 -14 -5 3 -7 12 -3 20 7 21 13 19 13 -6z m-130 1 c0 -5 -7
-10 -15 -10 -8 0 -15 5 -15 10 0 6 7 10 15 10 8 0 15 -4 15 -10z m35 -8 c-3
-3 -11 0 -18 7 -9 10 -8 11 6 5 10 -3 15 -9 12 -12z m132 12 c-3 -3 -12 -4
-19 -1 -8 3 -5 6 6 6 11 1 17 -2 13 -5z m-252 -24 c3 -5 -2 -10 -11 -10 -16 0
-16 -1 2 -15 22 -17 12 -20 -17 -5 -15 8 -19 7 -19 -5 0 -8 -7 -15 -15 -15 -8
0 -15 5 -15 10 0 6 5 10 10 10 6 0 10 9 10 20 0 15 7 20 24 20 14 0 28 -4 31
-10z m-94 -19 c-9 -6 -10 -11 -2 -15 17 -11 3 -26 -22 -26 -18 0 -20 2 -7 11
12 9 12 10 -3 5 -10 -3 -25 1 -33 8 -12 13 -10 15 18 19 63 8 64 8 49 -2z
m139 -1 c0 -5 -4 -10 -10 -10 -5 0 -10 5 -10 10 0 6 5 10 10 10 6 0 10 -4 10
-10z m-216 -38 c2 -4 -4 -8 -14 -8 -10 0 -16 4 -14 8 3 4 9 8 14 8 5 0 11 -4
14 -8z m-359 -51 c-3 -6 -11 -11 -17 -11 -6 0 -6 6 2 15 14 17 26 13 15 -4z
m-22 -151 c-7 -27 -20 -25 -17 3 3 30 3 29 13 23 5 -3 7 -15 4 -26z m1077
-100 c0 -5 -4 -10 -10 -10 -5 0 -10 5 -10 10 0 6 5 10 10 10 6 0 10 -4 10 -10z
m-33 -380 c4 -69 6 -142 4 -163 -3 -36 -5 -38 -33 -33 -16 2 -45 17 -65 32
-31 23 -33 28 -19 36 12 7 22 5 33 -4 14 -11 16 -11 8 1 -6 11 -4 13 8 8 35
-13 15 9 -28 32 -25 13 -45 28 -45 33 0 5 13 0 28 -11 42 -29 82 -38 82 -16 0
9 -4 14 -9 11 -5 -3 -12 1 -15 10 -4 12 -2 15 9 10 13 -5 15 19 17 177 1 166
2 174 9 92 5 -49 12 -146 16 -215z m343 144 c0 -2 -9 0 -20 6 -11 6 -20 13
-20 16 0 2 9 0 20 -6 11 -6 20 -13 20 -16z m-657 -141 c-7 -2 -19 -2 -25 0 -7
3 -2 5 12 5 14 0 19 -2 13 -5z"/>
<path d="M2660 3163 c-61 -8 -98 -25 -98 -47 0 -11 -3 -60 -7 -107 -7 -104 0
-115 65 -100 24 5 49 16 56 23 15 15 22 88 10 107 -4 6 -3 17 2 24 6 7 13 28
16 48 6 42 -6 57 -44 52z"/>
<path d="M2760 3009 c0 -5 5 -7 10 -4 6 3 10 8 10 11 0 2 -4 4 -10 4 -5 0 -10
-5 -10 -11z"/>
<path d="M2150 2950 c0 -5 5 -10 11 -10 5 0 7 5 4 10 -3 6 -8 10 -11 10 -2 0
-4 -4 -4 -10z"/>
<path d="M4115 3870 c-3 -11 -2 -28 4 -37 8 -15 10 -11 11 20 0 41 -5 47 -15
17z"/>
<path d="M1255 3855 c-33 -8 -97 -17 -141 -21 -73 -6 -81 -8 -76 -26 3 -11 11
-17 21 -14 61 18 102 25 143 25 26 -1 52 2 58 6 6 4 17 1 25 -5 11 -10 15 -10
15 -1 0 7 4 10 9 7 8 -6 21 15 21 35 0 11 2 11 -75 -6z"/>
<path d="M3170 3849 c0 -5 5 -7 10 -4 7 4 8 -3 4 -21 -5 -19 -4 -25 5 -20 17
11 14 56 -4 56 -8 0 -15 -5 -15 -11z"/>
<path d="M1127 3798 c-14 -9 9 -12 73 -8 80 4 90 19 12 17 -40 -1 -79 -5 -85
-9z"/>
<path d="M1730 3680 c0 -6 7 -10 15 -10 8 0 15 2 15 4 0 2 -7 6 -15 10 -8 3
-15 1 -15 -4z"/>
<path d="M1891 3671 c-9 -6 -10 -11 -2 -15 6 -4 11 -2 11 4 0 6 5 8 10 5 6 -3
10 -1 10 4 0 13 -10 14 -29 2z"/>
<path d="M4188 3658 c-3 -7 -4 -26 -3 -43 2 -16 6 -100 10 -187 7 -147 8 -157
28 -162 12 -3 22 -4 23 -3 1 1 -2 29 -7 62 -4 33 -11 112 -15 175 -4 63 -8
122 -10 130 -1 8 -3 21 -3 28 -1 6 -5 12 -10 12 -5 0 -11 -6 -13 -12z"/>
<path d="M333 3505 c0 -27 2 -38 4 -22 2 15 2 37 0 50 -2 12 -4 0 -4 -28z"/>
<path d="M711 3434 c0 -11 3 -14 6 -6 3 7 2 16 -1 19 -3 4 -6 -2 -5 -13z"/>
<path d="M371 3343 c26 -60 38 -118 50 -228 11 -107 13 -373 3 -440 l-7 -47
25 16 c42 28 46 83 27 381 -7 121 -16 186 -25 200 -8 11 -14 42 -14 70 0 59
-14 82 -52 89 l-27 4 20 -45z"/>
<path d="M3727 3304 c-3 -4 -26 -8 -49 -11 -24 -2 -63 -8 -88 -13 -25 -5 -74
-12 -110 -15 -36 -4 -105 -13 -153 -21 -48 -9 -95 -14 -105 -13 -9 1 -24 -1
-32 -4 -36 -15 -155 -24 -169 -13 -11 8 -13 8 -8 -1 5 -7 -3 -14 -22 -18 -35
-7 -36 -11 -40 -95 -1 -38 -8 -71 -16 -79 -9 -9 -10 -22 -4 -43 6 -21 4 -41
-6 -64 -8 -21 -10 -34 -4 -34 6 0 8 -12 5 -27 -3 -16 -8 -59 -11 -98 -3 -38
-9 -85 -12 -104 -5 -30 -4 -33 13 -28 18 7 18 6 2 -7 -10 -7 -18 -18 -18 -24
0 -15 38 -35 55 -29 7 3 24 -1 39 -8 25 -14 25 -14 10 11 -15 21 -15 24 -1 30
9 3 22 2 29 -2 10 -6 9 -3 -1 9 -12 15 -12 17 3 11 9 -3 16 -11 16 -16 0 -6 7
-8 14 -5 10 4 13 1 9 -9 -4 -10 0 -12 11 -8 13 5 14 10 5 20 -15 18 -69 45
-79 39 -5 -3 -6 4 -3 15 6 24 23 27 23 4 0 -14 3 -14 16 -4 12 11 15 11 12 0
-2 -8 4 -15 13 -17 11 -3 15 3 14 18 -2 35 -27 45 -74 29 -42 -13 -51 -24 -28
-33 8 -4 7 -6 -3 -6 -9 -1 -21 4 -28 11 -9 9 -5 19 19 44 34 35 34 68 -1 77
-19 5 -29 27 -12 27 5 0 17 6 28 14 19 14 18 15 -6 43 -17 19 -18 22 -4 10 25
-21 38 -22 30 -2 -6 17 0 20 58 30 21 3 35 9 32 12 -8 8 70 64 123 88 23 10
41 22 41 27 0 4 5 8 11 8 16 0 143 62 147 72 2 4 8 8 13 8 6 0 19 9 31 20 12
11 28 20 35 20 7 0 13 5 13 10 0 6 7 10 15 10 8 0 15 4 15 9 0 5 11 12 25 15
14 4 31 17 37 31 19 42 40 41 71 -5 19 -27 23 -95 7 -105 -5 -3 -10 -15 -10
-27 0 -13 -5 -18 -14 -15 -8 3 -16 3 -18 -1 -7 -17 -69 -53 -79 -46 -8 4 -9 3
-5 -4 4 -7 1 -12 -8 -12 -9 0 -16 -4 -16 -10 0 -5 -4 -10 -10 -10 -17 0 -49
-33 -43 -44 4 -6 0 -5 -9 2 -13 10 -17 10 -22 -3 -3 -9 -10 -13 -16 -10 -5 3
-10 1 -10 -5 0 -7 -6 -10 -14 -7 -8 3 -17 -4 -23 -16 -11 -25 -6 -57 8 -57 16
0 47 33 51 55 2 11 12 21 23 23 20 4 20 4 0 -13 -11 -9 -15 -14 -8 -11 6 4 14
2 18 -4 3 -5 -2 -10 -12 -10 -15 0 -16 -2 -3 -10 11 -7 11 -10 2 -10 -7 0 -10
-5 -7 -11 4 -6 13 -8 20 -5 7 2 21 -1 31 -8 13 -10 14 -15 4 -21 -9 -6 -11 -4
-5 4 5 9 2 12 -11 9 -11 -2 -18 -10 -16 -16 1 -7 -5 -12 -14 -12 -13 0 -14 -3
-5 -13 8 -10 7 -17 -2 -26 -10 -11 -8 -11 11 -2 12 6 22 16 22 20 0 5 7 11 14
14 10 4 13 1 9 -9 -3 -7 0 -14 6 -14 6 0 11 8 11 18 0 14 2 14 9 3 5 -8 7 -19
5 -26 -3 -6 3 -18 12 -26 16 -12 17 -12 11 5 -7 17 -6 17 10 5 10 -9 14 -9 10
-2 -7 11 30 79 60 110 9 10 12 9 15 -4 3 -15 4 -15 21 1 9 10 16 25 16 34 -1
14 -2 14 -6 -1 -3 -11 -10 -16 -20 -13 -8 3 -19 6 -24 6 -6 0 -8 4 -4 10 3 5
13 6 22 3 10 -4 14 -2 9 5 -3 6 2 13 12 16 22 7 28 56 7 56 -22 0 -18 21 5 27
12 3 20 14 21 27 0 21 2 36 14 131 5 45 14 105 18 129 2 11 -17 19 -26 10z
m-17 -238 c0 -3 -4 -8 -10 -11 -5 -3 -10 -1 -10 4 0 6 5 11 10 11 6 0 10 -2
10 -4z m-105 -216 c3 -5 1 -10 -4 -10 -6 0 -11 5 -11 10 0 6 2 10 4 10 3 0 8
-4 11 -10z m-625 -260 c0 -5 -4 -10 -10 -10 -5 0 -10 5 -10 10 0 6 5 10 10 10
6 0 10 -4 10 -10z m-30 -4 c0 -3 -4 -8 -10 -11 -5 -3 -10 -1 -10 4 0 6 5 11
10 11 6 0 10 -2 10 -4z"/>
<path d="M756 3255 c4 -8 8 -15 10 -15 2 0 4 7 4 15 0 8 -4 15 -10 15 -5 0 -7
-7 -4 -15z"/>
<path d="M4262 3140 c0 -14 2 -19 5 -12 2 6 2 18 0 25 -3 6 -5 1 -5 -13z"/>
<path d="M4274 2960 c5 -85 12 -138 19 -142 9 -6 8 -8 -1 -8 -11 0 -12 -19 -7
-94 7 -89 6 -95 -14 -105 -11 -7 -18 -17 -15 -26 18 -47 232 -41 260 7 4 7 4
10 -1 6 -10 -9 -42 18 -85 72 -14 18 -37 46 -52 63 -16 17 -28 35 -28 41 0 6
-7 24 -16 41 -8 16 -24 84 -36 150 -11 66 -22 122 -25 125 -3 3 -2 -56 1 -130z"/>
<path d="M806 3051 c-13 -5 -16 -10 -9 -14 7 -4 14 -3 18 3 4 6 11 8 16 5 5
-4 9 -1 9 4 0 12 -7 13 -34 2z"/>
<path d="M517 3037 c-3 -7 -3 -34 0 -60 5 -39 10 -49 34 -61 l28 -14 -6 67
c-3 36 -6 67 -7 67 -10 11 -45 12 -49 1z"/>
<path d="M587 2988 c6 -91 11 -103 12 -28 0 36 -3 71 -7 78 -5 7 -7 -16 -5
-50z"/>
<path d="M3282 2861 c1 -3 -2 -14 -7 -24 -5 -12 -1 -23 15 -37 28 -24 29 -24
60 0 20 16 23 22 14 37 -10 16 -84 38 -82 24z"/>
<path d="M3430 2837 c0 -12 -4 -17 -8 -12 -4 6 -14 11 -22 13 -12 3 -11 0 3
-15 16 -17 18 -17 38 3 18 18 19 22 5 27 -12 5 -16 0 -16 -16z"/>
<path d="M3980 2840 c0 -5 5 -10 10 -10 6 0 10 5 10 10 0 6 -4 10 -10 10 -5 0
-10 -4 -10 -10z"/>
<path d="M3635 2829 c6 -9 45 -8 45 2 0 4 -11 7 -25 7 -13 0 -22 -4 -20 -9z"/>
<path d="M3620 2802 c0 -14 11 -21 26 -15 8 3 11 9 8 14 -7 11 -34 12 -34 1z"/>
<path d="M3350 2778 c-19 -12 -37 -23 -39 -24 -1 -2 0 -8 4 -14 5 -8 10 -8 20
0 9 8 14 7 18 -4 3 -8 15 -14 26 -13 24 2 24 2 10 28 -7 15 -7 24 2 35 17 20
-1 17 -41 -8z"/>
<path d="M3401 2784 c-7 -9 -10 -19 -5 -24 5 -5 14 2 21 16 13 27 5 31 -16 8z"/>
<path d="M3790 2769 c0 -5 5 -7 10 -4 6 3 10 8 10 11 0 2 -4 4 -10 4 -5 0 -10
-5 -10 -11z"/>
<path d="M3851 2754 c-20 -23 -9 -25 19 -4 16 13 20 20 10 19 -8 0 -21 -7 -29
-15z"/>
<path d="M3520 2750 c0 -5 5 -10 10 -10 6 0 10 5 10 10 0 6 -4 10 -10 10 -5 0
-10 -4 -10 -10z"/>
<path d="M3284 2735 c-8 -21 7 -69 21 -68 6 1 18 -6 28 -14 9 -9 17 -11 17 -5
0 6 -5 14 -10 17 -6 4 -4 12 5 22 12 12 13 18 4 29 -7 8 -14 12 -17 9 -3 -3
-14 2 -23 11 -17 16 -19 15 -25 -1z"/>
<path d="M2610 2705 c-30 -8 -72 -14 -92 -15 -20 0 -40 -5 -43 -10 -4 -6 -11
-8 -16 -5 -5 4 -9 1 -9 -5 0 -7 -9 -9 -22 -5 -19 5 -18 3 6 -14 17 -11 34 -17
39 -14 6 3 7 2 4 -4 -13 -20 40 -37 85 -27 l43 9 -37 23 c-21 13 -38 28 -38
33 0 12 32 -4 56 -28 9 -9 30 -18 45 -19 23 -2 29 2 30 19 1 12 3 34 5 50 1
15 2 27 1 26 -1 0 -27 -7 -57 -14z"/>
<path d="M2756 2663 c-4 -9 -4 -43 0 -76 6 -50 5 -59 -7 -52 -8 5 -5 -1 5 -13
21 -24 36 -31 17 -8 -10 11 -8 17 6 25 14 8 16 12 6 22 -7 7 -13 18 -13 24 0
5 5 3 10 -5 8 -13 10 -12 11 5 1 11 0 29 -1 40 -2 17 0 18 16 5 17 -14 17 -14
0 12 -22 33 -42 42 -50 21z"/>
<path d="M2368 2665 c-2 -2 -36 -5 -77 -7 -40 -1 -75 -6 -77 -10 -3 -5 -10 -6
-15 -3 -5 4 -9 2 -9 -4 0 -6 -12 -36 -27 -68 -15 -32 -27 -63 -28 -69 0 -6 -6
-18 -13 -26 -6 -8 -9 -18 -5 -21 3 -4 2 -7 -4 -7 -5 0 -10 -14 -10 -31 l0 -31
22 42 c13 26 25 39 29 32 8 -13 42 -16 49 -4 2 4 2 1 1 -5 -2 -7 0 -13 4 -13
4 0 30 47 57 105 28 58 53 105 56 105 14 0 16 -13 9 -46 -7 -29 -5 -34 6 -30
8 3 14 -1 14 -9 0 -8 -7 -15 -16 -15 -14 0 -16 -7 -11 -40 5 -39 21 -63 44
-67 7 -2 10 4 7 12 -4 8 -10 12 -15 9 -5 -3 -9 0 -9 6 0 7 9 14 20 17 11 3 17
9 14 15 -3 5 8 14 25 21 17 6 31 15 31 20 0 9 -29 4 -64 -9 -9 -3 -16 -1 -16
5 0 10 14 15 34 12 15 -3 35 20 33 40 -1 10 -5 19 -9 19 -4 0 -8 5 -8 11 0 7
10 5 25 -5 34 -23 45 -20 15 5 -32 25 -76 49 -82 44z m22 -72 c0 -7 -35 2 -42
11 -3 5 -4 15 -1 23 4 10 10 8 24 -8 11 -12 19 -24 19 -26z"/>
<path d="M3313 2619 c-2 -17 1 -18 12 -9 8 7 12 16 9 21 -9 16 -20 10 -21 -12z"/>
<path d="M1925 2605 c-5 -2 -27 -6 -47 -10 l-37 -6 23 -67 c13 -37 34 -100 47
-140 15 -46 30 -74 41 -78 19 -6 25 -24 8 -24 -5 0 -10 -7 -10 -17 0 -14 2
-14 20 2 11 10 17 21 15 25 -3 5 0 10 7 12 6 2 -4 14 -23 27 -26 17 -29 22
-11 18 14 -3 26 1 33 11 9 15 10 15 5 -2 -5 -14 -2 -17 10 -12 8 3 17 6 20 6
9 0 -8 126 -19 135 -7 6 -13 19 -13 30 -5 83 -22 106 -69 90z m65 -134 c0 -6
-4 -13 -10 -16 -5 -3 -10 1 -10 9 0 9 5 16 10 16 6 0 10 -4 10 -9z m20 -61 c0
-5 -4 -10 -10 -10 -5 0 -10 5 -10 10 0 6 5 10 10 10 6 0 10 -4 10 -10z m-55
-39 c-3 -6 -11 -11 -17 -11 -6 0 -6 6 2 15 14 17 26 13 15 -4z"/>
<path d="M3010 2580 c0 -5 5 -10 11 -10 5 0 7 5 4 10 -3 6 -8 10 -11 10 -2 0
-4 -4 -4 -10z"/>
<path d="M5015 2566 c-38 -7 -55 -15 -47 -20 7 -4 24 -5 37 -2 13 3 61 9 106
12 46 3 87 8 91 10 4 3 16 -4 28 -16 11 -11 31 -20 44 -20 13 0 26 -5 28 -12
2 -6 21 -11 41 -10 28 1 37 -3 37 -15 0 -14 2 -14 20 2 11 10 20 21 20 25 0 3
-43 18 -95 33 -104 30 -202 34 -310 13z"/>
<path d="M2908 2537 c12 -13 19 -27 15 -31 -4 -4 0 -4 10 0 16 6 15 9 -8 30
-33 31 -45 31 -17 1z"/>
<path d="M1213 2535 c0 -8 4 -12 9 -9 5 3 6 10 3 15 -9 13 -12 11 -12 -6z"/>
<path d="M1270 2520 c0 -5 5 -10 10 -10 6 0 10 5 10 10 0 6 -4 10 -10 10 -5 0
-10 -4 -10 -10z"/>
<path d="M5420 2501 c-15 -28 -13 -31 18 -31 15 0 54 -9 86 -20 44 -15 62 -17
72 -9 11 9 14 8 14 0 0 -7 4 -9 10 -6 5 3 7 0 4 -8 -4 -10 6 -16 33 -21 21 -3
60 -17 88 -30 46 -23 51 -23 80 -9 l30 16 -19 -22 c-19 -21 -19 -21 0 -22 27
-1 34 -3 189 -48 77 -23 158 -47 180 -53 66 -19 145 -56 145 -68 0 -6 5 -8 10
-5 6 3 13 0 15 -7 5 -12 21 -12 103 1 53 9 106 22 117 29 19 13 19 13 -3 8
-24 -5 -104 15 -257 64 -49 15 -256 76 -460 135 -203 59 -383 111 -400 116
-41 12 -43 12 -55 -10z"/>
<path d="M2140 2436 c-8 -10 -7 -15 4 -19 8 -3 19 0 26 7 8 10 7 15 -4 19 -8
3 -19 0 -26 -7z"/>
<path d="M2190 2419 c0 -5 5 -7 10 -4 6 3 10 8 10 11 0 2 -4 4 -10 4 -5 0 -10
-5 -10 -11z"/>
<path d="M1510 2410 c-11 -7 -12 -12 -4 -20 8 -8 13 -6 17 9 3 12 4 21 4 21
-1 0 -9 -5 -17 -10z"/>
<path d="M2125 2399 c-4 -6 -5 -12 -2 -15 2 -3 7 2 10 11 7 17 1 20 -8 4z"/>
<path d="M1470 2391 c0 -6 4 -12 8 -15 5 -3 9 1 9 9 0 8 -4 15 -9 15 -4 0 -8
-4 -8 -9z"/>
<path d="M1640 2391 c0 -6 4 -13 10 -16 6 -3 7 1 4 9 -7 18 -14 21 -14 7z"/>
<path d="M1466 2355 c10 -8 24 -14 29 -14 6 0 1 6 -9 14 -11 8 -24 15 -30 15
-5 0 -1 -7 10 -15z"/>
<path d="M1525 2330 c3 -5 13 -10 21 -10 8 0 12 5 9 10 -3 6 -13 10 -21 10 -8
0 -12 -4 -9 -10z"/>
<path d="M1455 2320 c3 -5 8 -10 11 -10 2 0 4 5 4 10 0 6 -5 10 -11 10 -5 0
-7 -4 -4 -10z"/>
<path d="M1570 2310 c-8 -5 -12 -11 -9 -14 3 -3 14 1 25 9 21 16 8 20 -16 5z"/>
<path d="M1498 2303 c6 -2 18 -2 25 0 6 3 1 5 -13 5 -14 0 -19 -2 -12 -5z"/>
<path d="M1465 2290 c3 -5 8 -10 11 -10 2 0 4 5 4 10 0 6 -5 10 -11 10 -5 0
-7 -4 -4 -10z"/>
<path d="M1568 2273 c6 -2 18 -2 25 0 6 3 1 5 -13 5 -14 0 -19 -2 -12 -5z"/>
<path d="M1601 2253 c-18 -19 -10 -25 12 -8 10 7 15 15 10 18 -4 3 -14 -2 -22
-10z"/>
<path d="M1535 2250 c4 -6 11 -8 16 -5 14 9 11 15 -7 15 -8 0 -12 -5 -9 -10z"/>
<path d="M1187 2232 c-24 -27 -21 -36 4 -11 11 11 19 23 16 25 -2 2 -11 -4
-20 -14z"/>
<path d="M444 2204 c12 -31 35 -179 47 -304 11 -118 7 -360 -7 -420 -5 -23 -3
-26 25 -25 24 0 31 4 31 19 0 19 0 19 -22 0 l-22 -19 22 29 c12 16 22 37 22
47 0 10 3 20 8 23 13 8 -17 457 -33 493 -8 17 -15 59 -15 92 0 57 -2 62 -26
71 -34 13 -37 13 -30 -6z"/>
<path d="M1625 2150 c3 -5 8 -10 11 -10 2 0 4 5 4 10 0 6 -5 10 -11 10 -5 0
-7 -4 -4 -10z"/>
<path d="M6333 2023 c-13 -2 -23 -12 -23 -21 0 -15 -2 -15 -10 -2 -9 13 -13
12 -30 -9 -14 -16 -20 -38 -20 -73 0 -35 -6 -58 -20 -75 -21 -27 -29 -123 -11
-123 6 0 11 -21 13 -47 l3 -48 55 -3 c30 -1 73 1 95 6 39 8 40 9 45 57 4 42 8
50 28 53 27 4 29 22 2 22 -30 0 -28 55 3 65 17 5 18 8 7 12 -32 13 -69 66 -90
128 -12 36 -22 64 -23 64 -1 -1 -12 -4 -24 -6z m8 -136 l33 -42 -42 40 c-23
21 -42 43 -42 48 0 14 17 -1 51 -46z m-41 -27 c-33 -26 -49 -26 -19 0 13 10
29 19 34 19 6 1 -1 -8 -15 -19z m78 -160 c-2 -33 -7 -46 -20 -48 -15 -3 -18 4
-18 36 0 35 -4 42 -27 50 -25 9 -23 10 20 9 l48 -1 -3 -46z"/>
<path d="M1183 2005 c-8 -22 6 -33 17 -15 13 20 12 30 0 30 -6 0 -13 -7 -17
-15z"/>
<path d="M585 1850 c-4 -6 -4 -34 0 -61 6 -41 12 -52 31 -59 13 -5 24 -13 24
-18 0 -5 7 -9 15 -9 12 0 15 15 15 68 0 37 -3 70 -7 72 -22 13 -72 17 -78 7z
m72 -107 c-2 -16 -4 -3 -4 27 0 30 2 43 4 28 2 -16 2 -40 0 -55z"/>
<path d="M6167 1693 c-14 -13 -6 -33 12 -33 14 0 19 6 18 20 -1 20 -17 27 -30
13z"/>
<path d="M5120 1660 c-2 -14 -3 -32 -4 -40 -1 -8 -11 -29 -23 -47 -13 -17 -23
-35 -23 -40 0 -11 44 -33 65 -33 7 0 15 -5 17 -11 3 -8 18 -9 44 -5 35 6 40
10 37 29 -3 17 2 25 26 34 17 6 31 17 31 24 0 10 -3 10 -12 1 -7 -7 -16 -12
-20 -12 -13 0 -9 38 4 42 8 3 4 9 -10 17 -20 11 -22 9 -22 -11 0 -13 -5 -30
-10 -38 -8 -12 -10 -12 -10 5 0 17 -2 17 -10 5 -6 -10 -10 -11 -10 -2 0 6 -4
12 -10 12 -5 0 -10 -12 -10 -27 0 -46 -21 -11 -35 59 -8 37 -14 53 -15 38z
m-3 -84 c-3 -8 -1 -17 6 -19 7 -2 8 -8 4 -13 -11 -11 -27 15 -20 33 3 7 7 13
10 13 3 0 3 -6 0 -14z"/>
<path d="M5185 1620 c-3 -5 -1 -10 4 -10 6 0 11 5 11 10 0 6 -2 10 -4 10 -3 0
-8 -4 -11 -10z"/>
<path d="M5810 1569 c-80 -22 -166 -44 -191 -50 l-46 -10 -7 -62 c-26 -262
-31 -327 -21 -327 9 0 74 17 343 86 56 15 62 19 63 43 1 14 3 35 4 46 4 28 25
286 25 302 0 18 -5 17 -170 -28z m117 -164 l-12 -150 -132 -36 c-149 -42 -218
-56 -210 -42 3 5 11 75 18 156 12 146 12 147 38 154 14 3 89 23 166 43 77 21
141 34 142 31 1 -3 -3 -73 -10 -156z"/>
<path d="M5851 1510 c-19 -16 -70 -51 -113 -77 -43 -26 -78 -51 -78 -55 0 -4
-6 -8 -13 -8 -7 0 -18 -10 -26 -21 -11 -18 -11 -23 1 -31 10 -7 10 -11 1 -15
-7 -2 -13 -9 -13 -14 0 -6 7 -6 18 -1 25 13 42 4 42 -23 0 -58 23 -69 71 -34
28 20 28 21 13 51 -8 16 -13 32 -10 36 3 3 1 10 -4 17 -6 8 -5 18 5 31 15 19
15 19 31 -1 16 -20 16 -20 10 1 -8 26 4 39 74 84 42 27 51 37 48 58 -4 35 -18
36 -57 2z"/>
<path d="M2616 1574 c-3 -9 -6 -72 -6 -141 l0 -125 -27 7 c-69 19 -66 26 -63
-140 1 -82 5 -183 9 -223 4 -40 5 -75 2 -78 -3 -3 -4 -21 -2 -40 3 -38 -4 -41
-37 -18 -13 9 -26 13 -30 9 -3 -3 -2 -9 4 -13 6 -4 15 -17 19 -30 4 -13 9 -21
13 -18 3 3 14 -1 24 -11 10 -9 18 -12 18 -7 0 5 4 3 9 -4 4 -7 34 -17 67 -22
141 -23 194 -43 194 -76 0 -8 4 -13 9 -9 6 3 15 -3 20 -13 6 -11 24 -25 41
-32 16 -7 30 -15 30 -19 0 -3 10 -7 23 -8 12 -1 37 -4 55 -6 26 -4 32 -2 28
10 -3 8 -6 21 -6 29 0 8 -4 14 -9 14 -5 0 -8 -12 -5 -26 3 -14 1 -23 -4 -20
-5 3 -12 124 -15 268 -3 145 -8 270 -12 279 -3 9 -24 24 -46 34 -40 19 -42 22
-39 67 1 17 -6 31 -18 39 -19 12 -19 14 -5 36 17 26 13 108 -9 160 -13 33 -15
39 -17 56 -2 21 -67 50 -95 43 -22 -5 -26 -12 -27 -44 0 -20 -4 -46 -9 -57 -8
-19 -9 -19 -9 1 -1 12 -8 25 -17 28 -9 3 -14 15 -13 28 7 60 -28 116 -45 72z
m61 -144 c1 -11 -1 -22 -5 -24 -4 -2 -8 7 -8 20 -1 13 1 24 5 24 4 0 7 -9 8
-20z"/>
<path d="M2340 1529 c0 -5 5 -7 10 -4 6 3 10 8 10 11 0 2 -4 4 -10 4 -5 0 -10
-5 -10 -11z"/>
<path d="M3843 1411 c0 -41 -6 -57 -33 -90 -21 -28 -26 -39 -14 -34 14 5 16 2
12 -15 -3 -12 -1 -23 6 -25 8 -3 11 4 8 23 -4 26 21 80 37 80 4 0 8 -12 9 -27
1 -15 7 -32 12 -37 14 -14 12 -43 -2 -49 -8 -4 -7 -6 4 -6 9 -1 18 -6 20 -11
2 -7 19 -8 46 -4 31 5 42 11 38 20 -8 22 4 44 24 44 11 0 22 5 25 10 4 6 3 10
-2 9 -25 -4 -35 3 -30 21 3 11 0 20 -6 20 -8 0 -7 3 1 9 11 7 11 9 -2 14 -13
5 -16 -1 -16 -28 0 -19 -4 -35 -10 -35 -5 0 -10 8 -10 18 0 14 -2 15 -10 2 -6
-10 -10 -11 -10 -2 0 6 -4 12 -10 12 -5 0 -10 -12 -10 -27 0 -46 -19 -12 -31
56 -6 34 -9 64 -7 66 2 3 19 8 38 11 23 5 31 4 26 -4 -3 -6 -2 -13 3 -16 8 -6
24 34 16 42 -2 2 -25 -1 -52 -6 -30 -7 -52 -7 -59 -1 -8 7 -11 -5 -11 -40z"/>
<path d="M2400 1433 c0 -15 18 -35 23 -27 3 5 -1 15 -9 22 -8 7 -14 9 -14 5z"/>
<path d="M3904 1404 c3 -9 6 -20 6 -25 0 -6 4 -8 9 -4 15 8 9 45 -7 45 -9 0
-12 -6 -8 -16z"/>
<path d="M485 1380 c-4 -6 -1 -18 6 -26 10 -13 10 -17 0 -24 -9 -5 -12 -19 -8
-41 4 -19 8 -62 10 -95 2 -40 9 -68 20 -78 9 -10 20 -23 24 -30 8 -14 93 -60
93 -51 0 3 18 -4 40 -15 22 -11 40 -18 40 -14 0 10 -25 31 -59 49 -19 9 -45
29 -59 43 -17 18 -23 21 -19 9 6 -17 6 -17 -17 0 -20 15 -21 20 -9 26 8 5 21
6 29 3 8 -3 14 -3 14 0 0 2 -10 9 -22 14 -18 7 -19 9 -5 9 24 1 21 13 -8 34
-24 17 -25 17 -25 -3 0 -32 -15 -23 -18 11 -2 19 2 28 8 24 5 -3 10 0 11 7 4
64 3 76 -3 72 -4 -2 -9 0 -13 6 -3 5 1 10 9 10 12 0 14 4 7 18 -5 9 -12 25
-15 35 -6 19 -21 22 -31 7z m49 -229 c3 -5 0 -11 -7 -14 -8 -3 -14 1 -14 9 0
16 13 19 21 5z"/>
<path d="M4625 1284 c-71 -19 -160 -41 -196 -50 l-67 -16 -5 -56 c-3 -31 -12
-120 -21 -196 -9 -77 -15 -141 -13 -142 2 -2 411 106 413 109 2 3 14 114 19
187 9 111 12 200 6 200 -3 -1 -64 -17 -136 -36z m102 -51 c-4 -27 -9 -96 -13
-156 -4 -59 -10 -110 -14 -112 -10 -6 -312 -85 -326 -85 -7 0 -8 18 -3 56 4
31 11 101 15 155 l7 99 51 15 c97 27 271 74 280 74 5 1 6 -20 3 -46z"/>
<path d="M4663 1238 c-9 -15 -78 -68 -88 -68 -10 0 -120 -72 -123 -81 -2 -5
-9 -9 -15 -9 -7 0 -18 -10 -26 -21 -10 -18 -10 -23 0 -30 10 -6 10 -11 1 -21
-9 -11 -6 -14 16 -13 23 0 28 -5 32 -35 6 -43 29 -49 70 -20 29 21 30 22 14
52 -8 16 -13 32 -10 36 3 3 1 10 -4 17 -6 8 -5 18 5 31 15 19 15 19 31 -1 16
-20 16 -20 10 1 -7 23 13 44 82 89 34 23 42 33 40 53 -3 29 -22 40 -35 20z"/>
<path d="M3832 1274 c1 -9 9 -19 16 -22 9 -3 13 2 10 14 -1 9 -9 19 -16 22 -9
3 -13 -2 -10 -14z"/>
<path d="M471 1244 c0 -11 3 -14 6 -6 3 7 2 16 -1 19 -3 4 -6 -2 -5 -13z"/>
<path d="M4088 1253 c7 -3 16 -2 19 1 4 3 -2 6 -13 5 -11 0 -14 -3 -6 -6z"/>
<path d="M6533 1233 c18 -5 42 -41 33 -50 -11 -11 15 -31 33 -26 13 3 16 12
13 34 -5 35 -6 35 -57 41 -22 3 -32 3 -22 1z"/>
<path d="M4218 1223 c7 -3 16 -2 19 1 4 3 -2 6 -13 5 -11 0 -14 -3 -6 -6z"/>
<path d="M4170 1210 c0 -5 7 -10 16 -10 8 0 12 5 9 10 -3 6 -10 10 -16 10 -5
0 -9 -4 -9 -10z"/>
<path d="M6423 1198 c-49 -11 -56 -24 -15 -30 15 -3 34 -8 42 -11 23 -10 40 6
33 31 -3 12 -8 22 -12 21 -3 -1 -25 -5 -48 -11z"/>
<path d="M6340 1170 c0 -5 7 -10 15 -10 8 0 15 5 15 10 0 6 -7 10 -15 10 -8 0
-15 -4 -15 -10z"/>
<path d="M4170 1113 c0 -15 2 -16 10 -3 7 12 10 8 10 -15 0 -23 -3 -27 -10
-15 -12 18 -12 17 -13 -222 l0 -177 -51 -12 -51 -12 45 -12 c109 -28 99 -29
93 10 -5 34 -5 35 26 35 37 0 52 -25 26 -44 -15 -10 -6 -13 54 -14 47 -2 71 2
71 9 0 6 7 9 15 5 8 -3 15 -1 15 5 0 6 -14 7 -35 3 -31 -5 -35 -3 -40 19 -5
20 -13 25 -33 24 -23 -2 -28 3 -30 27 -2 16 1 33 7 39 8 8 5 15 -11 24 l-23
12 23 1 c17 0 22 6 22 28 0 34 -14 57 -29 48 -7 -5 -9 -1 -5 8 3 9 10 16 15
16 4 0 7 13 6 30 -1 16 -6 30 -11 30 -4 0 -5 7 -2 16 3 8 2 12 -4 9 -14 -8
-13 -3 6 33 16 33 12 54 -9 46 -16 -6 -57 32 -57 51 0 8 -7 15 -15 15 -8 0
-15 -8 -15 -17z"/>
<path d="M5993 1091 l-23 -19 28 -5 c15 -3 41 -9 57 -13 25 -5 28 -4 18 7 -7
7 -13 21 -13 31 0 24 -38 23 -67 -1z"/>
<path d="M6120 1070 c-12 -8 -10 -10 8 -10 13 0 20 4 17 10 -7 12 -6 12 -25 0z"/>
<path d="M5697 1013 c-4 -3 -7 -14 -7 -24 0 -9 -6 -20 -12 -22 -7 -3 12 -6 42
-6 30 0 50 3 44 7 -6 4 -14 17 -18 30 -7 21 -35 30 -49 15z"/>
<path d="M727 989 c7 -7 15 -10 18 -7 3 3 -2 9 -12 12 -14 6 -15 5 -6 -5z"/>
<path d="M5410 980 c0 -5 3 -9 8 -9 24 4 33 -3 27 -21 -4 -12 -1 -22 7 -25 23
-9 73 11 77 30 2 14 -2 17 -20 12 -13 -3 -28 -2 -33 2 -18 14 -66 22 -66 11z"/>
<path d="M5556 981 c-18 -7 -16 -9 14 -19 47 -17 59 -15 53 8 -6 21 -31 25
-67 11z"/>
<path d="M783 973 c9 -2 23 -2 30 0 6 3 -1 5 -18 5 -16 0 -22 -2 -12 -5z"/>
<path d="M5083 893 c-13 -2 -23 -8 -23 -13 0 -5 -6 -7 -14 -4 -8 3 -17 1 -20
-5 -4 -6 -13 -8 -20 -5 -9 3 -15 -4 -18 -21 l-5 -25 61 6 c81 9 156 21 134 23
-12 1 -18 9 -18 26 0 26 -16 30 -77 18z"/>
<path d="M5215 860 c-17 -7 -14 -9 13 -9 20 -1 31 3 27 9 -7 12 -13 12 -40 0z"/>
<path d="M3117 810 c-3 -8 -7 -63 -10 -122 -3 -104 0 -118 29 -118 6 0 -1 38
-8 45 -3 3 -1 23 4 43 10 39 -4 179 -15 152z"/>
<path d="M4764 775 c4 -24 16 -30 16 -7 0 12 -4 22 -9 22 -5 0 -8 -7 -7 -15z"/>
<path d="M4621 769 c-42 -13 -38 -16 22 -22 41 -4 47 -3 47 14 0 21 -16 23
-69 8z"/>
<path d="M4500 729 c0 -5 5 -7 10 -4 6 3 10 8 10 11 0 2 -4 4 -10 4 -5 0 -10
-5 -10 -11z"/>
<path d="M3020 582 c0 -6 4 -13 9 -17 6 -3 8 -14 6 -24 -3 -14 1 -18 16 -14
22 6 24 14 7 31 -9 9 -9 12 0 12 7 0 12 -5 12 -11 0 -5 3 -8 8 -6 4 3 8 -6 9
-20 1 -24 12 -37 38 -46 6 -3 7 -7 3 -11 -3 -4 -17 -2 -30 5 l-23 12 20 -24
c26 -31 37 -39 47 -33 4 3 8 1 8 -5 0 -6 10 -16 23 -22 19 -11 20 -10 9 3 -7
9 -10 23 -6 32 6 15 -5 21 -29 17 -5 -1 -7 6 -5 16 2 10 9 17 16 16 8 -2 9 4
2 22 -5 14 -6 25 -2 26 6 0 -70 29 -120 46 -10 3 -18 1 -18 -5z"/>
<path d="M3770 563 c0 -23 -6 -31 -27 -39 -27 -9 -26 -10 14 -11 42 -2 63 9
43 22 -5 3 -10 15 -10 25 0 10 -4 22 -10 25 -6 4 -10 -6 -10 -22z"/>
<path d="M3645 560 c-16 -5 -43 -13 -60 -18 -30 -10 -30 -10 -4 -11 15 -1 46
-8 69 -16 51 -18 61 -14 51 22 -8 31 -15 34 -56 23z"/>
<path d="M3929 553 c-13 -17 -13 -17 6 -3 11 8 22 16 24 17 2 2 0 3 -6 3 -6 0
-17 -8 -24 -17z"/>
<path d="M3244 434 c3 -9 6 -19 6 -24 0 -4 13 -10 29 -12 26 -4 30 -1 33 24 4
27 3 28 -35 28 -32 0 -38 -3 -33 -16z"/>
</g>
</svg>
