<?xml version="1.0" standalone="no"?>
<!DOCTYPE svg PUBLIC "-//W3C//DTD SVG 20010904//EN"
 "http://www.w3.org/TR/2001/REC-SVG-20010904/DTD/svg10.dtd">
<svg version="1.0" xmlns="http://www.w3.org/2000/svg"
 width="720.000000pt" height="480.000000pt" viewBox="0 0 720.000000 480.000000"
 preserveAspectRatio="xMidYMid meet">

<g transform="translate(0.000000,480.000000) scale(0.100000,-0.100000)"
fill="#000000" stroke="none">
<path d="M3773 4166 c-71 -10 -87 -16 -116 -44 -18 -18 -37 -32 -42 -32 -6 0
-2 5 8 11 29 17 19 27 -20 19 -20 -5 -69 -12 -108 -15 -66 -6 -72 -9 -67 -27
3 -13 11 -18 23 -15 11 3 17 1 13 -4 -9 -16 -31 -10 -46 13 l-14 21 -210 -11
c-115 -6 -256 -18 -314 -26 -58 -8 -143 -17 -190 -21 -49 -4 -100 -15 -120
-25 -35 -18 -170 -47 -244 -53 -22 -1 -42 -9 -44 -16 -4 -11 1 -12 19 -7 44
14 133 27 159 24 14 -2 -10 -7 -52 -12 -43 -4 -78 -11 -78 -16 0 -21 132 -19
174 2 15 8 16 12 5 19 -11 7 -11 9 3 9 9 0 19 6 21 13 4 7 6 6 6 -4 1 -18 25
-32 36 -21 7 8 13 9 50 11 18 1 29 10 37 29 l12 27 4 -32 c3 -31 4 -32 53 -31
79 0 68 -9 -28 -22 -135 -20 -127 -33 15 -26 110 4 123 3 118 -11 -5 -13 0
-14 36 -9 103 14 274 26 302 21 24 -5 28 -4 16 5 -11 8 1 10 50 6 47 -4 58 -3
40 4 -18 7 -8 8 38 4 34 -2 62 -1 62 3 0 4 39 9 88 9 70 1 79 0 47 -7 -22 -5
-58 -8 -80 -8 -43 1 -85 -9 -85 -20 0 -4 -30 -5 -66 -3 -51 3 -65 1 -59 -8 6
-10 1 -12 -19 -8 -14 3 -26 1 -26 -3 0 -5 -5 -9 -11 -9 -5 0 -7 5 -4 10 9 14
-2 12 -29 -6 -16 -10 -26 -12 -31 -5 -3 6 -14 11 -23 11 -15 0 -15 -2 -2 -10
13 -9 13 -10 0 -11 -35 -1 -87 -10 -124 -20 -22 -6 -55 -11 -73 -11 -20 0 -33
-5 -33 -13 0 -7 -7 -15 -14 -18 -10 -4 -13 -1 -9 9 7 18 -11 18 -26 0 -6 -8
-22 -16 -34 -19 -12 -2 -31 -8 -41 -12 -12 -6 -17 -5 -13 2 8 12 -42 5 -59 -9
-6 -4 -18 -6 -26 -3 -9 4 -23 -1 -32 -10 -9 -9 -16 -12 -16 -6 0 6 -13 8 -32
5 -18 -3 -41 -6 -50 -7 -12 -1 -14 -5 -8 -11 6 -6 10 -19 9 -30 0 -13 -3 -16
-6 -7 -3 7 -14 22 -24 32 -15 15 -19 16 -19 4 0 -11 -7 -14 -25 -9 -16 4 -25
2 -25 -6 0 -6 -5 -8 -10 -5 -6 4 -8 11 -5 16 4 5 1 9 -4 9 -6 0 -11 -5 -11
-11 0 -5 -6 -7 -12 -4 -7 4 -2 -3 11 -14 13 -12 18 -21 13 -21 -6 0 -14 5 -18
11 -3 6 -17 8 -30 5 -13 -4 -24 -2 -24 3 0 6 -7 8 -15 5 -8 -4 -15 -1 -15 6 0
6 -5 8 -11 4 -8 -5 -8 -9 1 -14 7 -5 2 -7 -14 -7 -14 0 -26 3 -26 8 0 14 -30
10 -30 -3 0 -8 -8 -4 -17 7 -13 16 -15 17 -10 3 6 -18 -8 -26 -15 -9 -5 14
-80 16 -105 2 -13 -6 -23 -7 -23 -2 0 5 6 12 13 15 6 3 -1 4 -18 3 -16 -1 -33
-9 -37 -17 -5 -12 -7 -11 -7 3 -1 10 -5 16 -10 12 -5 -3 -33 -6 -61 -6 -28 -1
-52 -5 -54 -8 -3 -4 -38 -6 -80 -6 -42 0 -76 -2 -76 -5 0 -3 -18 -6 -40 -6
-22 -1 -40 3 -40 7 0 5 8 9 18 9 34 -1 365 44 355 47 -6 2 -112 -7 -236 -21
-123 -14 -248 -28 -278 -31 -30 -3 -64 -8 -76 -11 -13 -2 -23 0 -23 6 0 5 12
10 26 10 14 0 125 13 247 29 122 16 250 32 285 36 34 4 62 11 62 17 0 5 -6 6
-12 2 -10 -5 -10 -4 -2 5 6 7 56 21 110 32 108 22 154 46 69 35 -63 -7 -263
-17 -250 -12 6 2 52 10 103 17 50 7 92 16 92 20 0 7 23 13 90 22 34 5 60 17
60 29 0 5 -10 6 -21 3 -12 -4 -19 -3 -16 2 3 5 -10 10 -29 11 -58 4 -391 -17
-519 -33 -65 -8 -144 -15 -175 -15 -30 0 -68 -7 -84 -15 -15 -8 -37 -15 -47
-15 -12 0 -24 -12 -33 -32 -10 -23 -15 -27 -15 -14 -1 16 -6 18 -38 12 -21 -3
-62 -9 -90 -12 -29 -4 -51 -9 -49 -13 2 -3 -20 -4 -50 -3 -44 3 -54 1 -54 -12
0 -19 -3 -18 39 -6 19 5 30 6 25 1 -24 -23 -62 -21 -87 5 -24 23 -32 25 -119
25 -148 0 -415 -29 -463 -50 -23 -10 -55 -36 -71 -57 -29 -37 -29 -38 -26
-162 4 -133 12 -172 37 -172 9 0 13 -4 10 -10 -3 -5 -1 -28 5 -51 25 -93 41
-213 46 -364 6 -164 -6 -336 -26 -360 -16 -19 5 -357 23 -370 8 -5 25 -64 38
-130 22 -108 24 -145 24 -375 0 -229 -2 -259 -19 -293 -15 -30 -17 -49 -12
-90 4 -29 8 -81 9 -117 3 -53 9 -73 33 -109 25 -38 44 -52 129 -91 55 -26 114
-50 131 -54 20 -4 82 6 184 29 85 20 169 38 186 39 41 4 54 13 54 39 0 16 6
22 23 23 12 1 85 6 162 13 284 22 397 13 519 -44 90 -42 126 -52 206 -61 71
-8 121 -32 137 -67 7 -14 46 -39 115 -71 83 -39 109 -56 122 -81 20 -36 90
-75 136 -75 72 0 187 -39 197 -67 8 -20 22 -33 76 -69 21 -13 41 -23 45 -20
17 10 145 -71 164 -104 20 -34 102 -73 142 -67 17 2 43 0 58 -5 46 -16 151 24
190 73 17 21 40 39 50 39 10 0 21 7 24 15 8 19 40 19 93 1 58 -21 203 -3 288
35 23 10 46 19 51 19 5 0 13 14 18 32 12 42 56 55 128 37 60 -15 201 -13 270
4 37 9 56 21 79 49 37 46 85 61 165 53 127 -15 311 34 333 88 15 35 51 44 103
27 101 -33 331 13 362 72 10 20 23 26 61 31 26 3 57 1 68 -3 30 -11 178 -1
240 16 37 11 56 23 73 48 28 40 81 55 136 36 70 -23 296 34 296 75 0 23 75 41
113 27 20 -7 70 -9 131 -7 113 6 167 25 176 64 4 19 18 28 54 41 85 28 81 7
78 484 -2 232 -6 424 -10 428 -13 13 -302 108 -330 108 -15 0 -88 20 -162 45
-187 64 -332 110 -420 135 -41 11 -84 25 -95 30 -11 5 -36 11 -55 14 -19 4
-48 13 -65 22 -74 40 -150 77 -186 89 -37 13 -39 13 -39 -5 0 -13 -5 -17 -15
-14 -8 3 -13 11 -12 17 1 5 -14 14 -33 18 -42 9 -52 3 -19 -10 17 -7 19 -10 7
-10 -10 -1 -27 9 -38 21 -15 16 -32 23 -60 23 -22 0 -34 3 -27 7 7 5 -3 7 -23
6 -20 -1 -42 2 -49 7 -9 5 -12 4 -8 -2 7 -12 -42 -11 -61 1 -10 6 -273 -16
-362 -31 -19 -3 -63 -7 -98 -8 -106 -5 -157 -10 -162 -15 -14 -14 -69 -27 -73
-17 -2 6 -37 14 -79 18 -123 12 -111 -17 -131 325 -10 164 -21 302 -23 306 -3
4 -14 8 -25 8 -15 0 -19 7 -19 33 0 17 -5 106 -11 197 -11 164 -11 164 11 182
22 18 23 21 15 176 -9 204 -18 249 -55 287 -25 25 -40 30 -102 36 -100 11
-188 9 -285 -5z m80 -193 c-7 -2 -21 -2 -30 0 -10 3 -4 5 12 5 17 0 24 -2 18
-5z m-75 -10 c-10 -2 -26 -2 -35 0 -10 3 -2 5 17 5 19 0 27 -2 18 -5z m-103
-13 c-27 -5 -63 -8 -80 -8 -25 1 -23 2 10 8 22 4 58 7 80 7 38 0 37 0 -10 -7z
m-1777 -37 c-10 -2 -26 -2 -35 0 -10 3 -2 5 17 5 19 0 27 -2 18 -5z m-295 -30
c-7 -2 -21 -2 -30 0 -10 3 -4 5 12 5 17 0 24 -2 18 -5z m1667 -3 c0 -5 -4 -10
-10 -10 -5 0 -10 5 -10 10 0 6 5 10 10 10 6 0 10 -4 10 -10z m-1793 -16 c-3
-3 -12 -4 -19 -1 -8 3 -5 6 6 6 11 1 17 -2 13 -5z m-176 -57 c-10 -9 -11 -8
-5 6 3 10 9 15 12 12 3 -3 0 -11 -7 -18z m149 8 c-7 -9 -15 -13 -19 -10 -3 3
1 10 9 15 21 14 24 12 10 -5z m-817 -46 c-29 -11 -53 -25 -53 -30 0 -5 -5 -9
-12 -9 -15 0 22 40 45 49 10 4 30 7 45 8 19 2 11 -4 -25 -18z m610 4 c-13 -2
-35 -2 -50 0 -16 2 -5 4 22 4 28 0 40 -2 28 -4z m1368 -36 c-10 -9 -11 -8 -5
6 3 10 9 15 12 12 3 -3 0 -11 -7 -18z m-1242 -41 c-2 -2 -22 -6 -44 -9 -28 -5
-34 -4 -20 3 19 8 73 14 64 6z m229 -3 c-10 -2 -28 -2 -40 0 -13 2 -5 4 17 4
22 1 32 -1 23 -4z m-330 -10 c-10 -2 -28 -2 -40 0 -13 2 -5 4 17 4 22 1 32 -1
23 -4z m235 0 c-7 -2 -19 -2 -25 0 -7 3 -2 5 12 5 14 0 19 -2 13 -5z m-330
-10 c-7 -2 -21 -2 -30 0 -10 3 -4 5 12 5 17 0 24 -2 18 -5z m-559 -290 c5 -44
3 -73 -2 -73 -12 0 -19 62 -20 175 0 87 0 88 8 30 4 -33 11 -93 14 -132z m98
135 c2 -21 0 -38 -4 -38 -4 0 -8 21 -7 48 1 52 6 48 11 -10z m-165 -95 c-3
-10 -5 -2 -5 17 0 19 2 27 5 18 2 -10 2 -26 0 -35z m162 -95 c4 7 6 -16 5 -50
-1 -35 0 -48 3 -30 6 43 27 37 31 -9 4 -55 12 -80 22 -74 6 3 10 1 10 -4 0 -6
-4 -11 -10 -11 -14 0 -13 -37 2 -42 8 -3 8 -9 1 -23 -7 -12 -8 -28 -1 -47 6
-15 7 -35 4 -43 -3 -9 1 -15 10 -15 11 0 15 -6 11 -19 -3 -12 1 -22 10 -25 11
-5 12 -10 2 -28 -9 -17 -9 -24 5 -34 16 -11 17 -49 1 -74 -4 -6 1 -7 10 -3 13
4 16 1 13 -13 -2 -10 -11 -18 -19 -16 -10 2 -9 -2 3 -11 10 -8 15 -17 11 -20
-3 -4 -1 -13 5 -20 18 -22 25 -99 10 -109 -10 -6 -10 -8 -1 -8 7 0 10 -7 7
-17 -5 -15 -4 -15 5 -3 5 8 13 11 17 7 4 -4 2 -13 -4 -19 -17 -17 -15 -38 5
-38 15 0 14 -2 -3 -16 -15 -13 -16 -15 -2 -10 12 3 15 1 11 -10 -3 -8 1 -14 8
-14 10 0 10 -3 1 -12 -8 -8 -9 -15 -1 -25 8 -8 8 -13 1 -13 -11 0 -10 -75 1
-86 3 -3 2 -17 -3 -30 -6 -14 -6 -24 -1 -24 5 0 7 -10 3 -22 -3 -15 -2 -19 7
-14 6 4 3 -8 -8 -27 -21 -38 -17 -55 7 -34 12 9 11 5 -2 -15 -10 -15 -17 -37
-16 -50 3 -36 0 -44 -10 -28 -5 8 -11 12 -13 10 -10 -10 -21 -209 -19 -312 2
-62 -1 -108 -6 -108 -13 0 -22 36 -22 85 0 26 -3 35 -9 26 -5 -8 -11 7 -15 45
-16 145 -18 157 -27 143 -6 -10 -9 -4 -9 19 0 35 -27 140 -40 157 -18 24 -18
423 0 471 10 25 6 453 -4 510 -2 10 -6 73 -8 139 -3 66 -3 100 -1 75 3 -25 7
-39 12 -32z m48 56 c-3 -3 -12 -4 -19 -1 -8 3 -5 6 6 6 11 1 17 -2 13 -5z
m3003 -4 c0 -4 -6 -11 -12 -13 -8 -4 -9 -6 -2 -6 6 -1 17 6 24 14 16 19 40 19
40 1 0 -8 4 -17 9 -20 5 -4 7 4 4 15 -4 16 -2 20 8 17 8 -3 13 -15 11 -29 -1
-13 -4 -37 -6 -52 -3 -33 -12 -42 -46 -52 -20 -6 -23 -5 -12 6 17 18 15 32 -3
25 -9 -3 -15 0 -15 10 0 12 -6 15 -22 11 -13 -3 -49 -9 -80 -12 -55 -7 -58 -6
-58 14 0 13 -4 19 -10 16 -6 -4 -8 -15 -5 -26 6 -17 1 -19 -34 -19 -38 0 -68
19 -43 28 7 2 12 8 12 13 0 5 -9 4 -20 -3 -13 -9 -18 -19 -14 -32 5 -15 2 -18
-15 -13 -11 3 -24 1 -27 -4 -3 -5 -15 -9 -27 -9 -18 0 -20 2 -7 11 12 9 11 10
-7 6 -12 -3 -24 0 -27 7 -2 6 -5 1 -5 -11 -1 -16 -7 -23 -22 -23 -11 0 -17 5
-14 10 4 6 -6 10 -22 11 -15 0 -23 3 -16 6 10 3 10 9 1 23 -16 26 -10 29 55
34 52 4 75 -5 45 -17 -7 -3 -3 -6 9 -6 12 -1 23 -4 26 -8 5 -11 0 8 -8 30 -5
12 -2 17 9 17 9 0 16 -7 16 -15 0 -8 4 -15 10 -15 5 0 7 7 3 16 -5 14 -1 16
25 12 18 -2 32 -1 32 4 0 4 7 8 15 8 9 0 12 -6 9 -15 -5 -11 -2 -13 10 -9 8 3
14 10 13 16 -2 12 31 20 52 13 10 -4 11 -8 2 -19 -9 -10 -9 -16 -1 -21 6 -4
10 -3 9 2 -3 20 2 25 15 14 11 -9 15 -6 21 16 6 21 9 24 14 12 4 -12 12 -14
26 -8 l20 8 -20 1 c-19 1 -19 2 -2 9 27 10 57 11 57 1z m-3332 -25 c-3 -3 -9
2 -12 12 -6 14 -5 15 5 6 7 -7 10 -15 7 -18z m3222 15 c0 -5 -4 -10 -10 -10
-5 0 -10 5 -10 10 0 6 5 10 10 10 6 0 10 -4 10 -10z m-2913 -62 c-3 -8 -6 -5
-6 6 -1 11 2 17 5 13 3 -3 4 -12 1 -19z m2523 0 c0 -10 2 -10 9 0 7 11 10 10
15 -3 3 -9 3 -21 0 -27 -3 -5 3 -12 15 -15 12 -3 21 -9 21 -14 0 -13 -28 -11
-36 2 -4 8 -9 7 -15 -2 -6 -11 -11 -11 -20 -2 -10 10 -9 14 4 19 9 3 17 10 17
15 0 6 -9 5 -20 -1 -11 -6 -20 -20 -20 -30 0 -11 -4 -20 -10 -20 -5 0 -10 5
-10 10 0 6 -8 10 -17 10 -14 0 -15 -2 -4 -9 20 -13 -23 -25 -56 -16 -14 3 -39
1 -55 -6 -18 -7 -33 -8 -36 -3 -4 5 -17 10 -29 11 -16 2 -21 -2 -17 -12 4 -10
0 -15 -15 -15 -14 0 -23 -8 -27 -25 -4 -15 -11 -22 -18 -18 -7 4 -7 2 1 -7 16
-17 5 -109 -15 -132 -10 -12 -11 -18 -4 -18 7 0 12 -5 12 -11 0 -6 -6 -9 -14
-6 -10 4 -12 0 -9 -14 3 -10 0 -19 -6 -19 -6 0 -11 -8 -11 -17 1 -15 4 -14 21
6 l20 24 -5 -28 c-8 -44 -23 -52 -46 -25 -11 13 -20 18 -20 13 0 -6 7 -16 16
-24 8 -7 13 -21 11 -31 -3 -10 -1 -18 4 -18 5 0 9 5 9 10 0 6 4 10 9 10 5 0 8
-18 8 -40 -2 -43 -12 -50 -34 -22 -8 9 -11 11 -7 3 5 -9 3 -12 -4 -7 -17 10
-15 24 6 29 13 4 11 5 -5 6 -13 0 -23 -3 -23 -9 0 -5 -4 -10 -10 -10 -5 0 -10
9 -10 20 0 12 5 17 13 14 15 -5 21 32 6 41 -5 4 -9 20 -9 36 0 27 3 30 23 24
21 -7 21 -6 4 7 -16 12 -18 24 -14 79 8 90 9 93 21 101 6 4 20 5 31 3 11 -3
14 -2 7 1 -9 4 -10 10 -2 19 8 9 5 12 -12 11 -18 -1 -24 5 -26 28 -3 26 -1 28
22 24 26 -5 30 1 29 40 -1 18 10 15 30 -8 20 -24 40 -26 57 -5 8 9 8 15 2 15
-6 0 -12 -5 -14 -12 -3 -7 -12 -9 -23 -4 -31 11 -1 30 53 33 26 1 49 3 52 4 3
1 10 3 15 4 6 1 27 5 48 10 24 5 48 3 63 -4 20 -9 26 -8 30 4 7 18 24 20 24 3z
m-2643 -50 c-3 -8 -6 -5 -6 6 -1 11 2 17 5 13 3 -3 4 -12 1 -19z m2299 -7 c-9
-13 -46 -15 -46 -1 0 14 34 30 44 20 4 -4 5 -13 2 -19z m-2479 -3 c-3 -8 -6
-5 -6 6 -1 11 2 17 5 13 3 -3 4 -12 1 -19z m160 0 c-3 -8 -6 -5 -6 6 -1 11 2
17 5 13 3 -3 4 -12 1 -19z m-30 -20 c-3 -7 -5 -2 -5 12 0 14 2 19 5 13 2 -7 2
-19 0 -25z m2167 26 c14 -5 13 -9 -1 -32 l-17 -27 26 23 26 24 13 -24 c7 -12
14 -38 14 -55 1 -26 -3 -33 -18 -33 -10 0 -15 -5 -12 -10 4 -6 11 -8 16 -5 15
10 10 -47 -6 -79 -9 -16 -12 -32 -7 -35 6 -4 6 -16 1 -29 -5 -13 -13 -20 -19
-17 -5 3 -10 2 -10 -4 0 -5 5 -11 11 -13 14 -5 -10 -58 -26 -58 -20 0 -25 12
-14 31 10 20 3 24 -18 11 -15 -10 -25 -62 -12 -62 6 0 9 -6 6 -12 -2 -7 -11
-12 -21 -10 -9 2 -16 -2 -16 -8 0 -5 -9 -10 -21 -10 -11 0 -18 4 -14 9 3 5 0
13 -7 17 -7 4 -10 4 -6 -1 12 -13 -19 -35 -49 -34 -43 2 -64 9 -57 20 3 6 13
8 21 5 9 -4 11 -2 7 6 -5 8 -1 9 12 4 15 -6 17 -5 6 6 -9 9 -19 10 -42 1 -17
-6 -28 -7 -24 -2 3 5 1 9 -4 9 -18 0 -9 64 12 82 18 15 19 19 6 27 -8 5 -17 8
-21 5 -4 -2 -6 4 -4 13 2 10 4 18 5 18 1 0 3 28 5 62 4 66 14 94 48 130 23 26
110 57 138 50 10 -3 22 -1 25 4 6 10 26 12 48 3z m1093 -14 c-1 -11 -5 -20 -9
-20 -4 0 -8 -5 -8 -11 0 -5 5 -7 10 -4 6 3 10 1 10 -5 0 -7 -6 -10 -14 -7 -8
3 -17 -1 -20 -9 -10 -26 -7 -34 12 -27 16 7 16 6 0 -11 -10 -9 -18 -20 -18
-23 0 -3 8 -12 18 -19 15 -12 15 -15 2 -23 -8 -6 -11 -13 -8 -17 4 -3 0 -13
-8 -21 -22 -23 -29 -7 -10 22 16 25 16 27 -11 54 -15 16 -29 35 -31 42 -2 8 0
11 3 7 12 -11 42 9 48 32 5 19 3 20 -11 8 -9 -7 -20 -17 -23 -22 -4 -5 -6 7
-6 27 1 29 4 34 17 27 9 -5 23 -3 35 6 24 18 24 18 22 -6z m-197 0 c-8 -5 -11
-13 -6 -17 5 -4 13 -1 19 9 10 14 12 13 24 -9 7 -14 10 -29 7 -34 -3 -6 0 -17
7 -25 10 -13 10 -17 -2 -25 -19 -12 -26 -11 -35 3 -5 7 -2 9 8 5 13 -4 15 1
13 30 -4 43 -10 49 -29 34 -10 -9 -16 -9 -21 -1 -9 15 2 40 17 40 9 0 9 -3 -2
-10z m-1210 -46 c0 -8 6 -11 16 -7 12 4 14 0 8 -23 -8 -35 -3 -30 -36 -38 -26
-6 -27 -4 -24 22 2 16 6 34 10 41 4 6 3 11 -2 11 -4 0 -16 -16 -25 -36 -12
-23 -13 -33 -5 -28 9 6 9 3 -1 -9 -16 -20 -51 -23 -51 -4 0 9 -2 9 -8 0 -5 -7
-27 -14 -49 -15 -31 -1 -40 -5 -36 -15 6 -16 -16 -63 -29 -63 -5 0 -7 4 -3 9
3 6 -7 8 -22 7 -19 -3 -28 -9 -27 -20 1 -9 -3 -16 -9 -16 -6 0 -7 -3 -3 -7 4
-4 19 -7 34 -8 20 0 28 -6 30 -22 2 -13 -1 -23 -7 -23 -6 0 -8 8 -5 18 4 10 3
13 -3 6 -4 -6 -23 -14 -40 -17 -31 -6 -32 -5 -29 21 10 62 31 112 48 112 4 0
5 6 2 14 -4 11 0 13 18 9 19 -4 20 -3 8 7 -10 7 -11 13 -4 16 6 3 26 16 44 29
20 15 38 21 44 16 6 -4 21 -11 34 -14 19 -4 21 -3 11 9 -6 7 -15 11 -20 8 -5
-3 -9 0 -9 5 0 15 57 14 62 -1 3 -8 12 -4 26 10 22 22 52 20 52 -4z m40 22 c0
-11 -19 -15 -25 -6 -3 5 1 10 9 10 9 0 16 -2 16 -4z m1160 -28 c5 -13 9 -17 9
-9 1 8 3 12 6 9 3 -3 1 -17 -4 -32 -7 -18 -7 -26 0 -26 6 0 8 -4 4 -9 -3 -5 4
-12 15 -16 32 -10 24 -28 -10 -21 -25 5 -30 2 -30 -14 0 -11 -6 -20 -14 -20
-8 0 -16 -5 -18 -11 -3 -9 -10 -8 -25 1 -31 20 -86 -4 -78 -34 4 -14 3 -17 -3
-8 -6 9 -12 6 -20 -13 -7 -14 -17 -23 -22 -20 -6 4 -8 11 -5 16 4 5 2 9 -3 9
-9 0 -19 -22 -36 -74 -4 -10 -12 -16 -20 -13 -8 3 -23 -3 -33 -13 -13 -12 -25
-15 -34 -9 -20 13 -27 11 -31 -8 -3 -14 -8 -12 -31 12 -26 29 -27 29 -27 7 0
-12 -6 -22 -14 -22 -8 0 -18 -14 -22 -32 -3 -18 -14 -40 -24 -48 -16 -14 -12
-15 39 -14 67 1 105 -13 95 -35 -8 -19 -8 -27 1 -66 4 -16 8 -37 9 -45 0 -8
17 -30 36 -49 34 -34 34 -36 13 -39 -13 -2 -23 -8 -23 -13 0 -6 -7 -17 -15
-25 -20 -20 -19 -34 3 -36 54 -6 199 -2 195 6 -3 5 6 7 20 4 15 -3 24 -2 22 2
-3 4 4 10 15 13 11 3 20 0 20 -6 0 -8 4 -7 12 1 7 7 27 12 45 12 23 0 33 5 33
16 0 9 5 12 13 8 8 -5 7 -2 -2 9 -12 15 -12 19 5 31 10 8 16 18 11 22 -4 4 -7
2 -7 -4 0 -7 -4 -12 -10 -12 -14 0 -12 16 4 33 11 11 12 17 3 26 -8 8 -7 11 6
11 9 0 17 -7 17 -16 0 -10 6 -14 15 -10 19 7 19 1 -1 -19 -13 -12 -14 -19 -5
-28 9 -9 13 -6 17 11 4 12 10 22 13 22 7 0 7 -9 2 -52 -1 -4 -7 -5 -14 -2 -8
3 -20 -3 -28 -12 -12 -16 -12 -17 4 -11 9 3 17 2 17 -4 0 -6 5 -7 10 -4 6 3
10 1 10 -5 0 -7 -8 -9 -22 -5 -19 6 -21 5 -10 -6 6 -7 12 -19 12 -26 0 -19
-30 -4 -30 16 -1 11 -5 8 -15 -9 -15 -27 -4 -42 24 -32 9 3 13 1 8 -3 -6 -7
-23 -11 -63 -14 -5 -1 -19 -7 -29 -15 -18 -13 -17 -14 13 -10 18 2 32 -1 32
-6 0 -6 -8 -10 -18 -10 -11 0 -24 -12 -31 -26 -7 -17 -17 -24 -27 -20 -8 3
-22 2 -32 -3 -27 -14 -122 -29 -122 -19 0 5 -6 6 -12 1 -23 -13 -40 -12 -34 3
3 8 -1 14 -9 14 -8 0 -12 -6 -9 -13 3 -9 -8 -17 -31 -24 -22 -7 -35 -7 -35 -1
0 5 -4 6 -10 3 -6 -3 -7 1 -4 9 7 19 7 19 -86 2 -41 -8 -102 -17 -135 -20 -84
-7 -197 -24 -289 -42 -19 -4 -26 -3 -22 5 4 6 18 11 31 11 13 0 27 5 30 10 4
6 12 7 18 3 7 -4 6 0 -2 10 -12 15 -11 17 9 17 16 0 20 -4 16 -16 -3 -8 -2
-13 2 -11 4 3 29 8 55 11 70 10 150 25 155 31 12 12 -7 14 -37 4 -17 -6 -46
-8 -64 -4 -18 3 -44 7 -58 9 -14 1 -31 6 -37 10 -6 4 -23 -1 -37 -10 -31 -20
-34 -1 -3 20 12 9 19 18 17 21 -3 2 -15 -4 -27 -15 -34 -32 -52 -26 -52 18 0
47 11 65 35 56 16 -6 15 -4 -3 14 -38 38 -24 91 21 83 5 -1 5 3 2 9 -4 6 -13
9 -21 6 -20 -8 -17 11 4 24 16 11 16 11 0 6 -14 -4 -18 0 -18 20 0 16 4 23 11
18 8 -4 9 0 4 15 -8 28 3 61 21 61 8 0 14 8 14 18 0 15 2 15 11 2 9 -12 10
-12 7 -1 -6 21 -28 26 -28 7 0 -9 -4 -16 -9 -16 -5 0 -9 14 -9 32 1 32 33 75
43 58 4 -6 15 -10 26 -10 15 0 19 -7 19 -31 0 -24 -4 -30 -15 -25 -13 5 -14 2
-4 -15 13 -25 3 -72 -14 -66 -7 2 -13 9 -13 15 -3 24 -4 26 -16 14 -9 -9 -7
-16 6 -31 10 -11 23 -19 30 -18 6 1 9 -5 7 -13 -2 -8 -4 -37 -6 -65 -2 -37 -8
-53 -24 -63 -11 -8 -21 -22 -21 -30 0 -13 2 -13 13 2 10 14 20 16 38 11 l24
-8 -26 -9 c-21 -7 -26 -14 -21 -30 3 -14 1 -19 -6 -14 -17 10 -15 -9 3 -24 8
-6 23 -9 35 -5 12 4 20 2 20 -6 0 -8 4 -8 13 -2 6 5 30 9 52 8 46 -2 67 3 59
16 -5 8 0 10 39 13 6 1 16 7 20 14 6 9 13 9 27 2 29 -16 40 -12 40 15 0 16 -4
23 -14 19 -15 -6 -30 22 -19 38 4 7 1 8 -6 4 -7 -5 -17 -18 -22 -30 -7 -16 -8
-11 -4 19 12 83 13 115 4 121 -20 12 -7 19 31 17 23 -1 38 2 35 7 -3 5 -18 7
-33 4 -31 -6 -63 18 -42 31 7 4 1 12 -15 21 -15 8 -31 12 -35 9 -5 -3 -12 0
-16 6 -5 9 -10 8 -18 -2 -12 -14 -51 -39 -62 -39 -4 0 -1 7 6 15 7 8 19 15 27
15 8 0 12 4 8 9 -3 5 5 17 17 25 12 9 20 17 17 19 -2 1 -16 9 -30 16 -26 13
-26 14 -10 42 17 30 38 40 27 14 -3 -9 0 -15 9 -15 9 0 12 6 9 15 -4 8 -1 15
5 15 6 0 11 -8 11 -18 0 -13 6 -18 23 -16 12 1 26 3 30 3 5 1 6 5 2 10 -3 6 7
9 21 8 15 -1 29 4 32 12 3 10 0 11 -9 5 -8 -5 -21 -7 -31 -6 -9 2 -19 -2 -23
-8 -3 -5 -14 -10 -23 -10 -15 1 -15 2 1 14 13 10 15 16 7 21 -9 6 -9 10 1 16
12 8 12 10 1 18 -10 6 -8 10 10 15 19 5 20 8 8 16 -8 5 -11 10 -6 10 5 0 17
-7 27 -16 16 -15 19 -14 39 4 15 14 20 27 16 44 -3 12 -3 17 0 11 9 -20 24
-15 24 8 0 15 5 19 15 15 8 -3 15 -2 15 3 0 5 14 15 32 24 24 11 37 13 52 5
16 -9 18 -8 12 7 -4 12 0 18 14 22 11 3 20 9 20 14 0 5 7 6 15 3 9 -4 15 0 15
8 0 10 10 14 36 12 32 -3 36 -1 31 16 -4 17 4 26 16 18 2 -2 11 3 20 10 13 11
16 10 22 -7 8 -25 -1 -41 -21 -41 -8 0 -14 -6 -14 -14 0 -15 36 -11 46 5 8 14
24 10 24 -6 0 -8 5 -15 10 -15 6 0 10 4 10 9 0 6 -4 13 -10 16 -15 9 -12 25 5
25 8 0 15 -7 15 -15 0 -8 5 -15 11 -15 5 0 8 4 4 9 -3 5 2 17 11 26 9 9 15 17
13 18 -2 2 -13 9 -23 17 -18 14 -19 14 -8 -6 14 -26 9 -32 -23 -26 -16 3 -25
11 -25 23 0 11 0 22 -1 27 0 4 10 14 22 22 21 14 22 13 17 -2 -5 -11 0 -18 13
-21 15 -4 19 -2 15 9 -3 8 -9 21 -12 29 -3 8 -1 15 5 15 7 0 16 -10 21 -22z
m-2993 -35 c-3 -10 -5 -4 -5 12 0 17 2 24 5 18 2 -7 2 -21 0 -30z m1298 -13
c3 -5 2 -10 -2 -10 -5 0 -14 -9 -21 -21 -8 -12 -9 -18 -3 -15 14 9 21 -7 11
-24 -5 -8 -28 -15 -54 -16 -25 -1 -49 -5 -55 -8 -5 -3 -12 1 -15 10 -6 15 -8
15 -24 2 -9 -9 -23 -13 -31 -10 -9 3 -11 0 -6 -8 5 -8 2 -18 -8 -25 -13 -9
-14 -15 -3 -36 11 -22 17 -24 74 -21 51 3 63 0 69 -13 3 -10 0 -21 -8 -26 -10
-6 -10 -9 -2 -9 7 0 10 -7 7 -14 -4 -12 2 -14 28 -13 28 2 33 -1 35 -23 3 -37
-6 -72 -17 -65 -6 4 -8 11 -5 16 13 20 -9 7 -31 -18 l-24 -28 0 30 c0 24 -2
27 -11 15 -9 -13 -10 -13 -6 0 2 9 13 14 25 12 12 -2 22 2 22 7 0 6 -7 11 -16
11 -11 0 -14 5 -9 18 5 13 3 14 -5 6 -9 -9 -19 -8 -41 3 -16 8 -38 11 -50 8
-16 -6 -20 -4 -14 6 5 8 -1 6 -13 -5 -24 -21 -44 -18 -48 9 -4 24 15 48 32 41
7 -3 16 -1 19 5 4 5 -1 12 -9 15 -9 3 -27 -7 -45 -25 -17 -17 -26 -31 -21 -31
6 0 10 -5 10 -12 0 -6 -9 -3 -21 8 -14 12 -18 25 -14 41 3 13 1 23 -5 23 -5 0
-10 4 -10 9 0 6 17 11 37 13 20 2 39 9 41 17 3 10 0 11 -9 5 -22 -13 -62 -17
-54 -4 3 6 11 7 17 4 7 -4 8 -2 4 4 -4 6 -13 9 -22 5 -12 -4 -12 1 3 31 10 19
23 36 30 36 6 0 14 9 18 19 3 11 19 21 38 25 34 6 48 9 110 20 23 4 44 3 52
-4 9 -8 14 -7 19 5 6 17 22 20 31 5z m-1458 -32 c-3 -8 -6 -5 -6 6 -1 11 2 17
5 13 3 -3 4 -12 1 -19z m1475 -8 c-5 -36 -22 -51 -18 -17 2 21 13 47 20 47 1
0 1 -14 -2 -30z m-1300 -50 c2 -38 0 -66 -3 -62 -10 10 -17 132 -8 132 4 0 9
-31 11 -70z m3106 40 c-14 -22 -24 -19 -15 5 4 8 11 15 17 15 6 0 6 -7 -2 -20z
m-2168 -6 c0 -9 -8 -22 -17 -29 -15 -11 -15 -15 -4 -29 12 -14 10 -16 -10 -15
-37 1 -159 -24 -159 -33 0 -4 -7 -8 -15 -8 -8 0 -22 -11 -31 -25 -9 -14 -22
-25 -29 -25 -9 0 -12 -23 -11 -80 1 -73 -1 -80 -18 -80 -21 0 -17 -10 6 -14 7
-1 24 -8 38 -16 14 -8 29 -13 33 -12 4 1 31 5 59 7 28 3 54 7 56 10 3 3 11 0
18 -6 9 -7 19 -7 33 1 18 9 21 8 21 -9 0 -11 -8 -25 -17 -30 -17 -10 -16 -10
2 -11 15 -1 13 -4 -10 -14 -16 -7 -36 -11 -42 -8 -7 2 -13 0 -13 -5 0 -5 -9
-9 -20 -10 -11 -1 -20 2 -20 8 0 5 -5 9 -11 9 -6 0 -9 -7 -5 -15 4 -11 -2 -15
-22 -17 -76 -5 -148 14 -135 35 3 5 9 4 14 -4 4 -7 11 -10 16 -6 11 12 -16 25
-39 19 -20 -5 -20 -4 -3 22 15 22 16 29 5 39 -10 9 -12 9 -8 -3 3 -8 -2 -22
-10 -30 -14 -13 -15 -12 -9 3 3 9 2 17 -2 17 -15 0 -25 84 -12 88 8 3 9 8 1
17 -11 14 -3 48 10 40 5 -3 6 4 3 15 -3 11 0 20 6 20 5 0 8 6 5 14 -6 16 56
110 71 107 5 -1 12 6 16 16 3 10 10 18 15 19 5 0 17 4 27 9 10 4 21 5 24 1 3
-3 12 -1 18 4 7 6 39 14 71 19 92 13 104 13 104 -5z m2190 -4 c0 -5 -4 -10
-10 -10 -5 0 -10 5 -10 10 0 6 5 10 10 10 6 0 10 -4 10 -10z m-1715 -29 c-3
-5 -1 -13 5 -16 8 -5 8 -11 0 -20 -6 -8 -10 -22 -8 -31 3 -21 -21 -29 -59 -19
-21 5 -24 10 -19 33 4 15 7 33 8 40 1 6 3 10 5 8 2 -2 16 0 31 4 37 11 44 11
37 1z m1715 -40 c0 -6 -8 -9 -18 -8 -12 1 -19 10 -20 29 l-2 28 20 -20 c11
-11 20 -24 20 -29z m-1580 -1 c0 -5 -7 -7 -15 -4 -8 4 -15 8 -15 10 0 2 7 4
15 4 8 0 15 -4 15 -10z m234 -6 c5 -13 1 -15 -18 -10 -16 4 -30 0 -40 -10 -19
-19 -21 -31 -3 -16 7 6 22 10 32 8 17 -2 20 -11 21 -55 0 -53 -21 -91 -51 -91
-8 0 -15 -4 -15 -9 0 -15 29 -33 41 -25 8 5 9 3 4 -5 -4 -7 -18 -11 -31 -8
-14 2 -27 0 -30 -4 -9 -15 -52 -10 -69 8 -16 15 -16 18 -1 28 16 12 12 25 -7
25 -6 0 -7 -3 -4 -7 4 -3 -1 -12 -11 -19 -12 -10 -13 -13 -3 -14 10 0 11 -3 2
-14 -9 -11 -9 -15 0 -18 7 -2 -4 -4 -24 -4 -27 0 -39 6 -48 23 -7 13 -17 23
-22 23 -5 0 -4 -7 3 -15 7 -9 11 -18 8 -21 -7 -6 -46 59 -54 90 -4 19 -2 23
16 22 11 0 24 -7 29 -14 7 -11 9 -11 14 2 7 17 37 23 37 7 0 -4 -12 -20 -26
-35 -25 -24 -25 -26 -6 -26 11 0 23 6 26 13 5 9 7 9 12 -1 3 -6 10 -9 15 -6 6
3 2 12 -8 20 -19 15 -17 15 61 -1 14 -3 28 0 32 6 4 8 9 8 13 1 4 -7 12 -8 21
-2 10 7 11 10 3 10 -8 0 -13 14 -13 36 0 33 2 36 25 32 14 -3 25 -1 25 3 0 5
6 7 13 5 6 -1 9 -1 4 1 -4 3 -5 9 -1 14 3 5 1 9 -5 9 -5 0 -13 -4 -16 -10 -12
-19 -35 -10 -35 13 0 26 10 42 30 50 28 10 48 7 54 -9z m1091 -2 c-3 -3 -11 0
-18 7 -9 10 -8 11 6 5 10 -3 15 -9 12 -12z m275 -7 c-6 -15 -6 -26 0 -30 13
-8 13 -25 1 -25 -16 0 -23 38 -11 60 15 28 21 25 10 -5z m-3313 -37 c-3 -8 -6
-5 -6 6 -1 11 2 17 5 13 3 -3 4 -12 1 -19z m3256 5 c-4 -11 -3 -14 5 -9 17 10
15 1 -3 -14 -13 -11 -15 -8 -15 14 0 14 4 26 10 26 5 0 6 -7 3 -17z m-3064
-393 c20 -349 23 -426 13 -410 -29 44 -65 501 -42 515 13 8 13 55 1 55 -5 0
-16 -7 -25 -15 -19 -19 -26 -19 -26 0 0 8 11 17 25 21 25 6 25 8 26 118 l2
111 8 -105 c4 -58 12 -188 18 -290z m1220 368 c4 6 11 0 18 -14 10 -22 9 -24
-13 -24 -21 0 -24 5 -23 33 1 19 3 25 6 13 3 -11 8 -15 12 -8z m256 2 c-4 -6
3 -9 16 -7 12 1 24 -4 26 -10 6 -17 -27 -29 -36 -14 -6 9 -11 8 -21 -4 -10
-12 -16 -13 -26 -4 -20 16 -17 28 9 39 30 12 39 12 32 0z m1022 -6 c2 -5 -8
-10 -22 -10 -21 -2 -24 1 -14 12 13 15 31 14 36 -2z m578 -13 c-3 -5 -1 -12 5
-16 6 -4 7 -11 4 -17 -4 -6 2 -8 17 -3 l24 7 -22 -17 c-29 -20 -29 -41 -1 -48
20 -6 20 -8 6 -29 -8 -13 -25 -28 -37 -34 -13 -7 -18 -15 -13 -18 6 -3 17 1
25 9 20 19 33 20 17 0 -7 -8 -10 -21 -7 -30 4 -8 2 -17 -3 -20 -7 -4 -6 -13 0
-25 7 -14 6 -23 -6 -35 -15 -15 -18 -14 -40 6 -28 26 -31 39 -9 39 8 0 15 -4
15 -10 0 -18 18 -10 23 10 4 17 1 20 -21 18 -25 -3 -27 0 -27 32 0 24 5 35 15
35 23 1 40 14 40 33 0 12 -3 13 -12 4 -16 -16 -41 -15 -35 1 2 6 11 11 21 9
10 -2 16 4 16 18 0 11 -5 20 -11 20 -5 0 -7 5 -4 10 3 6 1 10 -4 10 -6 0 -11
4 -11 10 0 5 7 6 17 3 11 -4 14 -3 9 5 -7 11 0 32 10 32 3 0 3 -4 -1 -9z
m-368 -68 c10 -34 10 -36 -3 -19 -8 11 -14 26 -14 34 0 7 -5 10 -12 6 -7 -4
-8 -3 -4 4 12 20 21 13 33 -25z m-321 7 c0 -9 -10 -17 -23 -18 -25 -2 -26 -1
-17 21 7 20 40 18 40 -3z m167 -7 c7 -14 -30 -66 -38 -53 -4 6 0 19 9 29 9 10
13 21 9 24 -3 4 -1 7 5 7 6 0 13 -3 15 -7z m27 -8 c0 -8 5 -15 12 -15 6 0 8
-3 5 -6 -4 -4 3 -15 15 -25 11 -11 17 -19 13 -19 -5 0 -19 10 -32 22 -18 16
-23 18 -23 6 0 -8 -7 -15 -15 -15 -18 0 -18 7 0 31 8 10 12 23 9 27 -3 5 0 9
5 9 6 0 11 -7 11 -15z m-845 -25 c3 -5 -1 -10 -9 -10 -9 0 -16 5 -16 10 0 6 4
10 9 10 6 0 13 -4 16 -10z m-1918 -22 c-3 -8 -6 -5 -6 6 -1 11 2 17 5 13 3 -3
4 -12 1 -19z m1556 -2 c-4 -6 -6 -24 -4 -40 2 -18 -1 -26 -8 -22 -6 4 -11 1
-11 -6 -1 -9 -5 -7 -14 5 -12 15 -14 16 -20 2 -3 -8 -13 -15 -23 -14 -16 0
-16 1 2 9 11 5 15 9 9 9 -36 2 -18 71 18 71 17 0 18 -2 8 -15 -7 -8 -19 -15
-27 -15 -8 0 -11 -5 -7 -11 3 -6 15 -9 25 -6 11 3 19 1 19 -4 0 -5 5 -9 11 -9
8 0 8 4 -1 15 -15 18 -4 56 15 48 8 -3 12 -10 8 -17z m797 4 c0 -5 -4 -10 -10
-10 -5 0 -10 5 -10 10 0 6 5 10 10 10 6 0 10 -4 10 -10z m-116 -14 c-3 -9 1
-13 13 -13 21 2 30 -37 13 -58 -6 -7 -8 -24 -5 -38 4 -14 2 -34 -4 -45 -7 -14
-8 -23 -1 -27 15 -9 12 -22 -11 -44 -12 -11 -23 -36 -25 -58 l-5 -38 16 25 c9
14 14 17 11 8 -3 -9 0 -19 7 -21 7 -3 1 -9 -13 -15 -18 -8 -20 -11 -7 -11 22
-1 22 -17 0 -25 -15 -6 -15 -8 -3 -16 12 -8 13 -13 3 -30 -16 -24 -17 -33 -3
-25 6 3 10 1 10 -5 0 -8 -9 -10 -25 -6 -19 5 -23 3 -19 -9 8 -19 -3 -19 -21
-1 -11 11 -8 16 23 31 28 14 33 20 19 23 -10 2 -14 8 -10 15 4 8 1 7 -9 -1
-11 -9 -18 -10 -23 -2 -3 5 -2 10 3 10 5 0 14 11 20 24 9 20 7 27 -14 47 -17
16 -23 18 -19 7 5 -13 2 -15 -15 -11 -17 4 -20 11 -15 27 11 35 14 76 4 76 -5
0 -9 -9 -9 -20 0 -16 -7 -20 -34 -20 -18 0 -48 -3 -66 -7 -24 -4 -31 -3 -26 5
11 18 -5 14 -18 -4 -10 -13 -12 -13 -13 3 -1 10 -3 25 -5 33 -2 9 6 15 22 17
14 1 19 0 13 -3 -7 -3 -13 -11 -13 -17 0 -6 10 -1 23 10 21 21 122 40 111 21
-3 -4 2 -8 10 -8 8 0 20 8 25 18 6 9 11 11 11 5 0 -8 8 -5 20 7 22 22 27 35 9
24 -7 -4 -9 2 -7 17 2 15 12 26 28 30 14 4 19 7 13 8 -7 1 -12 6 -10 12 1 6
-4 14 -12 17 -8 3 -11 0 -7 -7 13 -20 -11 -11 -35 13 l-23 24 -16 -21 c-15
-18 -21 -19 -58 -10 -25 6 -44 7 -48 2 -5 -9 9 -13 33 -10 6 1 14 -3 18 -9 4
-6 -7 -9 -28 -8 -19 2 -33 7 -29 12 3 5 -2 7 -11 3 -18 -7 -24 8 -7 18 6 4 8
10 5 15 -8 13 48 7 63 -7 16 -15 42 -17 42 -3 0 6 -5 9 -11 8 -6 -2 -14 3 -16
10 -4 11 -1 12 17 2 12 -7 25 -8 29 -4 8 11 48 34 58 34 5 0 0 -5 -9 -11 -23
-13 -12 -39 17 -39 29 0 41 16 25 35 -9 10 -7 14 7 18 10 3 19 5 20 6 1 0 0
-5 -3 -13z m46 4 c0 -5 -7 -7 -15 -4 -8 4 -15 8 -15 10 0 2 7 4 15 4 8 0 15
-4 15 -10z m595 0 c-3 -5 -14 -10 -23 -9 -14 0 -13 2 3 9 27 11 27 11 20 0z
m-1535 -10 c0 -4 -11 -17 -25 -30 -14 -13 -25 -18 -25 -12 0 6 -6 9 -14 6 -7
-3 -16 2 -20 12 -5 14 -1 15 29 10 23 -5 35 -3 35 4 0 6 -5 8 -12 4 -6 -4 -8
-3 -5 3 7 11 37 13 37 3z m41 -22 c-6 -15 -16 -22 -30 -21 -14 2 -21 -3 -21
-13 0 -11 5 -14 17 -10 10 4 14 4 10 -1 -5 -4 -21 -8 -37 -9 l-29 -2 41 39
c48 44 61 49 49 17z m-109 -38 c7 0 6 -5 -2 -15 -9 -11 -16 -13 -24 -5 -5 5
-20 10 -32 10 -12 0 -24 5 -26 12 -3 7 -12 6 -30 -6 -15 -10 -25 -23 -22 -30
3 -8 -4 -16 -15 -19 -18 -4 -21 -1 -21 28 0 20 6 35 15 39 8 3 15 1 15 -5 0
-6 5 -7 10 -4 6 4 8 11 5 16 -11 17 48 9 61 -8 12 -17 13 -17 10 2 -5 31 17
37 32 10 7 -14 18 -25 24 -25z m691 15 c-12 -8 -29 -12 -38 -9 -22 9 0 24 35
24 l24 0 -21 -15z m-63 -5 c0 -5 -5 -12 -10 -15 -8 -5 -8 -11 0 -20 9 -10 7
-13 -7 -11 -10 2 -17 10 -15 20 2 9 -2 16 -8 16 -5 0 -10 -7 -10 -15 0 -8 -5
-15 -11 -15 -6 0 -8 7 -5 16 3 9 6 19 6 23 0 5 14 8 30 9 17 0 30 -3 30 -8z
m-75 -21 c-5 -13 -2 -25 6 -31 11 -8 11 -9 -1 -5 -8 2 -15 13 -14 25 1 26 -20
18 -34 -14 -7 -13 -16 -24 -22 -24 -14 0 -13 17 3 23 9 4 9 6 0 6 -7 1 -20 -8
-30 -18 -10 -10 -27 -21 -38 -23 -15 -3 -19 -10 -17 -31 1 -15 -2 -27 -8 -27
-6 0 -9 3 -7 8 3 4 -1 12 -8 19 -10 9 -14 10 -17 1 -3 -7 -7 -5 -11 5 -3 9 -3
16 1 16 20 -3 32 2 32 15 0 14 -29 30 -38 21 -3 -3 0 -5 6 -5 7 0 12 -4 12 -9
0 -6 -12 -6 -30 0 -16 6 -30 15 -30 21 0 5 5 6 10 3 6 -3 10 -1 10 4 0 17 27
13 70 -9 49 -25 54 -25 47 1 -4 15 -2 19 9 15 17 -7 19 10 2 17 -7 3 2 4 20 3
18 -2 35 0 38 5 3 5 14 9 25 9 16 0 19 -4 14 -21z m112 -9 c10 -13 8 -16 -7
-17 -12 -1 -17 4 -15 15 2 9 4 19 4 21 1 2 2 2 4 0 1 -2 8 -11 14 -19z m46
-12 c-5 -10 -33 10 -33 23 0 5 9 4 19 -3 11 -7 17 -16 14 -20z m-749 1 c5 -4
-12 -7 -37 -6 -35 2 -43 5 -35 14 10 13 55 8 72 -8z m456 11 c0 -5 -7 -7 -15
-4 -8 4 -15 8 -15 10 0 2 7 4 15 4 8 0 15 -4 15 -10z m417 4 c-3 -3 -12 -4
-19 -1 -8 3 -5 6 6 6 11 1 17 -2 13 -5z m-534 -39 c33 -29 34 -39 5 -59 -28
-20 -39 -20 -32 -1 4 9 0 15 -10 15 -10 0 -13 -6 -10 -17 4 -11 3 -14 -3 -7
-4 6 -18 14 -30 18 -23 7 -32 26 -12 26 5 0 7 5 4 10 -4 6 -12 4 -21 -5 -9 -8
-12 -19 -9 -25 3 -5 2 -10 -4 -10 -5 0 -16 -3 -24 -6 -8 -3 -22 2 -31 11 -16
16 -62 12 -51 -5 6 -9 -50 -31 -59 -23 -8 8 23 35 33 29 5 -4 11 -1 13 5 5 15
76 39 80 27 2 -5 12 -6 22 -2 14 5 15 9 4 16 -9 6 -6 7 10 3 12 -3 22 -2 22 2
0 5 17 7 38 5 28 -2 33 -1 22 7 -13 10 -13 11 0 11 8 -1 27 -12 43 -25z m-206
-11 c-3 -3 -12 -4 -19 -1 -8 3 -5 6 6 6 11 1 17 -2 13 -5z m-57 -14 c0 -5 -4
-10 -10 -10 -5 0 -10 5 -10 10 0 6 5 10 10 10 6 0 10 -4 10 -10z m-37 -6 c3
-4 -6 -20 -21 -36 -20 -22 -33 -27 -52 -23 -14 3 -20 2 -15 -2 6 -4 11 -18 13
-30 2 -16 -1 -21 -11 -17 -8 3 -17 -1 -20 -10 -3 -8 1 -17 9 -20 8 -3 14 -15
14 -27 0 -18 -2 -19 -15 -9 -12 10 -15 10 -15 -4 0 -9 7 -16 15 -16 12 0 13
-4 6 -19 -6 -10 -7 -21 -4 -25 3 -3 2 -6 -4 -6 -6 0 -15 6 -21 13 -6 7 -22 13
-35 15 -21 1 -24 -2 -20 -18 4 -16 8 -18 19 -9 8 7 18 9 22 5 4 -4 -1 -12 -11
-17 -9 -6 -17 -15 -17 -20 0 -6 4 -8 8 -5 4 3 7 -8 6 -25 -1 -16 2 -29 8 -29
13 0 38 -26 38 -39 0 -6 -8 -11 -17 -11 -15 0 -16 2 -3 10 12 8 11 10 -7 10
-15 0 -23 6 -23 16 0 13 -3 14 -15 4 -8 -6 -20 -10 -27 -7 -8 4 -5 8 10 12 23
8 26 18 12 50 -9 20 -15 7 -11 -22 3 -18 -16 -16 -23 2 -3 8 -16 15 -28 15
-19 0 -20 -2 -8 -10 13 -9 13 -10 0 -11 -8 -1 -18 -1 -22 0 -5 0 -8 -4 -8 -9
0 -5 -7 -10 -16 -10 -8 0 -12 -5 -9 -10 4 -7 11 -7 18 -2 16 12 57 22 57 14
-1 -18 -19 -34 -31 -27 -9 6 -11 4 -6 -7 4 -11 -4 -20 -26 -29 -18 -8 -36 -13
-42 -11 -5 1 -10 -9 -10 -22 0 -16 4 -22 14 -18 9 3 12 1 7 -6 -4 -7 -19 -12
-34 -11 -15 0 -22 3 -16 5 7 3 10 13 7 23 -2 10 3 25 11 34 20 19 20 27 2 27
-9 0 -13 10 -11 33 2 17 3 38 4 45 1 7 6 10 11 7 6 -4 17 -2 24 4 10 8 17 7
26 -4 16 -20 34 -19 26 1 -4 10 -2 13 7 8 9 -5 9 -4 0 7 -17 17 -16 32 1 26 8
-3 18 5 25 19 6 13 15 24 21 24 7 0 4 -7 -4 -16 -9 -8 -16 -20 -16 -25 0 -18
16 -8 34 21 9 17 21 28 26 25 5 -3 11 -1 14 4 9 14 -25 19 -56 8 -16 -5 -28
-16 -29 -25 0 -11 -2 -12 -6 -4 -2 6 -9 12 -14 12 -4 0 -6 -7 -2 -15 3 -10 0
-15 -8 -13 -8 2 -13 -4 -13 -13 1 -12 -4 -15 -19 -11 -13 3 -18 1 -13 -6 3 -6
2 -13 -3 -17 -19 -11 -28 30 -22 101 l6 71 -37 -1 c-21 -1 -38 -4 -38 -8 0 -5
-7 -8 -15 -8 -8 0 -15 6 -15 12 0 7 -10 -2 -22 -19 -25 -35 -51 -45 -42 -15 5
15 4 15 -9 -1 -9 -11 -13 -25 -11 -32 3 -7 1 -16 -5 -20 -6 -3 -11 -11 -11
-16 0 -6 5 -7 10 -4 17 11 11 -7 -16 -42 -14 -18 -20 -33 -14 -33 6 0 16 11
22 25 6 14 15 25 21 25 5 0 7 10 3 23 -4 16 1 26 15 35 18 11 19 10 17 -20 -1
-18 -11 -44 -22 -58 -15 -17 -16 -20 -3 -11 15 12 17 11 17 -12 0 -38 -11 -62
-21 -46 -4 8 -12 10 -16 5 -4 -4 0 -14 10 -21 10 -7 14 -15 10 -18 -5 -3 -8
-22 -8 -41 1 -32 -1 -35 -22 -32 -38 7 -46 17 -26 31 13 10 20 10 25 2 4 -7 8
-7 9 -2 0 6 2 20 5 33 2 12 2 22 0 22 -8 0 -66 -61 -66 -70 0 -6 -5 -10 -11
-10 -7 0 -5 9 5 24 12 19 12 26 3 30 -6 4 -2 4 11 2 12 -2 22 0 22 5 0 5 -6 9
-13 9 -19 0 -20 59 -1 87 12 20 12 22 -1 17 -10 -4 -15 0 -15 10 0 9 4 16 9
16 5 0 7 8 4 18 -2 10 5 26 16 36 12 11 21 24 21 29 0 6 -6 3 -13 -8 -13 -17
-14 -17 -20 5 -3 13 -3 28 1 34 3 6 5 19 4 29 -2 9 2 17 8 17 6 0 8 -4 5 -10
-3 -5 -1 -10 5 -10 6 0 8 -6 5 -12 -4 -7 0 -4 9 6 8 10 17 22 18 27 5 13 116
17 129 5 9 -8 10 -7 5 7 -4 13 -2 17 6 14 7 -2 12 -12 10 -22 -3 -14 2 -12 20
8 17 18 31 24 46 20 12 -3 22 -1 22 3 0 5 11 9 25 9 26 0 33 -9 15 -20 -8 -5
-8 -11 0 -20 14 -17 -3 -29 -30 -20 -11 4 -20 2 -20 -4 0 -6 7 -11 15 -11 8 0
15 -5 15 -11 0 -5 -4 -8 -9 -5 -4 3 -17 -4 -27 -15 -14 -16 -15 -19 -2 -14 9
4 19 2 23 -4 3 -6 1 -11 -6 -11 -7 0 -10 -2 -7 -5 3 -3 13 -2 22 1 13 5 15 9
5 15 -21 13 8 38 39 34 15 -2 21 -2 15 1 -20 9 -15 23 11 35 20 10 23 15 14
29 -7 10 -18 16 -25 13 -7 -3 -13 -1 -13 4 0 20 14 22 32 6 10 -9 21 -13 25
-9 4 4 2 11 -6 15 -9 6 -7 10 8 14 22 5 30 -16 11 -28 -5 -3 -10 -14 -10 -23
0 -13 5 -11 23 10 18 20 27 24 35 16 9 -9 10 -5 7 13 l-4 24 19 -22 c20 -25
50 -31 50 -10 0 8 -10 19 -22 25 -21 10 -20 11 13 11 20 1 38 -2 42 -5z m378
-65 c8 -15 4 -25 -17 -45 -15 -15 -22 -29 -16 -33 7 -4 6 -12 -1 -22 -10 -14
-14 -14 -25 -3 -7 8 -10 14 -6 14 3 0 2 6 -4 13 -7 8 -7 18 -2 27 6 9 5 17 -3
22 -20 13 -26 9 -24 -18 1 -15 -4 -29 -10 -31 -7 -3 -13 2 -13 11 0 9 6 16 13
16 8 0 8 3 2 8 -19 13 -15 50 6 55 12 3 19 0 19 -9 0 -8 6 -14 14 -14 7 0 19
-7 26 -15 7 -8 17 -15 23 -15 5 0 3 8 -5 18 -8 9 -18 24 -21 33 -8 24 30 12
44 -12z m-301 11 c0 -5 -2 -10 -4 -10 -3 0 -8 5 -11 10 -3 6 -1 10 4 10 6 0
11 -4 11 -10z m471 -4 c-8 -10 -9 -15 -1 -18 7 -2 6 -10 -3 -22 -11 -15 -18
-17 -33 -8 -10 6 -14 12 -8 12 7 0 15 11 18 25 4 14 14 25 22 25 13 0 14 -3 5
-14z m-746 -6 c8 -13 -5 -13 -25 0 -13 8 -13 10 2 10 9 0 20 -4 23 -10z m443
-25 c-3 -3 -9 2 -12 12 -6 14 -5 15 5 6 7 -7 10 -15 7 -18z m-158 11 c0 -3 -4
-8 -10 -11 -5 -3 -10 -1 -10 4 0 6 5 11 10 11 6 0 10 -2 10 -4z m2471 -33 c52
5 56 4 24 -3 -68 -15 -105 -12 -105 8 0 13 2 14 9 3 6 -10 25 -12 72 -8z m116
11 c-3 -3 -12 -4 -19 -1 -8 3 -5 6 6 6 11 1 17 -2 13 -5z m-1058 -40 c-15 -18
-22 -13 -13 10 3 9 10 13 16 10 5 -3 4 -12 -3 -20z m-1515 1 c3 -8 1 -15 -5
-15 -6 0 -7 -4 -4 -10 3 -5 2 -10 -4 -10 -5 0 -13 5 -16 10 -3 6 -1 10 5 10 7
0 10 7 6 15 -3 8 -1 15 3 15 5 0 11 -7 15 -15z m421 -12 c13 -16 21 -32 18
-37 -3 -4 -9 -3 -13 4 -6 9 -11 7 -19 -9 -12 -22 -31 -29 -31 -11 0 6 9 19 21
31 l20 20 -20 6 c-11 3 -18 9 -15 14 8 14 13 11 39 -18z m1065 12 c0 -8 -2
-15 -4 -15 -2 0 -6 7 -10 15 -3 8 -1 15 4 15 6 0 10 -7 10 -15z m-1287 -29 c9
-7 17 -19 17 -26 0 -9 -6 -8 -19 4 -18 17 -19 17 -24 -1 -3 -12 -5 -9 -6 10
-1 30 5 33 32 13z m180 -1 c-3 -9 -8 -14 -10 -11 -3 3 -2 9 2 15 9 16 15 13 8
-4z m432 -7 c10 -9 -65 -70 -82 -67 -21 4 -44 -2 -39 -10 3 -5 -8 -11 -24 -13
-20 -3 -30 0 -30 9 0 7 11 13 25 13 18 0 25 5 25 19 0 21 46 36 54 17 2 -6 5
2 5 17 1 26 4 28 32 23 17 -2 32 -6 34 -8z m-776 -62 c15 -18 15 -19 -2 -13
-10 4 -21 7 -23 7 -2 0 -3 15 -3 33 1 21 3 25 6 12 3 -11 12 -29 22 -39z m-65
19 c-4 -8 -10 -15 -15 -15 -4 0 -6 7 -3 15 4 8 10 15 15 15 4 0 6 -7 3 -15z
m448 -5 c-28 -26 -29 -45 -3 -30 17 8 20 7 18 -10 -2 -26 -37 -26 -44 0 -3 11
-12 20 -19 20 -17 0 -18 -17 -1 -23 7 -2 8 -8 3 -13 -5 -5 -11 -4 -13 4 -3 6
-8 12 -12 12 -4 0 -8 -6 -9 -12 0 -7 -3 -24 -6 -37 -3 -13 1 -29 9 -38 22 -22
18 -35 -5 -16 -22 19 -27 62 -8 81 9 9 9 12 -2 12 -11 1 -10 4 4 15 10 7 16
17 13 22 -3 4 9 9 26 9 17 1 33 6 35 13 2 6 11 11 20 11 13 0 11 -4 -6 -20z
m208 -32 c0 -5 -5 -6 -10 -3 -6 4 -17 1 -25 -5 -11 -9 -15 -9 -15 -1 0 6 5 11
10 11 6 0 10 7 10 16 0 14 3 14 15 4 8 -7 15 -17 15 -22z m540 12 c0 -5 -5
-10 -11 -10 -5 0 -7 5 -4 10 3 6 8 10 11 10 2 0 4 -4 4 -10z m-1170 -10 c0 -5
7 -7 15 -4 8 4 15 2 15 -4 0 -5 -7 -12 -15 -16 -8 -3 -15 -1 -15 4 0 6 -9 10
-19 10 -29 0 -33 15 -5 18 13 1 24 -3 24 -8z m810 0 c13 -9 13 -10 0 -9 -8 0
-24 4 -35 9 l-20 9 20 0 c11 0 27 -4 35 -9z m-1000 -24 c0 -2 -9 -6 -20 -9
-11 -3 -18 -1 -14 4 5 9 34 13 34 5z m210 -21 c5 -3 10 1 13 7 2 7 8 10 12 6
4 -4 1 -13 -6 -21 -15 -14 -39 -11 -51 7 -5 6 -8 2 -8 -10 0 -12 6 -27 14 -33
17 -14 15 -49 -4 -61 -8 -5 -11 -10 -7 -10 4 0 -3 -12 -17 -27 -14 -15 -28
-24 -32 -20 -4 4 -2 7 6 7 8 0 9 4 3 13 -16 21 -14 57 3 50 11 -4 12 -9 5 -16
-14 -14 -14 -30 0 -25 8 3 35 60 39 84 0 0 -7 1 -15 1 -10 0 -14 -6 -10 -15 4
-12 2 -12 -8 -4 -11 10 -15 42 -7 62 1 3 2 8 2 11 -1 7 55 2 68 -6z m-215 -5
c3 -5 1 -10 -4 -10 -6 0 -11 5 -11 10 0 6 2 10 4 10 3 0 8 -4 11 -10z m566
-20 c6 0 7 4 4 10 -3 6 1 7 9 4 9 -3 16 -9 17 -13 0 -3 2 -14 4 -23 2 -10 -1
-20 -6 -24 -5 -3 -9 4 -9 15 0 14 -6 21 -20 21 -13 0 -20 6 -19 18 0 10 3 12
6 5 2 -7 9 -13 14 -13z m582 3 c10 -6 -12 -33 -27 -33 -6 0 -13 11 -14 25 -2
24 8 25 41 8z m81 5 c5 -10 7 -10 12 -1 5 12 34 7 34 -6 0 -12 -63 -6 -67 7
-3 6 0 12 5 12 6 0 13 -6 16 -12z m-193 -21 c-10 -9 -11 -8 -5 6 3 10 9 15 12
12 3 -3 0 -11 -7 -18z m-21 -12 c0 -14 -42 -25 -58 -15 -15 10 -14 10 5 5 12
-3 24 -1 28 5 6 10 25 14 25 5z m486 -22 c-7 -7 -26 7 -26 19 0 6 6 6 15 -2 9
-7 13 -15 11 -17z m134 -3 c-6 -11 -13 -20 -16 -20 -2 0 0 9 6 20 6 11 13 20
16 20 2 0 0 -9 -6 -20z m-1778 -31 c-16 -6 -16 -7 1 -14 9 -4 17 -11 17 -16 0
-6 -10 -4 -22 2 -33 17 -33 17 -13 39 14 16 20 17 26 8 5 -8 2 -15 -9 -19z
m72 16 c-4 -10 -2 -13 8 -10 9 4 14 -2 15 -15 1 -15 -4 -20 -24 -20 -20 0 -24
4 -20 20 3 11 1 20 -4 20 -5 0 -9 5 -9 10 0 6 9 10 20 10 13 0 18 -5 14 -15z
m349 -5 c5 -4 -3 -5 -17 -3 -15 3 -29 10 -32 15 -7 11 36 1 49 -12z m342 10
c-3 -5 -11 -10 -16 -10 -6 0 -7 5 -4 10 3 6 11 10 16 10 6 0 7 -4 4 -10z m410
-11 c-38 -8 -90 -11 -83 -4 9 9 92 22 103 16 6 -3 -3 -9 -20 -12z m-545 5 c0
-7 -27 -34 -35 -34 -3 0 -1 9 5 20 10 18 30 28 30 14z m325 -6 c5 4 5 2 2 -5
-4 -6 -16 -9 -27 -6 -11 3 -17 9 -14 15 3 5 11 5 18 -1 7 -6 17 -7 21 -3z m40
-6 c-3 -3 -11 0 -18 7 -9 10 -8 11 6 5 10 -3 15 -9 12 -12z m40 9 c-3 -5 5
-12 17 -14 21 -4 21 -4 -1 -3 -24 1 -44 26 -21 26 6 0 9 -4 5 -9z m-895 -11
c0 -5 -5 -10 -11 -10 -5 0 -7 5 -4 10 3 6 8 10 11 10 2 0 4 -4 4 -10z m760 6
c0 -3 -4 -8 -10 -11 -5 -3 -10 -1 -10 4 0 6 5 11 10 11 6 0 10 -2 10 -4z
m-553 -38 c-3 -8 -6 -5 -6 6 -1 11 2 17 5 13 3 -3 4 -12 1 -19z m33 7 c0 -8
-2 -15 -4 -15 -2 0 -6 7 -10 15 -3 8 -1 15 4 15 6 0 10 -7 10 -15z m633 8 c-7
-2 -19 -2 -25 0 -7 3 -2 5 12 5 14 0 19 -2 13 -5z m-1049 -9 c16 -6 12 -24 -5
-24 -6 0 -8 4 -4 9 3 5 -5 12 -17 14 -14 2 -16 5 -6 6 9 0 23 -2 32 -5z m160
-9 c-4 -8 -10 -15 -16 -15 -5 0 -7 -4 -4 -8 3 -5 -1 -9 -9 -9 -20 0 -19 17 3
33 23 18 33 17 26 -1z m833 9 c-3 -3 -12 -4 -19 -1 -8 3 -5 6 6 6 11 1 17 -2
13 -5z m-1277 -19 c7 -8 15 -13 19 -11 4 3 13 1 21 -5 9 -5 10 -9 3 -9 -14 0
-13 -40 2 -40 5 0 1 -7 -10 -16 -16 -12 -17 -18 -8 -33 9 -14 9 -21 0 -31 -9
-10 -9 -14 0 -17 23 -8 -6 -53 -35 -53 -10 0 -9 4 2 16 9 8 16 20 16 25 0 17
-19 9 -31 -13 -14 -27 -30 -39 -41 -32 -5 3 2 14 14 24 13 11 18 19 11 20 -6
0 -14 -6 -16 -12 -4 -8 -6 -7 -6 3 -1 9 9 19 21 22 21 6 18 22 -5 22 -5 0 -12
6 -15 13 -2 7 2 13 9 11 31 -4 60 2 55 10 -3 5 -14 7 -25 4 -11 -3 -21 2 -24
11 -7 17 8 31 22 21 5 -3 12 -1 16 5 8 13 -14 52 -26 45 -10 -7 -13 18 -2 28
10 11 19 8 33 -8z m1168 0 c2 -2 -20 -6 -48 -10 -28 -4 -54 -4 -57 -1 -4 3 8
6 26 6 20 0 30 4 26 10 -4 7 3 8 22 4 15 -4 29 -8 31 -9z m55 8 c-7 -2 -19 -2
-25 0 -7 3 -2 5 12 5 14 0 19 -2 13 -5z m-469 -25 c-6 -9 -44 -6 -44 3 0 4 11
6 24 5 13 0 22 -4 20 -8z m48 -10 c-14 -14 -42 -20 -42 -8 0 9 18 18 40 19 11
1 11 -2 2 -11z m247 8 c-8 -8 -271 -47 -277 -41 -3 3 4 5 16 5 11 0 27 7 35
15 9 8 17 11 19 5 2 -6 34 -4 83 4 84 14 131 19 124 12z m-1074 -26 c-3 -5
-10 -10 -16 -10 -5 0 -9 5 -9 10 0 6 7 10 16 10 8 0 12 -4 9 -10z m442 -17
c-9 -9 -20 -13 -24 -9 -4 4 1 14 11 22 25 18 35 8 13 -13z m336 -10 c-7 -2
-19 -2 -25 0 -7 3 -2 5 12 5 14 0 19 -2 13 -5z m-1254 -50 c-1 -47 -1 -48 -11
-16 -6 18 -8 39 -5 47 11 29 17 17 16 -31z m1086 19 c-3 -3 -11 0 -18 7 -9 10
-8 11 6 5 10 -3 15 -9 12 -12z m-1278 -14 c-3 -8 -6 -5 -6 6 -1 11 2 17 5 13
3 -3 4 -12 1 -19z m1028 12 c-3 -5 -11 -10 -16 -10 -6 0 -7 5 -4 10 3 6 11 10
16 10 6 0 7 -4 4 -10z m-79 -22 c5 -7 0 -9 -14 -6 -17 5 -23 1 -28 -18 -6 -23
-34 -35 -34 -14 0 6 5 10 10 10 6 0 10 8 10 18 0 20 45 29 56 10z m-101 -18
c-18 -7 -19 -8 -3 -15 23 -9 13 -25 -15 -24 -12 0 -16 3 -9 6 6 2 12 9 12 14
0 6 -9 5 -21 -2 -13 -6 -19 -7 -15 -1 3 6 -2 13 -11 16 -10 3 -6 4 10 2 15 -2
30 1 33 5 3 5 13 9 22 8 14 0 13 -2 -3 -9z m145 0 c0 -5 -4 -10 -10 -10 -5 0
-10 5 -10 10 0 6 5 10 10 10 6 0 10 -4 10 -10z m-240 -10 c0 -5 -2 -10 -4 -10
-3 0 -8 5 -11 10 -3 6 -1 10 4 10 6 0 11 -4 11 -10z m194 1 c4 -5 -3 -7 -14
-4 -23 6 -26 13 -6 13 8 0 17 -4 20 -9z m-917 -113 c-3 -7 -5 -2 -5 12 0 14 2
19 5 13 2 -7 2 -19 0 -25z m230 -20 c-2 -13 -4 -5 -4 17 -1 22 1 32 4 23 2
-10 2 -28 0 -40z m4797 2 c-5 -5 -42 -18 -82 -29 -40 -10 -78 -24 -85 -29 -7
-6 -23 -9 -35 -5 -15 3 -23 0 -27 -11 -3 -9 -7 -23 -10 -32 -4 -13 -8 -14 -20
-4 -12 10 -15 9 -15 -9 0 -11 -6 -21 -12 -22 -7 -1 -32 -2 -55 -3 -42 -2 -74
-16 -37 -16 18 -1 18 -1 1 -11 -11 -6 -24 -12 -30 -13 -7 -1 -16 -4 -22 -7
-23 -13 -46 -18 -40 -9 3 6 14 10 23 11 14 0 13 2 -3 8 -11 5 -25 4 -32 -1 -7
-6 -41 -12 -75 -14 -35 -3 -65 -9 -67 -15 -2 -8 -6 -8 -10 -1 -9 15 -228 25
-297 14 -187 -32 -235 -21 -79 18 52 13 95 27 95 31 0 9 43 25 103 40 33 8 44
14 35 20 -7 5 4 6 27 4 28 -4 34 -3 20 3 -16 7 -4 12 52 22 40 7 72 16 71 19
-2 17 4 21 20 12 12 -6 32 -6 58 0 21 6 120 12 219 15 99 2 207 8 240 13 33 5
64 9 70 10 5 0 5 -3 -1 -9z m-5017 -142 c-3 -8 -6 -5 -6 6 -1 11 2 17 5 13 3
-3 4 -12 1 -19z m10 -180 c-3 -8 -6 -5 -6 6 -1 11 2 17 5 13 3 -3 4 -12 1 -19z
m290 -300 c-3 -7 -5 -2 -5 12 0 14 2 19 5 13 2 -7 2 -19 0 -25z"/>
<path d="M721 3144 c0 -11 3 -14 6 -6 3 7 2 16 -1 19 -3 4 -6 -2 -5 -13z"/>
<path d="M3728 3343 c7 -3 16 -2 19 1 4 3 -2 6 -13 5 -11 0 -14 -3 -6 -6z"/>
<path d="M3532 3307 c-8 -10 -6 -13 9 -13 20 0 25 11 10 20 -5 3 -13 0 -19 -7z"/>
<path d="M3780 3309 c0 -6 7 -9 15 -5 8 3 15 1 15 -5 0 -6 5 -7 11 -3 8 4 7 9
-2 15 -19 12 -39 11 -39 -2z"/>
<path d="M3185 3290 c3 -5 8 -10 11 -10 2 0 4 5 4 10 0 6 -5 10 -11 10 -5 0
-7 -4 -4 -10z"/>
<path d="M3135 3249 c-11 -16 -1 -19 13 -3 7 8 8 14 3 14 -5 0 -13 -5 -16 -11z"/>
<path d="M2870 3066 c0 -14 5 -28 11 -32 8 -5 10 1 5 19 -4 16 -1 27 7 30 7 3
5 6 -5 6 -13 1 -18 -7 -18 -23z"/>
<path d="M2916 3064 c-4 -9 -4 -19 -1 -22 2 -3 7 3 11 12 4 9 4 19 1 22 -2 3
-7 -3 -11 -12z"/>
<path d="M2705 3239 c-11 -16 -1 -19 13 -3 7 8 8 14 3 14 -5 0 -13 -5 -16 -11z"/>
<path d="M2560 3205 c0 -9 6 -12 15 -9 9 4 15 0 15 -9 0 -26 -12 -47 -26 -47
-17 0 -18 -17 -1 -23 8 -4 9 -8 2 -14 -6 -4 -10 -25 -10 -45 0 -21 -4 -37 -10
-37 -26 3 -46 -2 -41 -10 3 -5 16 -7 29 -4 18 5 20 3 10 -8 -7 -7 -13 -18 -13
-24 0 -5 5 -3 11 5 8 12 10 9 6 -14 -9 -53 31 -89 70 -63 16 10 28 -12 14 -26
-8 -8 -11 -8 -11 1 0 6 -7 9 -15 6 -25 -10 -17 -21 13 -19 40 3 42 4 36 19 -3
8 4 24 15 35 12 12 24 41 28 66 5 38 9 44 31 47 14 2 27 8 29 14 2 7 -6 10
-22 7 -27 -6 -32 6 -14 39 8 15 8 19 0 14 -7 -4 -11 1 -11 13 0 12 4 21 9 21
5 0 11 9 14 19 3 13 -1 21 -14 24 -15 4 -17 2 -9 -13 9 -18 8 -18 -17 -5 -15
8 -30 11 -33 7 -7 -10 -60 -14 -60 -4 0 4 5 13 11 19 7 7 2 14 -20 21 -25 9
-31 8 -31 -3z"/>
<path d="M2640 3200 c0 -5 5 -10 11 -10 5 0 7 5 4 10 -3 6 -8 10 -11 10 -2 0
-4 -4 -4 -10z"/>
<path d="M2493 3109 c0 -13 6 -27 12 -31 6 -5 2 -8 -9 -8 -14 0 -16 -3 -7 -13
6 -8 8 -17 4 -20 -3 -4 1 -7 10 -7 9 0 19 5 23 12 4 6 3 8 -3 5 -7 -5 -11 6
-11 29 0 20 -5 41 -10 46 -8 8 -11 4 -9 -13z"/>
<path d="M2750 3085 c-7 -9 -8 -15 -2 -15 5 0 12 7 16 15 3 8 4 15 2 15 -2 0
-9 -7 -16 -15z"/>
<path d="M2711 2971 c-8 -5 -9 -11 -3 -15 5 -3 12 1 16 9 6 17 6 18 -13 6z"/>
<path d="M2500 2927 c-8 -7 -16 -25 -17 -42 -1 -26 0 -28 11 -13 7 10 17 14
22 10 4 -4 3 1 -4 10 -11 14 -10 18 4 26 9 5 13 12 8 15 -5 3 -16 0 -24 -6z"/>
<path d="M2560 2870 c0 -5 5 -10 10 -10 6 0 10 5 10 10 0 6 -4 10 -10 10 -5 0
-10 -4 -10 -10z"/>
<path d="M3770 3140 c0 -5 5 -10 10 -10 6 0 10 5 10 10 0 6 -4 10 -10 10 -5 0
-10 -4 -10 -10z"/>
<path d="M2216 3142 c-2 -4 4 -8 14 -8 10 0 16 4 14 8 -3 4 -9 8 -14 8 -5 0
-11 -4 -14 -8z"/>
<path d="M2168 3083 c-19 -5 -25 -33 -7 -33 5 0 7 5 4 10 -3 6 1 10 9 10 9 0
16 5 16 10 0 6 -1 9 -2 9 -2 -1 -11 -3 -20 -6z"/>
<path d="M3364 3032 c3 -6 -2 -13 -11 -15 -16 -4 -16 -5 -1 -6 21 -1 32 15 17
25 -7 4 -9 3 -5 -4z"/>
<path d="M3426 3026 c21 -15 30 -14 19 3 -3 6 -14 11 -23 11 -13 0 -13 -2 4
-14z"/>
<path d="M3245 2976 c-21 -20 -24 -26 -9 -18 12 6 23 10 25 8 8 -7 27 21 21
30 -4 5 -20 -4 -37 -20z"/>
<path d="M3380 2998 c0 -14 15 -16 27 -3 10 11 9 13 -7 12 -11 -1 -20 -5 -20
-9z"/>
<path d="M3300 2969 c0 -5 -4 -7 -10 -4 -5 3 -10 2 -10 -3 0 -5 -19 -14 -42
-19 -36 -8 -40 -11 -24 -18 13 -6 21 -5 24 3 8 25 24 11 17 -15 -5 -23 -4 -25
9 -14 9 7 23 10 33 7 16 -6 15 -5 -1 13 -13 14 -14 21 -5 27 8 4 10 3 5 -4 -4
-7 -2 -12 4 -12 7 0 10 6 7 14 -3 7 0 19 6 25 8 8 8 11 -1 11 -7 0 -12 -5 -12
-11z"/>
<path d="M3331 2963 c-12 -13 -11 -14 10 -8 l24 7 -22 -23 -22 -24 30 -1 c17
-1 25 2 19 6 -7 4 -9 16 -6 28 8 25 -14 35 -33 15z"/>
<path d="M3140 2862 c0 -6 -8 -13 -17 -15 -16 -4 -16 -5 -1 -6 18 -1 34 16 24
26 -3 4 -6 1 -6 -5z"/>
<path d="M2990 2780 c0 -13 18 -22 24 -11 3 5 -1 11 -9 15 -8 3 -15 1 -15 -4z"/>
<path d="M3060 2780 c0 -5 5 -10 10 -10 6 0 10 5 10 10 0 6 -4 10 -10 10 -5 0
-10 -4 -10 -10z"/>
<path d="M2863 2763 c-13 -2 -23 -9 -23 -14 0 -14 30 -11 46 6 9 8 12 14 7 14
-4 -1 -18 -4 -30 -6z"/>
<path d="M3090 2760 c0 -5 7 -7 15 -4 8 4 15 8 15 10 0 2 -7 4 -15 4 -8 0 -15
-4 -15 -10z"/>
<path d="M3138 2759 c-27 -15 -22 -39 6 -39 31 0 43 18 25 35 -10 10 -19 11
-31 4z m32 -19 c0 -5 -9 -10 -21 -10 -11 0 -17 5 -14 10 3 6 13 10 21 10 8 0
14 -4 14 -10z"/>
<path d="M3045 2750 c-3 -5 -1 -10 4 -10 6 0 11 5 11 10 0 6 -2 10 -4 10 -3 0
-8 -4 -11 -10z"/>
<path d="M3221 2733 c-7 -8 -11 -16 -8 -19 2 -2 10 2 17 11 17 20 9 27 -9 8z"/>
<path d="M3185 2711 c-3 -5 -1 -12 5 -16 5 -3 10 1 10 9 0 18 -6 21 -15 7z"/>
<path d="M3230 2699 c0 -5 5 -7 10 -4 6 3 10 8 10 11 0 2 -4 4 -10 4 -5 0 -10
-5 -10 -11z"/>
<path d="M3220 2651 c0 -5 7 -12 16 -15 14 -5 15 -4 4 9 -14 17 -20 19 -20 6z"/>
<path d="M3165 2600 c-3 -5 -1 -10 4 -10 6 0 11 5 11 10 0 6 -2 10 -4 10 -3 0
-8 -4 -11 -10z"/>
<path d="M3141 2571 c-9 -6 -7 -10 8 -14 12 -3 21 -1 21 3 0 14 -15 19 -29 11z"/>
<path d="M2820 2511 c0 -5 7 -11 14 -14 10 -4 13 -1 9 9 -6 15 -23 19 -23 5z"/>
<path d="M3605 2471 c-3 -5 -1 -12 5 -16 5 -3 10 1 10 9 0 18 -6 21 -15 7z"/>
<path d="M3220 2461 c-8 -6 -17 -8 -21 -5 -4 2 -9 -3 -13 -11 -8 -21 8 -26 43
-14 17 6 38 8 46 5 9 -3 15 0 15 8 0 23 -43 33 -70 17z"/>
<path d="M3560 2430 c0 -5 5 -10 11 -10 5 0 7 5 4 10 -3 6 -8 10 -11 10 -2 0
-4 -4 -4 -10z"/>
<path d="M2794 2399 c0 -10 4 -19 8 -19 4 0 8 6 8 14 0 8 -4 17 -8 20 -4 2 -8
-4 -8 -15z"/>
<path d="M3568 2403 c7 -3 16 -2 19 1 4 3 -2 6 -13 5 -11 0 -14 -3 -6 -6z"/>
<path d="M2820 2379 c0 -5 5 -7 10 -4 6 3 10 8 10 11 0 2 -4 4 -10 4 -5 0 -10
-5 -10 -11z"/>
<path d="M3135 2370 c10 -11 20 -18 23 -16 5 6 -23 36 -34 36 -4 0 1 -9 11
-20z"/>
<path d="M3040 2360 c-13 -8 -12 -10 3 -10 9 0 17 5 17 10 0 12 -1 12 -20 0z"/>
<path d="M2955 2350 c3 -5 8 -10 11 -10 2 0 4 5 4 10 0 6 -5 10 -11 10 -5 0
-7 -4 -4 -10z"/>
<path d="M3100 2340 c0 -5 5 -10 11 -10 5 0 7 5 4 10 -3 6 -8 10 -11 10 -2 0
-4 -4 -4 -10z"/>
<path d="M1730 3103 c8 -3 23 -10 33 -15 12 -6 17 -5 17 4 0 8 -14 14 -33 15
-17 0 -25 -1 -17 -4z"/>
<path d="M1710 3075 c-10 -12 -10 -15 3 -15 19 0 31 16 18 24 -5 3 -14 -1 -21
-9z"/>
<path d="M1650 3041 c0 -6 4 -13 10 -16 6 -3 7 1 4 9 -7 18 -14 21 -14 7z"/>
<path d="M1685 3030 c3 -5 8 -10 11 -10 2 0 4 5 4 10 0 6 -5 10 -11 10 -5 0
-7 -4 -4 -10z"/>
<path d="M1809 2943 c-1 -5 -1 -11 0 -15 0 -5 -4 -8 -10 -8 -5 0 -8 -4 -5 -9
4 -5 0 -11 -6 -14 -7 -2 -9 -8 -5 -13 4 -5 12 -2 16 5 6 9 11 10 15 2 4 -6 13
-11 19 -11 7 0 3 8 -8 16 -14 11 -16 18 -7 21 14 6 16 33 2 33 -5 0 -11 -3
-11 -7z"/>
<path d="M1635 2929 c-9 -14 -2 -20 14 -10 8 6 9 11 3 15 -6 3 -14 1 -17 -5z"/>
<path d="M1745 2930 c3 -5 1 -10 -6 -10 -7 0 -10 -3 -6 -6 3 -3 15 -3 28 1 17
6 19 9 8 16 -19 12 -32 11 -24 -1z"/>
<path d="M1695 2890 c4 -6 11 -8 16 -5 14 9 11 15 -7 15 -8 0 -12 -5 -9 -10z"/>
<path d="M1895 2870 c3 -5 8 -10 11 -10 2 0 4 5 4 10 0 6 -5 10 -11 10 -5 0
-7 -4 -4 -10z"/>
<path d="M1454 3058 c-4 -7 -3 -8 5 -4 6 4 18 2 26 -4 9 -7 15 -8 15 -2 0 5
-7 13 -16 16 -21 8 -22 8 -30 -6z"/>
<path d="M1377 3033 c-14 -14 -6 -18 32 -18 22 0 37 3 34 8 -3 5 -12 6 -20 3
-9 -4 -21 -2 -28 4 -6 5 -15 7 -18 3z"/>
<path d="M1310 3000 c-8 -5 -10 -10 -5 -10 6 0 17 5 25 10 8 5 11 10 5 10 -5
0 -17 -5 -25 -10z"/>
<path d="M1270 2885 c7 -8 17 -12 22 -9 6 4 5 10 -3 15 -22 14 -33 10 -19 -6z"/>
<path d="M1257 2809 c3 -10 0 -19 -6 -19 -6 0 -11 -5 -11 -10 0 -6 7 -6 18 1
21 13 25 36 6 43 -7 3 -10 -2 -7 -15z"/>
<path d="M1283 2715 c0 -8 7 -15 15 -15 12 0 12 3 2 15 -7 8 -13 15 -15 15 -1
0 -2 -7 -2 -15z"/>
<path d="M1405 2703 c2 -10 4 -21 4 -25 1 -5 9 -8 19 -7 10 0 12 3 5 6 -7 2
-13 13 -13 24 0 10 -4 19 -9 19 -5 0 -8 -8 -6 -17z"/>
<path d="M1491 2684 c0 -11 3 -14 6 -6 3 7 2 16 -1 19 -3 4 -6 -2 -5 -13z"/>
<path d="M1351 2656 c-9 -10 -8 -15 4 -20 10 -4 15 1 15 14 0 24 -4 25 -19 6z"/>
<path d="M2000 3010 c0 -5 5 -10 11 -10 5 0 7 5 4 10 -3 6 -8 10 -11 10 -2 0
-4 -4 -4 -10z"/>
<path d="M2360 2890 c0 -5 5 -10 11 -10 5 0 7 5 4 10 -3 6 -8 10 -11 10 -2 0
-4 -4 -4 -10z"/>
<path d="M2295 2820 c-4 -11 -11 -18 -16 -15 -5 4 -9 1 -9 -4 0 -16 16 -13 34
5 18 17 21 34 7 34 -5 0 -13 -9 -16 -20z"/>
<path d="M2206 2795 c-3 -8 -1 -15 4 -15 6 0 10 7 10 15 0 8 -2 15 -4 15 -2 0
-6 -7 -10 -15z"/>
<path d="M3705 2730 c-8 -13 8 -18 29 -10 19 6 19 7 -2 12 -12 4 -24 2 -27 -2z"/>
<path d="M2734 2758 c-12 -19 -15 -48 -5 -48 10 0 25 50 17 57 -2 2 -8 -2 -12
-9z"/>
<path d="M2725 2660 c3 -5 8 -10 11 -10 2 0 4 5 4 10 0 6 -5 10 -11 10 -5 0
-7 -4 -4 -10z"/>
<path d="M2700 2609 c0 -5 5 -7 10 -4 6 3 10 8 10 11 0 2 -4 4 -10 4 -5 0 -10
-5 -10 -11z"/>
<path d="M2544 2574 c9 -6 26 -10 36 -7 33 9 22 22 -16 21 -32 -1 -34 -3 -20
-14z"/>
<path d="M2642 2553 c-6 -19 -6 -35 -1 -39 5 -3 10 1 11 8 0 7 2 18 3 23 2 6
3 14 4 18 0 4 10 3 20 -2 14 -8 20 -7 25 4 3 8 0 17 -6 21 -7 4 -8 3 -4 -4 4
-7 1 -12 -9 -12 -9 0 -14 4 -11 8 3 5 -1 9 -8 9 -8 0 -18 -15 -24 -34z"/>
<path d="M2660 2521 c0 -5 5 -13 10 -16 6 -3 10 -2 10 4 0 5 -4 13 -10 16 -5
3 -10 2 -10 -4z"/>
<path d="M2047 2623 c7 -17 20 -17 26 1 4 10 0 14 -12 13 -11 -1 -17 -7 -14
-14z"/>
<path d="M1637 2573 c-3 -5 1 -14 9 -21 12 -11 14 -9 14 8 0 20 -14 27 -23 13z"/>
<path d="M1280 2530 c-11 -7 -12 -12 -4 -20 8 -8 13 -6 17 9 3 12 4 21 4 21
-1 0 -9 -5 -17 -10z"/>
<path d="M1594 2503 c2 -27 46 -49 46 -23 0 5 -7 7 -15 3 -9 -3 -15 -2 -14 3
3 19 -1 34 -10 34 -5 0 -8 -8 -7 -17z"/>
<path d="M1430 2499 c0 -5 5 -7 10 -4 6 3 10 8 10 11 0 2 -4 4 -10 4 -5 0 -10
-5 -10 -11z"/>
<path d="M1545 2490 c-33 -22 -29 -26 10 -8 14 6 25 15 25 20 0 11 -1 11 -35
-12z"/>
<path d="M1630 2441 c0 -10 19 -25 25 -20 1 2 -3 10 -11 17 -8 7 -14 8 -14 3z"/>
<path d="M1555 2370 c-3 -5 -1 -10 4 -10 6 0 11 5 11 10 0 6 -2 10 -4 10 -3 0
-8 -4 -11 -10z"/>
<path d="M1440 2326 c0 -2 7 -6 15 -10 8 -3 15 -1 15 4 0 6 -7 10 -15 10 -8 0
-15 -2 -15 -4z"/>
<path d="M1415 2310 c3 -5 11 -10 16 -10 6 0 7 5 4 10 -3 6 -11 10 -16 10 -6
0 -7 -4 -4 -10z"/>
<path d="M1454 2271 c4 -6 2 -19 -5 -27 -10 -12 -9 -13 5 -8 19 7 21 30 4 40
-7 4 -8 3 -4 -5z"/>
<path d="M1815 2320 c-3 -5 -1 -10 4 -10 6 0 11 5 11 10 0 6 -2 10 -4 10 -3 0
-8 -4 -11 -10z"/>
<path d="M1190 2050 c0 -5 5 -10 11 -10 5 0 7 5 4 10 -3 6 -8 10 -11 10 -2 0
-4 -4 -4 -10z"/>
</g>
</svg>
