<?xml version="1.0" standalone="no"?>
<!DOCTYPE svg PUBLIC "-//W3C//DTD SVG 20010904//EN"
 "http://www.w3.org/TR/2001/REC-SVG-20010904/DTD/svg10.dtd">
<svg version="1.0" xmlns="http://www.w3.org/2000/svg"
 width="720.000000pt" height="480.000000pt" viewBox="0 0 720.000000 480.000000"
 preserveAspectRatio="xMidYMid meet">

<g transform="translate(0.000000,480.000000) scale(0.100000,-0.100000)"
fill="#000000" stroke="none">
<path d="M3762 4169 c-35 -4 -74 -14 -85 -22 -12 -8 -33 -17 -47 -20 -53 -13
-218 -29 -288 -27 -40 0 -77 -2 -83 -6 -7 -4 -48 -6 -93 -5 -44 1 -112 -3
-151 -8 -38 -6 -90 -13 -115 -16 -25 -3 -74 -10 -110 -15 -36 -6 -86 -10 -111
-10 -25 1 -59 -5 -75 -11 -16 -7 -31 -13 -34 -14 -3 -1 -18 -7 -33 -13 -36
-15 -187 -42 -234 -42 -26 0 -34 -4 -31 -16 2 -12 20 -17 78 -21 98 -6 163 3
156 23 -3 8 1 14 9 14 8 0 15 5 15 11 0 8 4 8 14 0 8 -7 36 -11 63 -9 43 3 48
6 51 29 2 21 8 25 37 26 19 1 38 -3 41 -8 3 -5 1 -9 -4 -9 -5 0 -9 -6 -9 -13
0 -9 29 -12 119 -11 65 1 118 -1 118 -5 0 -4 -69 -18 -152 -31 -84 -13 -164
-27 -178 -31 -28 -9 105 -2 225 12 44 5 89 9 100 9 32 -1 -2 -16 -53 -25 -24
-4 -42 -9 -39 -11 4 -4 443 38 602 58 55 7 130 12 168 13 37 0 67 2 67 5 0 3
37 6 83 7 45 1 78 0 72 -2 -14 -6 -329 -47 -400 -52 -33 -2 -76 -9 -95 -15
-19 -6 -61 -10 -93 -9 -41 1 -57 -1 -52 -9 5 -8 -4 -9 -29 -5 -27 5 -40 3 -53
-10 -11 -11 -18 -14 -21 -6 -2 6 -18 11 -35 10 -27 0 -29 -2 -12 -9 18 -8 17
-9 -7 -9 -14 -1 -34 -4 -44 -8 -13 -5 -15 -3 -9 8 7 11 6 12 -6 3 -13 -11 -86
-29 -101 -26 -5 1 -8 -2 -8 -6 0 -5 -14 -7 -30 -4 -17 2 -36 -1 -44 -7 -7 -6
-21 -9 -30 -5 -12 5 -15 2 -9 -12 5 -14 3 -16 -13 -10 -40 17 -57 19 -50 8 5
-8 -4 -12 -28 -12 -19 0 -37 6 -39 13 -3 6 -6 2 -6 -10 -1 -24 -15 -31 -26
-13 -4 6 -11 7 -17 4 -7 -4 -5 -10 6 -16 9 -5 16 -14 16 -19 0 -6 -7 -4 -15 4
-21 22 -141 6 -128 -17 3 -6 0 -6 -8 2 -19 17 -32 15 -25 -5 5 -16 5 -16 -7
-2 -11 15 -14 15 -27 0 -14 -14 -15 -14 -18 2 -4 17 -22 24 -22 8 0 -5 -19 -9
-42 -9 -24 0 -52 -1 -63 -2 -11 -1 -29 0 -40 3 -11 2 -24 -1 -28 -7 -6 -8 -10
-7 -14 2 -4 10 -8 10 -19 1 -11 -9 -14 -8 -14 2 0 9 -3 10 -8 4 -8 -11 -52
-15 -52 -5 0 9 -51 10 -64 2 -5 -2 -29 -5 -55 -6 -32 -1 -45 3 -43 12 1 6 -8
12 -19 12 -18 0 -19 -2 -9 -15 10 -12 9 -15 -8 -15 -11 0 -34 -3 -51 -6 -21
-5 -31 -3 -31 6 0 7 7 10 15 7 8 -4 17 -2 20 3 4 6 3 10 -2 10 -7 0 -443 -51
-558 -65 -59 -7 -248 -24 -340 -30 -72 -5 -100 -11 -185 -35 -35 -9 -52 -46
-46 -97 7 -54 -9 -57 -18 -3 -4 25 -1 52 7 73 8 17 13 36 13 42 -1 11 48 19
199 35 55 5 141 14 190 20 50 5 117 12 150 15 55 4 557 69 615 78 16 3 11 5
-15 6 -29 1 -36 4 -25 10 8 6 18 7 22 5 4 -3 8 -1 8 4 0 4 48 14 108 21 59 7
139 19 177 27 l70 13 -95 -5 c-136 -8 -536 -46 -625 -59 -29 -5 -36 -4 -25 4
8 5 33 13 55 17 22 3 43 12 47 18 6 8 8 7 8 -2 0 -10 5 -10 21 -1 22 11 67 18
154 24 28 1 61 4 75 5 24 2 24 3 -5 10 -28 7 -29 8 -5 10 77 5 179 20 210 29
31 9 27 10 -30 6 -117 -7 -246 -12 -205 -8 22 2 44 8 50 12 5 5 39 9 74 10 82
3 110 16 54 25 -22 4 -90 0 -154 -8 -111 -16 -134 -18 -304 -30 -88 -6 -147
-21 -185 -47 -26 -17 -206 -49 -279 -49 -23 0 -41 -5 -41 -11 0 -5 -5 -7 -10
-4 -6 4 -8 10 -5 15 9 15 -106 21 -217 11 -62 -6 -144 -13 -183 -16 -118 -8
-146 -15 -190 -45 -65 -44 -77 -86 -70 -229 4 -91 10 -122 24 -142 23 -31 38
-104 46 -224 3 -49 13 -142 21 -205 17 -129 12 -265 -13 -347 -13 -44 -14 -76
-5 -220 8 -127 14 -170 26 -178 8 -7 24 -59 38 -126 20 -101 23 -143 23 -369
0 -231 -2 -258 -19 -286 -16 -28 -17 -41 -9 -155 13 -182 33 -208 219 -285 98
-40 96 -40 270 1 56 14 123 27 148 30 53 5 86 20 86 39 0 17 45 25 188 33 74
4 112 2 112 -4 0 -6 46 -12 113 -15 118 -6 194 -27 317 -88 30 -15 91 -35 136
-43 62 -12 120 -35 254 -101 96 -47 195 -96 220 -111 25 -14 58 -25 74 -25 42
0 197 -69 226 -101 27 -29 88 -64 97 -55 6 5 64 -21 73 -33 3 -4 21 -17 41
-29 19 -12 41 -32 48 -45 33 -61 186 -92 298 -60 49 13 113 61 113 84 0 5 9 9
20 9 10 0 28 10 40 22 20 22 20 22 75 4 40 -12 72 -16 113 -11 85 9 153 26
192 46 19 11 40 19 45 19 6 0 19 15 27 34 20 42 54 50 132 32 64 -15 237 -7
293 14 18 6 42 27 53 45 17 27 31 36 73 45 38 9 63 9 90 2 44 -12 201 9 251
33 16 8 35 15 42 15 7 0 19 6 27 14 8 9 74 22 173 34 88 11 178 27 199 35 22
8 71 26 108 40 38 14 74 33 81 42 10 14 16 15 34 6 16 -9 50 -9 130 -2 139 13
163 21 187 59 26 41 83 59 135 42 77 -25 300 31 313 79 6 23 76 38 105 22 28
-15 179 -12 238 5 41 12 53 21 66 48 12 24 25 35 48 39 17 4 44 20 60 35 l28
28 -4 424 c-3 232 -7 426 -9 430 -3 5 -40 21 -82 36 -43 16 -89 34 -102 41
-14 6 -28 10 -33 7 -4 -3 -8 1 -8 9 0 8 -19 35 -42 60 -33 35 -57 49 -103 63
-107 32 -235 23 -345 -22 l-35 -15 30 24 30 25 -40 -4 c-74 -8 -190 -45 -283
-90 -51 -25 -90 -49 -87 -53 2 -5 20 -12 39 -15 48 -9 111 -73 133 -135 12
-34 24 -51 38 -54 14 -3 11 -5 -10 -6 -16 -2 -46 -9 -65 -17 l-35 -14 40 4
c22 3 54 7 70 11 24 5 27 4 15 -5 -12 -8 2 -10 59 -8 49 2 76 -1 78 -8 2 -7
-2 -11 -9 -11 -48 6 -365 -96 -390 -124 -9 -10 -23 -19 -32 -19 -9 0 -16 -7
-16 -15 0 -8 -11 -17 -25 -21 -14 -3 -25 -11 -25 -16 0 -6 -7 -7 -15 -4 -9 3
-18 -1 -21 -9 -4 -8 -11 -15 -17 -15 -6 0 -19 -8 -29 -17 -16 -14 -21 -15 -28
-3 -7 11 -11 10 -25 -3 -15 -15 -40 -22 -71 -18 -14 2 -31 -18 -36 -44 -3 -14
-7 -9 -13 18 -10 51 -39 48 -43 -6 -3 -31 -7 -37 -27 -37 -13 0 -25 5 -27 11
-2 5 -11 7 -21 3 -14 -5 -15 -9 -6 -20 9 -11 8 -14 -4 -14 -11 0 -17 15 -22
51 l-7 52 -54 -6 c-67 -7 -74 -11 -74 -48 0 -28 -31 -68 -53 -69 -5 0 -15 -7
-23 -15 -20 -19 -34 -19 -34 0 0 20 -19 19 -26 0 -5 -12 -10 -13 -20 -4 -9 7
-14 8 -14 1 0 -5 -11 -13 -25 -16 -14 -4 -25 -11 -25 -17 0 -6 -4 -7 -10 -4
-5 3 -10 1 -10 -4 0 -6 -9 -11 -20 -11 -11 0 -29 -9 -40 -20 -19 -19 -20 -19
-20 -1 0 14 -6 17 -26 13 -14 -2 -29 0 -33 5 -11 17 -81 26 -86 11 -7 -17
-101 -16 -133 1 -12 6 -22 8 -22 4 -1 -4 -7 3 -15 17 -9 16 -14 19 -15 10 0
-11 -11 -16 -34 -17 -28 0 -33 2 -29 18 3 11 0 19 -6 19 -7 0 -10 -4 -6 -9 3
-5 1 -12 -5 -16 -5 -3 -10 -1 -10 6 0 11 -12 10 -151 -5 -14 -2 -31 -6 -37
-10 -6 -3 -14 0 -19 7 -13 22 -43 29 -49 12 -4 -8 -13 -15 -21 -15 -8 0 -11 5
-7 11 9 15 -68 6 -230 -27 -128 -26 -136 -29 -136 -48 0 -8 -62 -25 -182 -49
-211 -42 -289 -51 -338 -38 l-35 9 31 1 c31 1 59 31 29 31 -8 0 -15 -4 -15
-10 0 -19 -16 -10 -17 10 -2 17 5 20 40 21 23 1 53 5 67 9 20 6 14 9 -30 11
l-55 2 65 7 65 7 -56 1 c-31 1 -59 5 -62 9 -6 5 36 70 54 83 4 3 11 21 17 41
9 33 7 38 -16 55 -41 30 -82 72 -82 84 0 11 -57 89 -75 102 -6 5 -5 8 3 8 19
0 -11 53 -61 108 l-42 46 42 -32 c23 -18 58 -55 78 -82 36 -49 142 -150 157
-150 4 0 -4 16 -17 36 -34 51 -31 67 5 24 22 -26 30 -30 30 -17 0 14 9 17 45
17 46 0 54 9 46 60 -1 8 -3 24 -5 35 -4 37 -30 95 -43 95 -7 0 -13 5 -13 11 0
6 7 8 16 5 12 -5 15 -2 9 11 -4 10 -15 43 -25 73 -11 30 -26 72 -35 93 -18 43
8 43 -249 1 -82 -14 -151 -22 -154 -19 -3 3 4 5 16 5 12 0 22 4 22 8 0 4 41
16 91 26 49 10 88 20 85 23 -7 8 -383 -46 -436 -62 -8 -2 -44 -9 -80 -14 -60
-9 -245 -41 -350 -60 -179 -33 -253 -42 -263 -32 -8 8 -5 11 10 11 12 0 30 12
41 27 14 19 21 23 27 13 5 -9 4 -11 -3 -6 -7 4 -12 1 -12 -9 0 -12 8 -14 43
-9 23 4 44 10 47 13 3 3 29 7 58 9 30 1 66 10 80 20 14 9 23 11 19 5 -5 -9 -2
-13 9 -13 11 0 15 6 11 20 -3 11 -1 18 4 14 5 -3 9 0 9 5 0 6 8 11 18 11 13 0
14 -2 3 -9 -10 -7 -6 -10 15 -15 45 -9 94 -4 94 9 0 12 -28 14 -47 2 -6 -4
-13 -1 -16 7 -7 17 52 31 85 20 13 -4 18 -2 14 4 -4 7 8 10 34 8 21 -2 37 1
34 5 -3 5 -1 9 4 9 6 0 12 -7 16 -15 3 -8 0 -15 -6 -15 -6 0 -9 -3 -5 -6 3 -3
30 -1 59 7 29 7 71 13 93 15 22 1 62 7 89 14 41 10 46 14 32 22 -12 7 -21 7
-29 -1 -19 -19 -34 -12 -32 17 1 15 3 46 3 70 1 26 6 41 12 37 6 -4 7 1 3 11
-5 13 -3 16 10 11 16 -6 16 -4 2 17 -28 42 -13 84 28 77 5 -1 5 3 2 9 -4 6
-13 9 -21 6 -20 -8 -17 11 4 24 16 11 16 11 0 6 -14 -4 -18 0 -18 20 0 14 3
23 8 21 4 -3 8 20 9 51 1 32 3 66 3 77 1 10 6 25 12 32 7 9 7 13 -1 13 -15 0
-2 62 17 78 9 6 11 12 6 12 -6 0 -11 6 -11 13 0 6 -2 17 -3 22 -1 6 -2 21 -1
35 1 19 4 21 13 12 7 -7 17 -12 22 -12 6 0 1 6 -10 14 -17 13 -19 21 -13 83 5
59 3 71 -14 91 -24 26 -37 28 -37 7 0 -8 -8 -15 -17 -15 -13 0 -15 -3 -5 -8
17 -11 13 -102 -5 -102 -7 0 -13 -4 -13 -10 0 -5 3 -10 8 -10 4 0 7 -13 7 -30
0 -16 -3 -30 -7 -30 -4 0 -5 -7 -2 -15 4 -8 1 -15 -5 -15 -6 0 -11 -6 -11 -14
0 -15 -27 -25 -47 -19 -10 4 -10 10 -2 25 6 11 8 22 5 26 -3 3 -6 0 -6 -7 0
-7 -5 -9 -12 -5 -7 5 -8 3 -3 -6 4 -7 2 -15 -4 -20 -10 -5 -9 -11 2 -22 19
-18 6 -43 -18 -35 -9 4 -14 3 -10 -3 4 -6 -8 -11 -27 -12 -18 -1 -49 -3 -68
-4 -43 -3 -70 4 -70 18 0 6 9 8 20 5 13 -3 18 -1 13 6 -4 7 0 8 11 4 10 -4 15
-3 11 3 -8 13 -56 4 -68 -12 -6 -9 -7 -8 -3 5 3 9 2 17 -3 17 -14 0 -8 65 8
78 14 12 14 13 -2 8 -11 -3 -16 -2 -12 4 3 6 14 10 23 10 14 0 15 2 2 9 -8 6
-17 8 -21 5 -5 -2 -6 6 -3 18 2 13 7 49 9 80 8 83 40 149 66 132 7 -4 10 -3 6
3 -7 12 61 40 108 45 l30 3 -33 18 c-48 26 -32 33 17 8 22 -12 47 -21 56 -21
9 0 26 -9 38 -21 29 -27 127 -83 133 -76 3 3 -3 8 -14 11 -14 5 -18 13 -14 31
2 14 9 25 16 25 6 0 5 4 -3 9 -12 8 -12 12 -2 25 18 22 53 20 74 -4 18 -22 42
-26 52 -10 4 6 12 7 18 3 7 -4 6 1 -2 10 -18 23 -15 25 44 31 28 3 70 9 94 12
30 5 42 4 38 -4 -9 -14 35 -2 46 12 5 8 10 6 17 -4 9 -13 10 -13 11 0 0 9 4 7
11 -7 6 -13 15 -23 20 -23 4 0 3 9 -4 20 -16 25 -10 29 48 34 27 3 61 7 76 11
20 5 27 3 31 -12 4 -17 5 -17 6 1 1 14 7 17 31 14 17 -3 30 -1 30 3 0 4 7 10
16 13 12 5 14 1 9 -17 l-6 -22 18 21 c10 12 35 24 56 27 42 6 45 3 19 -21 -10
-10 -12 -13 -4 -8 9 7 17 5 24 -5 8 -11 9 -11 5 3 -8 25 17 40 75 45 29 2 64
6 76 8 42 7 53 -14 30 -59 -11 -21 -15 -35 -10 -32 6 4 9 -13 7 -42 -2 -26 -4
-55 -4 -66 -1 -11 -6 -16 -15 -13 -8 3 -17 -1 -20 -10 -4 -11 -2 -14 9 -9 11
4 15 -1 15 -19 0 -14 -7 -25 -17 -28 -16 -4 -16 -5 1 -6 15 -1 17 -6 12 -32
-3 -17 -6 -37 -6 -43 0 -8 -2 -8 -8 0 -5 9 -11 8 -20 -2 -11 -12 -9 -14 9 -14
19 0 21 -4 14 -37 -4 -21 -9 -51 -11 -67 -2 -16 -13 -40 -25 -53 -24 -25 -20
-33 4 -8 13 13 14 9 11 -28 -4 -43 -10 -82 -13 -82 -1 0 -3 -33 -5 -73 l-4
-73 57 -41 c31 -23 67 -54 80 -70 23 -28 26 -29 80 -23 31 3 107 15 170 26 62
10 124 19 136 19 20 0 23 7 33 78 5 42 13 86 18 96 4 11 4 17 -2 14 -5 -4 -8
24 -7 65 1 71 36 235 87 406 17 59 22 90 15 102 -12 24 -11 38 2 19 9 -13 10
-13 7 0 -3 8 -18 22 -34 32 -16 9 -36 22 -45 27 -12 8 -21 5 -34 -9 -23 -25
-56 -25 -85 -2 -19 15 -26 37 -37 118 -18 126 -17 206 3 217 17 9 18 97 5 283
-10 136 -24 174 -74 204 -28 17 -49 20 -172 19 -77 -1 -169 -5 -203 -10z m20
-91 c-7 -7 -12 -8 -12 -2 0 6 3 14 7 17 3 4 9 5 12 2 2 -3 -1 -11 -7 -17z
m-674 -15 c-10 -2 -26 -2 -35 0 -10 3 -2 5 17 5 19 0 27 -2 18 -5z m509 -13
c-30 -9 -83 -14 -107 -9 -8 1 10 5 40 9 80 10 100 10 67 0z m-162 -10 c3 -5 1
-10 -4 -10 -6 0 -11 5 -11 10 0 6 2 10 4 10 3 0 8 -4 11 -10z m-545 -10 c0
-13 -11 -13 -30 0 -12 8 -11 10 8 10 12 0 22 -4 22 -10z m-123 -16 c-3 -3 -12
-4 -19 -1 -8 3 -5 6 6 6 11 1 17 -2 13 -5z m-310 -60 c-3 -3 -12 -4 -19 -1 -8
3 -5 6 6 6 11 1 17 -2 13 -5z m-84 -11 c-7 -2 -19 -2 -25 0 -7 3 -2 5 12 5 14
0 19 -2 13 -5z m-770 -60 c-13 -2 -35 -2 -50 0 -16 2 -5 4 22 4 28 0 40 -2 28
-4z m-142 -24 c-13 -5 -21 -15 -18 -22 3 -7 -1 -21 -8 -31 -10 -14 -36 -20
-104 -27 -50 -5 -130 -13 -178 -18 -49 -5 -126 -12 -173 -15 l-85 -5 60 11
c33 6 77 12 98 12 20 1 37 4 37 7 0 3 39 9 86 12 48 3 89 9 93 13 3 5 33 9 66
9 64 0 95 15 95 47 0 13 7 18 28 17 27 0 27 0 3 -10z m2700 -349 c6 -52 11
-120 10 -150 -1 -30 6 -80 15 -110 30 -104 44 -215 43 -347 -1 -73 -5 -133
-10 -133 -5 0 -9 -26 -9 -57 0 -93 -15 -93 -31 -1 l-14 83 -8 -80 c-4 -44 -10
-89 -12 -100 -2 -11 -4 -29 -4 -39 -2 -41 -12 -5 -21 74 -5 45 -14 88 -20 95
-7 8 -7 15 -1 19 12 8 -4 67 -23 81 -7 6 -12 23 -11 38 2 15 0 27 -4 27 -4 0
-8 19 -10 42 -1 23 -4 45 -7 50 -9 14 -13 258 -4 263 5 3 7 12 3 20 -3 8 0 15
7 15 9 0 11 12 7 40 -3 22 -1 40 4 40 5 0 9 7 9 15 0 8 -5 15 -11 15 -8 0 -8
4 -1 13 7 8 10 79 9 199 -2 196 6 228 17 68 7 -107 38 -260 49 -243 4 7 6 103
3 215 -3 185 -3 192 5 73 5 -71 14 -173 20 -225z m-3208 303 c-7 -2 -19 -2
-25 0 -7 3 -2 5 12 5 14 0 19 -2 13 -5z m-186 -19 c-3 -3 -12 -4 -19 -1 -8 3
-5 6 6 6 11 1 17 -2 13 -5z m-141 -19 c-11 -8 -25 -15 -32 -15 -6 0 -17 -7
-24 -15 -18 -22 -32 -18 -18 5 13 20 49 38 78 39 11 0 10 -3 -4 -14z m57 8
c-7 -2 -19 -2 -25 0 -7 3 -2 5 12 5 14 0 19 -2 13 -5z m317 3 c0 -3 -4 -8 -10
-11 -5 -3 -10 -1 -10 4 0 6 5 11 10 11 6 0 10 -2 10 -4z m-285 -52 c13 -5 14
-8 3 -15 -19 -13 -28 -11 -28 6 0 17 2 18 25 9z m95 -4 c11 -7 7 -10 -18 -10
-20 0 -31 4 -27 10 8 13 26 13 45 0z m940 -14 c0 -2 -9 -6 -20 -9 -11 -3 -20
-1 -20 4 0 5 9 9 20 9 11 0 20 -2 20 -4z m30 0 c0 -3 -4 -8 -10 -11 -5 -3 -10
-1 -10 4 0 6 5 11 10 11 6 0 10 -2 10 -4z m-1134 -36 c-45 -40 -71 -106 -62
-159 8 -55 33 -362 56 -706 11 -159 21 -294 22 -300 1 -5 5 67 8 160 l5 170
12 -85 c11 -83 11 -81 7 70 -3 85 -12 251 -20 369 -16 234 -6 308 16 114 7
-65 14 -127 15 -138 6 -70 18 -124 26 -119 5 3 9 0 9 -5 0 -6 -4 -11 -10 -11
-5 0 -9 -10 -9 -22 1 -17 2 -19 6 -5 2 9 9 17 14 17 14 0 11 -26 -6 -40 -16
-13 -10 -34 7 -24 6 4 8 -1 3 -15 -4 -12 -2 -21 4 -21 6 0 9 -21 8 -52 -1 -33
2 -53 11 -55 7 -3 10 1 6 11 -3 9 -1 16 5 16 6 0 10 -11 9 -24 -1 -14 -6 -22
-11 -19 -5 3 -4 -4 2 -16 6 -12 16 -30 21 -41 7 -13 7 -20 0 -20 -14 0 -12
-34 2 -48 10 -10 10 -15 -2 -22 -8 -5 -11 -10 -6 -10 5 0 18 8 29 18 19 16 20
16 8 -6 -7 -12 -9 -28 -5 -34 4 -7 3 -8 -4 -4 -15 9 -15 3 2 -37 7 -18 12 -50
11 -70 -1 -25 4 -41 13 -46 12 -7 15 -27 14 -91 -1 -46 -7 -89 -13 -96 -9 -11
-8 -19 5 -32 19 -22 21 -36 4 -29 -9 3 -13 -7 -14 -30 -1 -18 -8 -41 -17 -51
-23 -26 -29 -93 -33 -361 -3 -135 -6 -246 -8 -248 -1 -2 -11 95 -20 214 -10
120 -21 236 -26 258 l-8 40 -2 -50 c-2 -49 -2 -49 -19 35 -15 72 -19 81 -25
57 -5 -15 -5 -47 -2 -71 9 -55 17 -290 10 -283 -3 3 -7 27 -9 53 -18 228 -15
215 -46 233 -17 9 -29 24 -29 36 0 11 -6 101 -14 200 -8 99 -18 246 -22 327
l-7 147 27 13 c28 12 28 12 22 97 -3 48 -8 140 -12 206 -4 66 -8 127 -10 135
-1 8 -3 18 -3 22 -1 3 -14 11 -30 16 -29 10 -29 11 -35 114 -13 226 -13 247 2
229 11 -14 12 -12 7 17 -4 21 -3 32 5 32 7 0 9 9 5 23 -5 16 -4 18 3 8 8 -11
13 -8 26 16 8 17 13 33 11 37 -3 3 1 2 7 -4 9 -8 9 -13 0 -22 -7 -7 -12 -19
-12 -27 0 -8 3 -11 8 -7 4 4 7 12 7 17 0 15 49 58 68 58 13 1 9 -7 -17 -29z
m1024 26 c0 -2 -9 -6 -20 -9 -11 -3 -20 -1 -20 4 0 5 9 9 20 9 11 0 20 -2 20
-4z m1310 -436 c0 -11 -6 -20 -14 -20 -21 0 -31 21 -15 31 22 14 29 11 29 -11z
m-580 -79 c0 -13 2 -14 9 -1 6 8 7 18 5 22 -3 4 2 8 11 8 10 0 13 -5 9 -12 -4
-7 -9 -25 -11 -42 -4 -35 -1 -31 -35 -40 -24 -5 -28 -3 -28 14 0 12 5 30 10
41 6 10 7 19 2 19 -4 0 -16 -16 -25 -36 -12 -23 -13 -33 -5 -28 9 6 9 3 -1 -9
-16 -20 -51 -23 -51 -4 0 9 -2 9 -8 0 -5 -7 -27 -14 -49 -15 -31 -1 -40 -5
-36 -15 6 -16 -16 -63 -29 -63 -5 0 -7 4 -3 9 3 6 -7 8 -22 7 -19 -3 -28 -9
-27 -20 1 -9 -3 -16 -9 -16 -6 0 -7 -3 -3 -7 4 -4 19 -7 34 -8 19 0 28 -6 30
-20 2 -17 -3 -20 -42 -20 -42 0 -45 1 -41 25 9 61 30 110 47 110 4 0 5 6 2 14
-4 11 0 13 18 9 19 -4 20 -3 8 7 -10 7 -11 13 -4 16 6 3 26 15 43 28 31 23 34
24 69 9 33 -14 35 -14 23 1 -7 9 -17 13 -22 10 -5 -3 -9 -1 -9 4 0 6 16 12 35
14 26 3 34 1 31 -9 -7 -18 1 -16 24 7 22 22 50 17 50 -9z m-495 -51 c3 -5 2
-10 -2 -10 -5 0 -14 -9 -21 -21 -8 -12 -9 -18 -3 -15 14 9 21 -7 11 -24 -5 -8
-28 -15 -55 -16 -26 -1 -49 -5 -52 -8 -3 -3 -12 2 -20 12 -12 16 -14 16 -23 0
-6 -10 -17 -15 -25 -11 -11 4 -13 1 -9 -11 4 -9 0 -18 -9 -22 -18 -7 -11 -40
13 -57 22 -16 25 -28 8 -38 -10 -7 -10 -9 2 -9 8 0 22 5 30 10 10 6 11 10 3
10 -7 0 -13 6 -13 13 0 9 15 14 44 15 48 2 65 -10 46 -33 -8 -10 -9 -15 -2
-15 6 0 9 -7 6 -14 -4 -11 2 -14 27 -13 21 1 33 -3 36 -13 4 -13 3 -13 -6 0
-5 8 -13 11 -16 8 -4 -4 2 -12 13 -19 17 -10 18 -17 10 -41 -6 -15 -14 -25
-19 -22 -5 3 -7 10 -4 15 13 20 -9 7 -31 -18 l-24 -28 0 30 c0 24 -2 27 -11
15 -9 -13 -10 -13 -6 0 2 9 13 14 25 12 12 -2 22 2 22 7 0 6 -7 11 -16 11 -11
0 -14 5 -9 18 5 13 3 14 -5 6 -9 -9 -19 -8 -41 3 -16 8 -38 11 -50 8 -16 -6
-20 -4 -14 6 5 8 -1 6 -13 -5 -24 -21 -44 -18 -48 9 -4 24 15 48 32 41 7 -3
16 -1 19 5 4 5 -1 12 -10 15 -10 4 -24 -4 -40 -22 -13 -15 -28 -25 -32 -21 -4
5 -1 12 6 16 9 6 10 11 2 15 -19 12 -26 -26 -8 -39 10 -7 17 -16 17 -20 0 -5
-9 0 -21 11 -14 12 -18 25 -14 41 3 13 1 23 -5 23 -5 0 -10 4 -10 9 0 6 17 11
37 13 20 2 39 9 41 17 3 10 0 11 -9 5 -22 -13 -62 -17 -54 -4 3 6 11 7 17 4 7
-4 8 -2 4 4 -4 6 -13 9 -22 5 -12 -4 -12 1 3 31 10 19 23 36 30 36 6 0 14 9
18 20 5 16 12 18 38 13 18 -3 40 -10 50 -15 13 -6 17 -5 17 7 0 9 -4 14 -9 11
-5 -4 -20 -2 -33 3 l-23 10 25 2 c14 1 40 2 58 3 17 1 32 4 32 9 0 11 35 8 48
-5 9 -9 13 -7 18 5 7 19 20 22 29 7z m18 -30 c-3 -11 -9 -17 -15 -14 -5 3 -4
12 3 20 16 19 18 18 12 -6z m-363 -29 c0 -10 -7 -21 -15 -25 -18 -7 -20 -32
-2 -39 6 -3 1 -6 -13 -5 -41 0 -160 -25 -160 -34 0 -4 -7 -8 -15 -8 -8 0 -22
-11 -31 -25 -9 -14 -22 -25 -29 -25 -7 0 -15 -6 -18 -14 -4 -9 -14 -12 -25 -9
-26 6 -35 -10 -17 -33 13 -18 14 -18 8 6 -4 20 -3 23 7 13 7 -6 18 -9 24 -7 7
3 11 -15 11 -56 0 -52 -2 -60 -19 -60 -21 0 -16 -10 7 -14 8 -1 26 -9 40 -19
20 -13 32 -15 52 -7 15 6 30 8 34 5 5 -2 22 0 39 4 20 6 34 5 41 -2 9 -9 17
-8 31 1 17 10 20 10 20 -4 0 -9 -8 -23 -17 -30 -17 -13 -17 -13 2 -14 15 -1
13 -4 -10 -14 -16 -7 -36 -11 -42 -8 -7 2 -13 0 -13 -5 0 -5 -9 -9 -20 -10
-11 -1 -20 2 -20 8 0 5 -5 9 -10 9 -6 0 -9 -5 -8 -12 7 -29 -107 -29 -147 -1
-20 15 -20 15 1 9 13 -4 26 -1 33 8 11 13 7 14 -28 11 l-41 -4 17 25 c13 20
14 27 3 37 -10 9 -12 9 -8 -3 3 -8 -2 -22 -10 -30 -14 -13 -15 -12 -9 3 3 9 2
17 -2 17 -15 0 -25 84 -12 88 8 3 9 8 1 17 -11 14 -3 48 10 40 5 -3 6 4 3 15
-3 11 0 20 6 20 5 0 8 6 5 14 -6 17 53 106 71 106 7 0 15 9 18 21 3 12 10 18
16 15 5 -4 13 -1 16 5 4 6 18 8 30 5 13 -3 25 -1 27 4 2 6 30 14 63 19 96 14
105 13 105 -8z m360 -5 c0 -3 -4 -8 -10 -11 -5 -3 -10 -1 -10 4 0 6 5 11 10
11 6 0 10 -2 10 -4z m115 -25 c-3 -5 -1 -13 5 -16 8 -5 8 -11 0 -20 -6 -8 -10
-22 -8 -31 3 -21 -21 -29 -59 -19 -21 5 -24 10 -19 33 4 15 7 33 8 40 1 6 3
10 5 8 2 -2 16 0 31 4 37 11 44 11 37 1z m135 -41 c0 -5 -7 -7 -15 -4 -8 4
-15 8 -15 10 0 2 7 4 15 4 8 0 15 -4 15 -10z m234 -6 c5 -13 1 -15 -18 -10
-16 4 -30 0 -40 -10 -19 -19 -21 -31 -3 -16 15 13 50 9 54 -5 6 -16 -18 -28
-27 -13 -5 9 -9 9 -14 1 -12 -20 -36 -12 -36 12 0 26 10 42 30 50 28 10 48 7
54 -9z m-547 -66 c-3 -8 -6 -5 -6 6 -1 11 2 17 5 13 3 -3 4 -12 1 -19z m20
-36 c-26 -5 -31 3 -16 26 13 20 13 20 24 -1 9 -19 8 -23 -8 -25z m240 31 c-5
-33 -17 -45 -33 -32 -8 6 -14 16 -14 21 0 7 26 22 47 27 2 1 2 -7 0 -16z m51
-11 c2 -7 -4 -15 -13 -18 -21 -8 -40 17 -22 28 15 10 30 5 35 -10z m229 -21
c-4 -35 -42 -85 -58 -75 -13 8 -11 -10 2 -23 6 -6 18 -9 26 -6 12 5 12 7 2 14
-8 4 -10 11 -6 15 4 4 12 3 19 -4 17 -17 -10 -45 -39 -39 -13 2 -26 0 -29 -5
-10 -17 -72 -5 -78 15 -2 10 2 21 10 24 15 6 9 23 -8 23 -6 0 -8 -3 -5 -7 4
-3 -1 -12 -11 -19 -12 -10 -13 -13 -3 -14 10 0 11 -3 2 -14 -9 -11 -9 -15 1
-18 7 -3 -3 -5 -22 -5 -23 0 -41 7 -52 21 -17 20 -18 20 -12 1 10 -30 -10 -7
-35 40 -12 22 -21 45 -21 51 0 16 39 12 49 -4 7 -11 9 -11 14 2 8 21 25 20 45
-3 18 -21 78 -31 100 -17 6 4 12 3 12 -3 0 -6 8 -7 17 -4 11 4 12 8 5 11 -7 2
-12 20 -12 39 0 32 2 35 25 31 14 -3 25 -2 25 1 0 4 9 7 20 7 17 0 20 -6 17
-35z m-374 -105 c-4 -6 -6 -24 -4 -40 2 -18 -1 -26 -8 -22 -6 4 -11 1 -11 -6
-1 -9 -5 -7 -14 5 -12 15 -14 16 -20 2 -3 -8 -13 -15 -23 -14 -16 0 -16 1 2 9
11 5 15 9 9 9 -36 2 -18 71 18 71 17 0 18 -2 8 -15 -7 -8 -19 -15 -27 -15 -8
0 -11 -5 -7 -11 3 -6 15 -9 25 -6 11 3 19 1 19 -4 0 -5 5 -9 11 -9 8 0 8 4 -1
15 -15 18 -4 56 15 48 8 -3 12 -10 8 -17z m682 -6 c-3 -5 -1 -10 4 -10 6 0 11
5 11 10 0 6 7 10 15 10 13 0 15 -7 9 -37 -3 -21 -11 -42 -17 -48 -6 -7 -7 -1
-3 18 8 32 -9 37 -17 5 -4 -14 -1 -26 8 -31 17 -9 21 -72 5 -82 -6 -4 -5 -13
2 -25 10 -16 8 -23 -15 -44 -30 -28 -34 -38 -12 -30 11 5 15 0 14 -17 0 -13
-3 -18 -6 -11 -5 14 -23 16 -23 3 0 -5 9 -12 19 -16 22 -7 17 -42 -8 -62 -11
-8 -12 -12 -3 -13 6 0 12 -8 12 -18 0 -10 -6 -24 -12 -31 -10 -11 -10 -13 0
-7 6 4 12 3 12 -2 0 -17 -13 -21 -31 -11 -14 7 -17 6 -13 -4 3 -9 -3 -17 -16
-20 -17 -4 -19 -3 -9 9 9 11 8 14 -2 15 -10 0 -11 2 -1 6 19 7 14 19 -13 31
-30 14 -79 16 -71 3 9 -13 -66 -22 -81 -9 -10 8 -12 7 -8 -4 4 -10 -2 -14 -22
-13 -20 0 -28 6 -30 20 -2 11 0 15 3 8 6 -13 34 -7 34 7 0 5 -8 11 -17 13 -15
4 -15 5 2 6 11 0 27 -3 35 -8 18 -12 36 -1 19 11 -11 8 -10 9 3 5 9 -3 19 -1
21 6 2 7 8 9 12 5 4 -4 2 -14 -5 -23 -10 -11 -10 -15 0 -15 6 0 14 9 17 19 5
21 50 34 57 17 2 -6 5 8 5 31 1 23 6 54 13 68 9 19 9 28 0 37 -9 9 -12 8 -12
-4 0 -10 -8 -16 -17 -16 -10 1 -40 -3 -67 -7 -40 -6 -47 -5 -41 6 5 8 -2 5
-16 -6 -13 -11 -21 -16 -17 -11 4 5 3 15 -3 22 -16 20 -3 44 23 43 13 0 17 -3
11 -6 -7 -2 -13 -10 -13 -16 0 -6 10 -1 23 10 24 24 110 36 126 20 7 -7 13 -5
17 7 4 10 10 14 13 9 3 -5 14 -1 24 9 12 13 13 18 3 18 -9 0 -12 8 -8 25 3 16
11 25 22 25 21 0 21 31 0 38 -7 3 -10 0 -7 -5 4 -6 -4 -10 -18 -10 -16 0 -22
4 -18 11 4 6 -5 3 -20 -7 -16 -10 -36 -16 -45 -14 -13 4 -13 5 3 6 22 1 57 35
48 45 -4 3 -13 -3 -20 -14 -12 -18 -21 -20 -62 -14 -28 4 -51 2 -54 -4 -4 -5
5 -8 23 -6 16 2 32 -2 36 -8 5 -7 -2 -9 -22 -5 -16 3 -38 0 -49 -6 -36 -20
-54 -19 -48 3 3 11 1 20 -5 20 -5 0 -9 -7 -8 -16 0 -9 -5 -19 -13 -22 -10 -3
-13 2 -9 21 4 23 3 25 -14 16 -14 -7 -16 -14 -9 -23 7 -8 5 -12 -10 -13 -10
-1 -19 2 -19 7 0 5 -8 6 -17 3 -13 -5 -15 -2 -10 11 4 10 7 21 7 26 0 4 17 8
38 9 20 0 53 3 72 7 29 5 33 4 23 -7 -15 -16 -17 -29 -3 -29 5 0 12 11 16 25
5 20 12 24 40 23 18 -1 35 -7 38 -15 6 -15 36 -18 36 -2 0 5 -4 8 -9 4 -5 -3
-13 0 -16 6 -11 17 3 23 21 9 9 -8 18 -10 22 -4 17 23 81 46 67 24 -3 -5 -1
-10 5 -10 7 0 10 -7 6 -15 -3 -8 -1 -15 3 -15 14 0 21 29 9 36 -8 5 -5 10 8
15 26 10 26 10 19 -1z m-1890 -10 c3 -5 1 -10 -4 -10 -6 0 -11 5 -11 10 0 6 2
10 4 10 3 0 8 -4 11 -10z m995 0 c0 -4 -11 -17 -25 -30 -14 -13 -25 -18 -25
-12 0 6 -6 9 -14 6 -7 -3 -16 2 -20 12 -5 14 -1 15 29 10 23 -5 35 -3 35 4 0
6 -5 8 -12 4 -6 -4 -8 -3 -5 3 7 11 37 13 37 3z m38 -25 c-8 -18 -17 -24 -30
-19 -12 4 -18 0 -18 -11 0 -12 5 -15 17 -11 10 4 14 4 10 -1 -5 -4 -21 -8 -37
-9 l-29 -2 41 39 c49 45 62 49 46 14z m-106 -35 c7 0 7 -4 -1 -14 -17 -20 -58
1 -57 29 2 31 20 37 34 10 7 -14 18 -25 24 -25z m-69 15 c4 -8 2 -17 -3 -20
-4 -3 -10 1 -13 7 -3 10 -7 10 -20 -1 -10 -7 -17 -12 -18 -10 -7 37 -6 39 21
39 15 0 30 -7 33 -15z m-67 -34 c3 -22 -1 -30 -16 -34 -17 -4 -20 0 -20 28 0
18 6 35 13 38 16 6 19 2 23 -32z m690 13 c-4 -9 -1 -23 5 -30 7 -9 8 -14 1
-14 -6 0 -19 -3 -29 -7 -14 -5 -16 -4 -7 8 6 8 14 22 17 31 9 27 -18 11 -31
-18 -13 -26 -27 -31 -36 -11 -3 8 -8 7 -16 -5 -6 -10 -20 -18 -30 -18 -21 0
-39 -22 -22 -28 13 -4 4 -32 -11 -32 -6 0 -8 3 -4 6 3 3 1 12 -6 19 -9 10 -14
9 -23 -3 -8 -12 -7 -19 8 -34 16 -16 17 -22 6 -41 -7 -12 -11 -25 -10 -29 1
-4 -5 -5 -13 -2 -8 4 -15 1 -15 -5 0 -6 5 -11 10 -11 7 0 7 -7 0 -21 -9 -16
-14 -18 -26 -8 -8 6 -17 9 -21 5 -3 -3 -2 -6 4 -6 6 0 13 -7 17 -15 7 -20 -8
-19 -28 1 -15 14 -16 14 -17 -3 -1 -10 -5 2 -10 27 -6 32 -5 46 4 52 8 5 8 8
1 8 -20 0 -13 48 7 53 11 3 19 0 19 -8 0 -7 8 -15 18 -19 9 -3 24 -9 32 -12 8
-4 6 0 -4 8 -10 8 -16 20 -12 26 7 12 -10 17 -46 14 -10 -1 -17 4 -15 10 1 7
-11 12 -30 13 -33 0 -56 15 -35 22 6 3 10 9 6 14 -3 5 -12 2 -20 -6 -9 -8 -12
-19 -9 -25 3 -5 2 -10 -4 -10 -5 0 -16 -2 -23 -5 -8 -3 -24 3 -37 14 -22 19
-22 20 -3 30 14 8 21 8 24 0 2 -5 12 -7 22 -3 14 5 15 9 4 16 -9 6 -6 7 10 3
12 -3 22 -2 22 2 0 5 17 7 38 5 28 -2 33 -1 22 7 -11 8 -12 11 -2 11 8 0 25
-9 39 -20 15 -11 29 -17 32 -14 3 4 0 9 -6 11 -7 3 -13 9 -13 14 0 6 5 7 10 4
6 -3 10 -1 10 4 0 17 36 13 75 -9 20 -11 38 -20 40 -20 11 0 4 29 -7 33 -7 3
-3 6 9 6 12 1 25 6 28 12 4 6 13 8 21 5 7 -3 16 -1 19 4 4 6 15 10 27 10 14 0
18 -5 14 -16z m-1472 -25 c-6 -11 -24 -2 -24 11 0 5 7 7 15 4 8 -4 12 -10 9
-15z m880 0 c5 -4 -12 -7 -37 -6 -35 2 -43 5 -35 14 10 13 55 8 72 -8z m456
11 c0 -5 -7 -7 -15 -4 -8 4 -15 8 -15 10 0 2 7 4 15 4 8 0 15 -4 15 -10z
m-323 -46 c-3 -3 -12 -4 -19 -1 -8 3 -5 6 6 6 11 1 17 -2 13 -5z m-57 -14 c0
-5 -4 -10 -10 -10 -5 0 -10 5 -10 10 0 6 5 10 10 10 6 0 10 -4 10 -10z m-37
-6 c3 -4 -6 -20 -21 -36 -20 -22 -33 -27 -52 -23 -14 3 -20 2 -15 -2 16 -13
17 -53 1 -47 -7 3 -16 -1 -19 -10 -3 -8 1 -17 9 -20 8 -3 14 -15 14 -27 0 -18
-2 -19 -15 -9 -12 10 -15 10 -15 -4 0 -9 7 -16 15 -16 12 0 13 -4 6 -19 -6
-10 -7 -21 -4 -25 3 -3 2 -6 -4 -6 -6 0 -15 6 -21 13 -6 7 -22 13 -35 15 -21
1 -24 -2 -20 -18 4 -16 8 -18 19 -9 8 7 18 9 22 5 4 -4 -1 -12 -11 -17 -9 -6
-17 -15 -17 -20 0 -6 4 -8 8 -5 4 3 7 -8 6 -25 -1 -16 2 -29 8 -29 9 0 38 -25
38 -33 0 -2 -11 -2 -25 1 -14 2 -25 11 -25 19 0 12 -3 13 -15 3 -8 -6 -20 -10
-27 -7 -8 4 -5 8 10 12 24 8 25 9 16 42 -5 19 -8 20 -20 9 -7 -8 -25 -11 -41
-9 -22 4 -25 2 -13 -6 11 -8 11 -11 3 -12 -34 -4 -64 -20 -57 -31 3 -5 10 -5
17 0 16 12 57 22 57 14 -1 -18 -19 -34 -30 -27 -8 5 -11 3 -8 -6 3 -8 10 -13
16 -12 5 1 13 -4 16 -13 3 -8 2 -12 -3 -9 -5 3 -12 1 -16 -5 -3 -6 1 -13 9
-16 9 -3 16 -10 16 -15 0 -5 -11 -3 -25 3 -28 13 -30 19 -13 36 15 15 3 16
-22 2 -15 -8 -17 -6 -13 9 3 10 0 22 -6 25 -6 4 -9 1 -5 -7 3 -8 0 -18 -5 -22
-6 -3 -9 -11 -6 -16 3 -5 0 -7 -7 -4 -8 3 -13 -3 -13 -19 0 -16 4 -22 14 -18
9 3 12 1 7 -6 -4 -7 -19 -12 -34 -11 -15 0 -22 3 -16 5 7 3 10 13 7 23 -2 10
3 25 11 34 20 19 20 27 2 27 -11 0 -14 10 -11 41 4 38 15 69 15 40 0 -7 5 -9
10 -6 7 4 5 13 -4 26 -17 25 -10 107 12 132 8 9 10 17 4 17 -6 0 -13 -6 -16
-12 -3 -7 -4 -4 -1 8 5 19 1 21 -35 20 -22 -1 -40 -4 -40 -8 0 -5 -7 -8 -15
-8 -8 0 -15 6 -15 12 0 7 -10 -2 -22 -19 -25 -35 -52 -45 -41 -15 6 15 5 15
-10 3 -10 -8 -15 -21 -12 -32 3 -9 1 -20 -5 -24 -5 -3 -10 -11 -10 -16 0 -6 5
-7 10 -4 14 8 12 -7 -3 -25 -16 -20 -57 -23 -57 -4 0 8 4 14 9 14 5 0 7 8 4
18 -2 10 5 26 16 36 12 11 21 24 21 29 0 6 -6 3 -13 -8 -13 -17 -14 -17 -20 5
-3 13 -3 28 1 34 3 6 5 19 4 29 -2 9 2 17 8 17 6 0 8 -4 5 -10 -3 -5 -1 -10 5
-10 6 0 9 -4 6 -8 -2 -4 7 -8 22 -9 15 0 19 1 10 4 -21 5 -23 17 -5 31 16 13
117 22 117 11 0 -5 5 -9 11 -9 6 0 8 7 5 16 -4 10 -1 14 6 11 7 -2 12 -12 10
-22 -3 -13 2 -11 21 9 27 29 42 34 33 11 -4 -12 -2 -13 14 -2 11 6 20 14 20
17 0 3 11 5 24 5 19 0 22 -3 15 -17 -6 -10 -5 -19 1 -23 18 -11 -1 -27 -26
-21 -14 4 -24 2 -24 -4 0 -5 7 -10 15 -10 8 0 15 -5 15 -11 0 -5 -4 -8 -9 -5
-4 3 -17 -4 -27 -16 -11 -12 -13 -18 -6 -14 18 10 38 -4 21 -15 -11 -7 -10 -9
3 -9 21 0 33 17 16 23 -25 8 10 34 40 31 15 -2 21 -1 15 2 -20 9 -15 23 11 35
20 10 23 15 14 29 -7 10 -18 16 -25 13 -7 -3 -13 -1 -13 4 0 20 14 22 32 6 10
-9 21 -13 25 -9 4 4 1 11 -7 16 -12 8 -10 10 8 10 23 0 30 -14 12 -25 -5 -3
-10 -14 -10 -23 0 -13 5 -11 23 10 18 20 27 24 35 16 9 -9 10 -5 7 13 l-4 24
19 -22 c20 -25 50 -31 50 -10 0 8 -10 19 -22 25 -21 10 -20 11 13 11 20 1 38
-2 42 -5z m87 -4 c0 -5 -7 -10 -16 -10 -8 0 -12 5 -9 10 3 6 10 10 16 10 5 0
9 -4 9 -10z m473 -1 c-6 -6 -9 -18 -6 -25 3 -8 0 -21 -6 -28 -7 -8 -8 -15 -2
-18 5 -1 7 -15 4 -30 -5 -24 -7 -25 -20 -13 -8 9 -19 13 -24 10 -5 -4 -9 -1
-9 4 0 6 4 11 9 11 5 0 12 11 15 25 4 14 11 25 17 25 6 0 7 5 4 10 -6 10 11
40 23 40 3 0 1 -5 -5 -11z m-490 -20 c7 0 -1 -7 -18 -14 -16 -7 -33 -11 -37
-9 -12 8 16 34 30 29 8 -3 19 -5 25 -6z m178 -22 c-10 -9 -11 -8 -5 6 3 10 9
15 12 12 3 -3 0 -11 -7 -18z m-171 -7 c0 -5 -2 -10 -4 -10 -3 0 -8 5 -11 10
-3 6 -1 10 4 10 6 0 11 -4 11 -10z m-275 -10 c8 -13 -5 -13 -25 0 -13 8 -13
10 2 10 9 0 20 -4 23 -10z m443 -25 c-3 -3 -9 2 -12 12 -6 14 -5 15 5 6 7 -7
10 -15 7 -18z m-158 11 c0 -3 -4 -8 -10 -11 -5 -3 -10 -1 -10 4 0 6 5 11 10
11 6 0 10 -2 10 -4z m14 -61 c3 -8 1 -15 -5 -15 -6 0 -7 -4 -4 -10 3 -5 2 -10
-4 -10 -5 0 -13 5 -16 10 -3 6 -1 10 5 10 7 0 10 7 6 15 -3 8 -1 15 3 15 5 0
11 -7 15 -15z m420 -8 c14 -14 23 -31 21 -43 -2 -10 -4 -23 -4 -28 -1 -4 -9
-6 -19 -4 -12 4 -18 -1 -18 -13 0 -21 22 -26 29 -6 3 6 5 -3 4 -21 0 -18 -4
-35 -9 -38 -4 -3 -8 0 -8 6 0 6 -4 9 -9 6 -5 -4 -11 0 -14 6 -3 10 -8 10 -22
-2 -16 -13 -17 -12 -13 5 2 11 10 19 16 18 7 -2 12 2 12 7 0 22 -29 8 -38 -18
-7 -20 -6 -31 4 -39 9 -9 14 -9 16 -1 3 7 12 9 21 5 21 -8 18 -58 -3 -65 -8
-3 -10 0 -5 8 5 9 4 11 -4 6 -6 -4 -9 -11 -6 -16 9 -15 -27 -42 -49 -36 -12 3
-34 -1 -49 -9 -32 -16 -34 -7 -8 26 10 13 16 29 14 36 -2 6 1 14 6 18 6 3 11
1 11 -5 0 -6 5 -8 10 -5 8 5 7 12 -2 23 -10 12 -10 14 0 8 8 -4 13 -1 14 11 3
44 19 84 30 77 5 -3 8 0 7 7 -2 15 17 69 25 69 3 0 3 -7 -1 -16 -5 -14 -3 -14
15 -3 22 14 20 29 -4 29 -8 0 -12 5 -9 10 9 14 11 13 39 -13z m-1006 -59 c-1
-18 -10 -43 -21 -55 -11 -13 -16 -23 -10 -23 6 0 14 6 17 13 3 6 4 -4 3 -23
-2 -27 -6 -34 -19 -32 -23 4 -23 -14 -2 -26 10 -6 13 -12 6 -16 -5 -3 -8 -15
-5 -26 3 -11 0 -20 -6 -20 -7 0 -9 11 -6 30 3 17 4 30 2 30 -7 0 -67 -60 -67
-66 0 -12 46 -43 65 -44 15 0 17 -2 6 -9 -7 -5 -10 -14 -7 -20 4 -6 3 -11 -3
-11 -5 0 -12 6 -14 13 -3 7 -6 5 -6 -5 -1 -10 6 -18 14 -18 35 0 1 -35 -37
-38 -15 -1 -28 4 -32 13 -7 19 12 30 29 15 11 -9 13 -6 11 13 -4 32 -15 49
-28 41 -7 -5 -9 0 -6 14 4 12 2 22 -4 22 -6 0 -3 11 6 24 12 19 12 26 3 30 -6
4 -2 4 11 2 12 -2 22 0 22 5 0 5 -6 9 -13 9 -19 0 -20 63 -1 86 14 17 15 17
10 2 -8 -27 13 -21 26 7 6 14 16 25 21 25 5 0 7 10 4 22 -4 14 0 26 11 34 23
18 23 18 20 -18z m621 -32 c15 -18 15 -19 -2 -13 -10 4 -21 7 -23 7 -2 0 -3
15 -3 33 1 21 3 25 6 12 3 -11 12 -29 22 -39z m-65 19 c-4 -8 -10 -15 -15 -15
-4 0 -6 7 -3 15 4 8 10 15 15 15 4 0 6 -7 3 -15z m230 -4 c3 -5 0 -11 -7 -14
-8 -3 -14 1 -14 9 0 16 13 19 21 5z m-204 -31 c0 -5 -9 -10 -21 -10 -11 0 -17
5 -14 10 3 6 13 10 21 10 8 0 14 -4 14 -10z m30 -9 c0 -12 -20 -25 -27 -18 -7
7 6 27 18 27 5 0 9 -4 9 -9z m-220 -15 c0 -2 -9 -6 -20 -9 -11 -3 -18 -1 -14
4 5 9 34 13 34 5z m170 -37 c0 -10 9 -23 20 -29 21 -11 18 -36 -8 -57 -9 -7
-13 -13 -9 -13 4 0 -3 -11 -15 -25 -12 -14 -24 -25 -27 -25 -3 0 -7 18 -7 39
-1 32 1 38 14 34 8 -4 21 2 28 12 18 24 18 32 -1 32 -10 0 -14 -6 -10 -16 5
-13 4 -13 -6 -4 -17 17 -21 50 -9 58 6 4 8 11 5 16 -3 5 1 6 9 3 9 -3 16 -14
16 -25z m70 23 c0 -4 -5 -13 -10 -18 -7 -7 -3 -18 11 -33 12 -12 19 -24 16
-27 -2 -3 -16 9 -30 26 -14 16 -30 30 -36 30 -6 0 -11 4 -11 9 0 8 10 12 53
20 4 0 7 -3 7 -7z m-245 -12 c3 -5 1 -10 -4 -10 -6 0 -11 5 -11 10 0 6 2 10 4
10 3 0 8 -4 11 -10z m-85 -10 c0 -5 -5 -10 -11 -10 -5 0 -7 5 -4 10 3 6 8 10
11 10 2 0 4 -4 4 -10z m1128 -25 c-2 -19 -8 -25 -28 -26 -14 -1 -35 -3 -48 -4
-12 -1 -25 2 -28 6 -3 5 1 9 8 10 47 3 63 8 72 22 16 25 26 21 24 -8z m-418
-5 c0 -5 -5 -10 -11 -10 -5 0 -7 5 -4 10 3 6 8 10 11 10 2 0 4 -4 4 -10z m-5
-39 c-3 -6 -11 -11 -17 -11 -6 0 -6 6 2 15 14 17 26 13 15 -4z m-695 -1 c0 -5
-7 -10 -15 -10 -8 0 -15 5 -15 10 0 6 7 10 15 10 8 0 15 -4 15 -10z m359 -6
c2 -2 -5 -11 -15 -21 -17 -17 -17 -17 -11 0 5 12 1 17 -13 17 -11 0 -20 5 -20
10 0 9 47 4 59 -6z m-709 -45 c0 -3 -11 -4 -25 -1 -28 5 -31 12 -13 30 9 9 14
7 24 -6 8 -9 14 -20 14 -23z m377 21 c1 -15 -4 -20 -23 -20 -14 0 -24 6 -24
14 0 12 9 18 40 25 3 0 6 -8 7 -19z m43 10 c0 -5 -5 -10 -11 -10 -5 0 -7 5 -4
10 3 6 8 10 11 10 2 0 4 -4 4 -10z m610 -9 c0 -5 -7 -11 -14 -14 -10 -4 -13
-1 -9 9 6 15 23 19 23 5z m-403 -23 c-3 -8 -6 -5 -6 6 -1 11 2 17 5 13 3 -3 4
-12 1 -19z m33 7 c0 -8 -2 -15 -4 -15 -2 0 -6 7 -10 15 -3 8 -1 15 4 15 6 0
10 -7 10 -15z m947 9 c-3 -3 -12 -4 -19 -1 -8 3 -5 6 6 6 11 1 17 -2 13 -5z
m-1363 -10 c16 -6 12 -24 -5 -24 -6 0 -8 4 -4 9 3 5 -5 12 -17 14 -14 2 -16 5
-6 6 9 0 23 -2 32 -5z m160 -9 c-4 -8 -12 -15 -20 -15 -8 0 -14 -6 -15 -12 0
-10 -2 -10 -6 0 -3 7 3 20 13 27 25 19 35 19 28 0z m320 -24 c-8 -9 -54 -8
-54 1 0 5 9 6 20 3 16 -5 20 -2 21 17 0 22 1 22 8 3 5 -11 7 -22 5 -24z m224
21 c6 -18 -15 -14 -22 4 -4 10 -1 14 6 12 6 -2 14 -10 16 -16z m29 -4 c-3 -8
-6 -5 -6 6 -1 11 2 17 5 13 3 -3 4 -12 1 -19z m590 16 c-3 -3 -12 -4 -19 -1
-8 3 -5 6 6 6 11 1 17 -2 13 -5z m3139 -55 c8 -16 14 -36 13 -46 0 -10 -7 0
-15 21 -8 22 -22 49 -32 60 -16 20 -16 20 1 7 10 -8 25 -27 33 -42z m-3836 31
c0 -5 -8 -10 -17 -10 -15 0 -16 2 -3 10 19 12 20 12 20 0z m-108 -22 c-14 -14
-42 -20 -42 -8 0 5 8 11 18 13 31 8 36 7 24 -5z m-827 -18 c-3 -5 -10 -10 -16
-10 -5 0 -9 5 -9 10 0 6 7 10 16 10 8 0 12 -4 9 -10z m445 -15 c-7 -8 -16 -12
-21 -9 -13 8 -1 24 18 24 13 0 13 -3 3 -15z m220 5 c0 -5 -2 -10 -4 -10 -3 0
-8 5 -11 10 -3 6 -1 10 4 10 6 0 11 -4 11 -10z m107 -16 c-3 -3 -12 -4 -19 -1
-8 3 -5 6 6 6 11 1 17 -2 13 -5z m-710 -44 c-4 -28 -14 -35 -32 -20 -8 7 -15
8 -15 4 0 -5 9 -15 20 -22 20 -12 28 -52 11 -52 -5 0 -18 -3 -28 -7 -17 -7
-17 -6 0 11 25 26 21 37 -10 30 -25 -7 -27 -6 -14 9 12 15 9 21 -11 19 -3 -1
-8 5 -11 12 -4 9 7 13 36 14 23 1 44 7 45 12 6 17 12 11 9 -10z m298 10 c-3
-5 -11 -10 -16 -10 -6 0 -7 5 -4 10 3 6 11 10 16 10 6 0 7 -4 4 -10z m-79 -22
c5 -7 0 -9 -13 -6 -15 4 -24 -1 -32 -19 -7 -15 -16 -21 -23 -17 -9 6 -9 9 0
12 7 2 12 11 12 21 0 19 45 27 56 9z m4624 8 c0 -2 -9 -6 -20 -9 -11 -3 -18
-1 -14 4 5 9 34 13 34 5z m-53 -12 c-3 -3 -12 -4 -19 -1 -8 3 -5 6 6 6 11 1
17 -2 13 -5z m-4679 -18 c-16 -8 -33 -18 -40 -22 -6 -4 -8 -3 -4 4 3 5 0 13
-6 16 -7 4 -3 4 9 2 13 -2 26 0 29 5 3 5 13 9 22 9 11 0 7 -5 -10 -14z m152 4
c0 -5 -4 -10 -10 -10 -5 0 -10 5 -10 10 0 6 5 10 10 10 6 0 10 -4 10 -10z
m-46 -9 c4 -5 -3 -7 -14 -4 -23 6 -26 13 -6 13 8 0 17 -4 20 -9z m-307 -33
c-3 -8 -6 -5 -6 6 -1 11 2 17 5 13 3 -3 4 -12 1 -19z m218 12 c-3 -5 -16 -10
-28 -10 -18 0 -19 2 -7 10 20 13 43 13 35 0z m-185 -14 c0 -12 -33 -35 -41
-30 -6 3 -2 12 8 20 18 13 33 18 33 10z m1855 -136 c3 -6 -1 -13 -10 -16 -19
-8 -30 0 -20 15 8 14 22 14 30 1z m-382 -177 c-7 -2 -21 -2 -30 0 -10 3 -4 5
12 5 17 0 24 -2 18 -5z m2497 -18 c0 -8 -2 -15 -4 -15 -2 0 -6 7 -10 15 -3 8
-1 15 4 15 6 0 10 -7 10 -15z m7 -87 c-3 -7 -5 -2 -5 12 0 14 2 19 5 13 2 -7
2 -19 0 -25z m-4462 -48 c-3 -5 -14 -10 -23 -10 -15 0 -15 2 -2 10 20 13 33
13 25 0z m3212 -222 c-3 -7 -5 -2 -5 12 0 14 2 19 5 13 2 -7 2 -19 0 -25z
m-3057 -23 c0 -8 -2 -15 -4 -15 -2 0 -6 7 -10 15 -3 8 -1 15 4 15 6 0 10 -7
10 -15z"/>
<path d="M570 3570 c0 -5 5 -10 11 -10 5 0 7 5 4 10 -3 6 -8 10 -11 10 -2 0
-4 -4 -4 -10z"/>
<path d="M571 3434 c0 -11 3 -14 6 -6 3 7 2 16 -1 19 -3 4 -6 -2 -5 -13z"/>
<path d="M2216 3142 c-2 -4 4 -8 14 -8 10 0 16 4 14 8 -3 4 -9 8 -14 8 -5 0
-11 -4 -14 -8z"/>
<path d="M2168 3083 c-19 -5 -25 -33 -7 -33 5 0 7 5 4 10 -3 6 1 10 9 10 9 0
16 5 16 10 0 6 -1 9 -2 9 -2 -1 -11 -3 -20 -6z"/>
<path d="M1797 3091 c-4 -17 -3 -21 5 -13 5 5 8 16 6 23 -3 8 -7 3 -11 -10z"/>
<path d="M1710 3075 c-10 -12 -10 -15 3 -15 19 0 31 16 18 24 -5 3 -14 -1 -21
-9z"/>
<path d="M1650 3041 c0 -6 4 -13 10 -16 6 -3 7 1 4 9 -7 18 -14 21 -14 7z"/>
<path d="M1685 3030 c3 -5 8 -10 11 -10 2 0 4 5 4 10 0 6 -5 10 -11 10 -5 0
-7 -4 -4 -10z"/>
<path d="M1809 2943 c-1 -5 -1 -11 0 -15 0 -5 -4 -8 -10 -8 -5 0 -7 -5 -4 -10
7 -11 35 12 35 29 0 12 -19 15 -21 4z"/>
<path d="M1695 2890 c4 -6 11 -8 16 -5 14 9 11 15 -7 15 -8 0 -12 -5 -9 -10z"/>
<path d="M1780 2889 c0 -4 13 -7 30 -7 16 1 27 4 25 8 -6 10 -55 9 -55 -1z"/>
<path d="M1454 3058 c-4 -7 -3 -8 5 -4 6 4 18 2 26 -4 9 -7 15 -8 15 -2 0 5
-7 13 -16 16 -21 8 -22 8 -30 -6z"/>
<path d="M1388 3039 c-28 -16 -21 -24 21 -24 22 0 37 3 34 8 -2 4 -14 5 -25 1
-17 -5 -20 -3 -15 10 7 19 7 19 -15 5z"/>
<path d="M1297 2993 c4 -11 9 -11 22 -1 9 7 18 14 20 15 3 2 -7 2 -21 1 -17
-1 -24 -7 -21 -15z"/>
<path d="M1275 2969 c-4 -6 -5 -12 -2 -15 2 -3 7 2 10 11 7 17 1 20 -8 4z"/>
<path d="M1257 2809 c3 -10 0 -19 -6 -19 -6 0 -11 -5 -11 -10 0 -6 7 -6 18 1
21 13 25 36 6 43 -7 3 -10 -2 -7 -15z"/>
<path d="M1280 2715 c0 -8 7 -15 16 -15 14 0 14 3 4 15 -7 8 -14 15 -16 15 -2
0 -4 -7 -4 -15z"/>
<path d="M1405 2703 c2 -10 4 -21 4 -25 1 -5 9 -8 19 -7 10 0 12 3 5 6 -7 2
-13 13 -13 24 0 10 -4 19 -9 19 -5 0 -8 -8 -6 -17z"/>
<path d="M1491 2684 c0 -11 3 -14 6 -6 3 7 2 16 -1 19 -3 4 -6 -2 -5 -13z"/>
<path d="M1351 2656 c-9 -10 -8 -15 4 -20 10 -4 15 1 15 14 0 24 -4 25 -19 6z"/>
<path d="M1996 3015 c4 -8 11 -15 16 -15 6 0 5 6 -2 15 -7 8 -14 15 -16 15 -2
0 -1 -7 2 -15z"/>
<path d="M2360 2890 c0 -5 5 -10 11 -10 5 0 7 5 4 10 -3 6 -8 10 -11 10 -2 0
-4 -4 -4 -10z"/>
<path d="M2171 2844 c-18 -20 -6 -31 15 -13 14 11 18 11 21 1 3 -6 9 -9 14 -6
6 3 2 12 -8 20 -23 17 -25 17 -42 -2z"/>
<path d="M2295 2820 c-4 -11 -11 -18 -16 -15 -5 4 -9 1 -9 -4 0 -16 16 -13 34
5 18 17 21 34 7 34 -5 0 -13 -9 -16 -20z"/>
<path d="M2206 2795 c-3 -8 -1 -15 4 -15 6 0 10 7 10 15 0 8 -2 15 -4 15 -2 0
-6 -7 -10 -15z"/>
<path d="M2647 2774 c-3 -5 1 -15 9 -22 16 -14 18 -5 5 17 -5 7 -11 9 -14 5z"/>
<path d="M2700 2609 c0 -5 5 -7 10 -4 6 3 10 8 10 11 0 2 -4 4 -10 4 -5 0 -10
-5 -10 -11z"/>
<path d="M2532 2586 c2 -1 12 -8 22 -16 13 -10 17 -10 12 -2 -4 6 -3 12 3 12
5 0 11 -5 13 -12 3 -8 7 -6 11 5 5 13 0 16 -28 15 -20 -1 -34 -2 -33 -2z"/>
<path d="M2650 2580 c0 -5 5 -10 11 -10 5 0 7 5 4 10 -3 6 -8 10 -11 10 -2 0
-4 -4 -4 -10z"/>
<path d="M2637 2540 c-3 -11 0 -23 6 -27 7 -3 9 -3 5 2 -4 4 -3 14 3 21 6 7 6
15 1 18 -6 3 -12 -3 -15 -14z"/>
<path d="M2660 2521 c0 -5 5 -13 10 -16 6 -3 10 -2 10 4 0 5 -4 13 -10 16 -5
3 -10 2 -10 -4z"/>
<path d="M2646 2485 c4 -9 16 -21 28 -27 19 -10 19 -9 -3 16 -28 30 -33 32
-25 11z"/>
<path d="M2648 2422 c-16 -9 -28 -19 -28 -22 0 -11 70 -26 82 -19 10 7 8 9 -5
9 -12 0 -16 4 -11 13 6 9 4 9 -8 -1 -11 -9 -18 -10 -23 -2 -3 5 -2 10 3 10 6
0 12 7 16 15 7 18 7 18 -26 -3z"/>
<path d="M2127 2664 c4 -10 0 -12 -11 -8 -11 4 -19 -2 -26 -20 -5 -14 -12 -26
-16 -26 -3 0 -4 6 -1 14 4 10 0 14 -12 13 -22 -1 -17 -23 6 -31 26 -10 55 4
48 22 -3 9 -3 13 1 9 8 -7 34 10 34 23 0 4 -7 10 -14 13 -10 4 -13 1 -9 -9z"/>
<path d="M2045 2514 c0 -27 4 -34 20 -34 14 0 16 3 8 11 -6 6 -9 17 -7 24 3 6
-1 17 -8 23 -10 8 -13 3 -13 -24z"/>
<path d="M1637 2574 c-6 -6 16 -34 26 -34 3 0 3 9 0 20 -5 20 -15 25 -26 14z"/>
<path d="M1280 2530 c-11 -7 -12 -12 -4 -20 8 -8 13 -6 17 9 3 12 4 21 4 21
-1 0 -9 -5 -17 -10z"/>
<path d="M1593 2510 c1 -14 7 -28 12 -32 14 -11 35 -10 35 2 0 5 -7 6 -17 3
-10 -4 -14 -2 -10 4 4 5 0 19 -8 29 -14 18 -15 18 -12 -6z"/>
<path d="M1547 2491 c-15 -9 -24 -20 -21 -24 4 -3 13 0 20 8 8 7 19 15 26 18
7 2 11 7 8 10 -3 3 -18 -2 -33 -12z"/>
<path d="M1543 2448 c-13 -6 -23 -15 -23 -19 0 -5 -7 -6 -15 -3 -11 5 -13 2
-9 -10 5 -12 2 -15 -10 -10 -11 4 -16 1 -16 -11 0 -13 -6 -16 -21 -12 -16 4
-18 3 -8 -9 6 -8 8 -14 3 -14 -5 0 4 -7 20 -15 23 -12 31 -13 37 -3 4 7 4 17
-1 24 -13 15 -3 23 24 18 16 -3 26 3 36 20 7 13 22 27 34 31 21 6 21 6 1 15
-25 11 -25 11 -52 -2z"/>
<path d="M1630 2441 c0 -10 19 -25 25 -20 1 2 -3 10 -11 17 -8 7 -14 8 -14 3z"/>
<path d="M1556 2375 c-3 -8 -1 -15 4 -15 6 0 10 7 10 15 0 8 -2 15 -4 15 -2 0
-6 -7 -10 -15z"/>
<path d="M1446 2331 c-3 -5 1 -11 9 -15 9 -3 15 0 15 9 0 16 -16 20 -24 6z"/>
<path d="M1415 2310 c3 -5 11 -10 16 -10 6 0 7 5 4 10 -3 6 -11 10 -16 10 -6
0 -7 -4 -4 -10z"/>
<path d="M2275 2440 c3 -5 8 -10 11 -10 2 0 4 5 4 10 0 6 -5 10 -11 10 -5 0
-7 -4 -4 -10z"/>
<path d="M2232 2420 c0 -14 2 -19 5 -12 2 6 2 18 0 25 -3 6 -5 1 -5 -13z"/>
<path d="M2196 2305 c-3 -8 -1 -15 4 -15 6 0 10 7 10 15 0 8 -2 15 -4 15 -2 0
-6 -7 -10 -15z"/>
<path d="M2167 2262 c-21 -23 -22 -39 -3 -23 11 9 15 9 18 0 3 -9 8 -10 24 0
19 11 19 11 -1 9 -14 -2 -19 2 -17 15 4 22 -1 22 -21 -1z"/>
<path d="M1815 2320 c-3 -5 -1 -10 4 -10 6 0 11 5 11 10 0 6 -2 10 -4 10 -3 0
-8 -4 -11 -10z"/>
<path d="M1805 2219 c-4 -6 -5 -13 -2 -16 7 -7 27 6 27 18 0 12 -17 12 -25 -2z"/>
<path d="M2065 3960 c-31 -5 -20 -7 44 -7 54 -1 79 2 70 8 -16 10 -54 10 -114
-1z"/>
<path d="M2095 3929 c-13 -6 0 -7 40 -3 33 4 62 8 64 10 9 8 -85 2 -104 -7z"/>
<path d="M1923 3783 c9 -2 23 -2 30 0 6 3 -1 5 -18 5 -16 0 -22 -2 -12 -5z"/>
<path d="M3405 3320 c-3 -5 -2 -10 4 -10 5 0 13 5 16 10 3 6 2 10 -4 10 -5 0
-13 -4 -16 -10z"/>
<path d="M3540 3310 c0 -5 5 -10 11 -10 5 0 7 5 4 10 -3 6 -8 10 -11 10 -2 0
-4 -4 -4 -10z"/>
<path d="M3585 3310 c-3 -5 -1 -10 4 -10 6 0 11 5 11 10 0 6 -2 10 -4 10 -3 0
-8 -4 -11 -10z"/>
<path d="M3780 3310 c0 -5 5 -10 10 -10 6 0 10 5 10 10 0 6 -4 10 -10 10 -5 0
-10 -4 -10 -10z"/>
<path d="M3728 3305 c-2 -3 -52 -11 -109 -19 -94 -12 -106 -12 -124 3 -18 15
-19 15 -6 -1 12 -16 11 -18 -7 -18 -11 0 -33 -3 -49 -6 -21 -4 -35 -1 -46 11
-10 9 -17 13 -17 8 0 -5 4 -13 10 -19 6 -6 -1 -11 -21 -12 -19 -2 -28 2 -24 8
3 5 1 10 -4 10 -6 0 -11 -6 -11 -14 0 -15 -103 -30 -108 -15 -2 5 -11 9 -20 9
-14 0 -14 -2 -3 -9 21 -13 -14 -21 -71 -16 -27 2 -48 0 -48 -6 0 -5 -7 -9 -15
-9 -18 0 -19 12 -3 28 8 8 8 12 1 12 -6 0 -14 -7 -17 -16 -4 -10 -14 -14 -25
-11 -14 3 -18 1 -14 -9 3 -9 -2 -14 -16 -14 -12 0 -21 -4 -21 -9 0 -10 50 -32
83 -37 58 -9 188 -45 232 -65 60 -26 115 -32 115 -12 0 8 4 12 10 8 17 -11 58
6 56 23 0 9 6 17 14 18 17 1 69 22 57 23 -12 1 14 26 36 34 9 3 17 2 17 -4 0
-6 4 -8 10 -4 5 3 7 12 3 20 -3 8 -1 15 5 15 5 0 12 9 15 20 7 28 40 25 54 -6
7 -15 10 -31 7 -35 -3 -5 0 -9 6 -9 5 0 9 -13 8 -30 -2 -25 -7 -30 -28 -30
-24 -1 -24 -1 -6 -15 17 -13 14 -41 -4 -30 -5 3 -11 1 -15 -5 -4 -6 -11 -8
-16 -5 -5 4 -9 1 -9 -4 0 -6 -7 -11 -15 -11 -8 0 -15 -7 -15 -15 0 -20 -10
-19 -25 2 -11 14 -16 15 -36 5 l-24 -12 28 3 c35 5 34 -4 -3 -31 l-30 -23 0
26 c0 14 -5 25 -10 25 -6 0 -8 -11 -4 -26 6 -21 4 -25 -7 -19 -8 4 18 -21 56
-56 39 -35 90 -86 115 -112 43 -45 47 -47 77 -37 24 9 31 16 28 32 -3 12 -10
26 -16 32 -9 8 -9 6 -1 -10 12 -23 7 -34 -15 -34 -10 0 -12 6 -7 22 4 13 7 35
6 50 0 16 4 28 9 28 5 0 8 5 7 12 -2 6 5 14 16 16 10 2 16 0 13 -5 -4 -5 0
-10 7 -10 8 0 13 10 12 23 0 12 -3 21 -5 18 -2 -2 -10 4 -18 14 -13 16 -14 15
-8 -4 4 -14 0 -24 -10 -28 -13 -5 -15 5 -10 77 4 67 9 85 26 99 16 14 18 19 7
23 -15 6 -24 65 -10 65 5 0 7 15 5 33 -3 24 -2 29 6 17 9 -13 11 -13 11 2 0 9
5 18 12 20 9 3 9 6 0 12 -7 4 -12 2 -12 -3 0 -6 -5 -11 -11 -11 -6 0 -8 9 -4
20 6 19 -13 29 -27 15z"/>
<path d="M3246 3275 c-10 -7 -16 -18 -15 -23 2 -6 12 1 22 14 21 27 19 29 -7
9z"/>
<path d="M3135 3249 c-4 -6 -4 -13 -1 -16 3 -4 6 -1 6 6 0 7 5 9 10 6 6 -3 10
-1 10 4 0 14 -17 14 -25 0z"/>
<path d="M2560 3205 c0 -9 6 -12 16 -8 9 3 20 0 24 -7 5 -8 10 -8 14 -2 3 6
-8 15 -24 21 -24 8 -30 7 -30 -4z"/>
<path d="M3645 3193 c4 -14 2 -23 -4 -23 -6 0 -11 -4 -11 -8 0 -5 7 -9 15 -9
17 0 20 25 4 47 -8 12 -9 10 -4 -7z"/>
<path d="M3760 3180 c-8 -5 -12 -12 -9 -15 4 -3 12 1 19 10 14 17 11 19 -10 5z"/>
<path d="M2720 3169 c0 -5 5 -7 10 -4 6 3 10 8 10 11 0 2 -4 4 -10 4 -5 0 -10
-5 -10 -11z"/>
<path d="M2585 3158 c-4 -10 -13 -18 -21 -18 -17 0 -18 -17 -1 -23 8 -4 9 -8
2 -14 -6 -4 -10 -25 -10 -46 1 -22 -3 -36 -10 -34 -5 2 -19 0 -30 -4 -18 -8
-17 -8 5 -6 23 2 25 -1 25 -39 0 -23 6 -48 12 -56 7 -8 10 -18 6 -22 -4 -4 0
-4 10 0 9 3 24 0 33 -7 8 -7 14 -8 12 -3 -2 5 2 9 7 9 6 0 9 -6 9 -12 -1 -7 4
-13 12 -13 7 0 11 6 8 14 -3 8 4 24 15 35 12 12 21 28 21 37 0 8 3 13 8 11 4
-3 6 20 6 51 -1 40 3 63 15 76 9 11 10 16 4 12 -9 -5 -13 2 -13 23 0 20 -6 31
-17 35 -20 5 -67 1 -82 -8 -5 -3 -11 0 -14 6 -3 9 -7 7 -12 -4z"/>
<path d="M2948 3132 c4 -11 36 -45 72 -77 36 -33 77 -70 92 -84 15 -13 31 -22
34 -19 6 7 -95 107 -108 108 -5 0 -8 4 -8 9 0 5 9 7 20 4 11 -3 20 -12 20 -21
0 -12 3 -13 11 -5 6 6 18 9 25 6 8 -3 14 -1 14 3 0 8 -158 94 -173 94 -3 0 -3
-8 1 -18z"/>
<path d="M3590 3130 c0 -6 7 -10 15 -10 8 0 15 2 15 4 0 2 -7 6 -15 10 -8 3
-15 1 -15 -4z"/>
<path d="M2493 3108 c0 -13 6 -26 12 -30 6 -5 2 -8 -9 -8 -14 0 -16 -3 -7 -13
6 -8 8 -17 4 -20 -3 -4 -1 -7 6 -7 7 0 11 7 8 15 -4 8 -2 17 2 19 10 6 2 54
-10 61 -4 3 -7 -5 -6 -17z"/>
<path d="M3521 3108 c8 -15 5 -20 -16 -28 -28 -11 -33 -20 -11 -20 20 0 46 28
46 49 0 10 -7 18 -14 18 -11 0 -13 -5 -5 -19z"/>
<path d="M3563 3103 c9 -2 17 -12 17 -21 0 -14 2 -15 10 -2 10 16 -5 30 -30
29 -11 -1 -10 -3 3 -6z"/>
<path d="M2750 3085 c-7 -9 -8 -15 -2 -15 5 0 12 7 16 15 3 8 4 15 2 15 -2 0
-9 -7 -16 -15z"/>
<path d="M2870 3079 c0 -5 5 -7 10 -4 6 3 10 8 10 11 0 2 -4 4 -10 4 -5 0 -10
-5 -10 -11z"/>
<path d="M3556 3067 c3 -10 9 -15 12 -12 3 3 0 11 -7 18 -10 9 -11 8 -5 -6z"/>
<path d="M3760 3060 c-9 -6 -10 -10 -3 -10 6 0 15 5 18 10 8 12 4 12 -15 0z"/>
<path d="M2875 3051 c-3 -5 -1 -12 5 -16 5 -3 10 1 10 9 0 18 -6 21 -15 7z"/>
<path d="M2730 3040 c-8 -5 -10 -10 -5 -10 6 0 17 5 25 10 8 5 11 10 5 10 -5
0 -17 -5 -25 -10z"/>
<path d="M2926 3017 c-18 -19 -18 -20 -1 -14 17 7 17 6 1 -18 -12 -18 -13 -24
-4 -23 18 4 10 -42 -11 -67 -10 -11 -21 -27 -25 -35 -4 -8 -1 -7 8 4 15 18 42
14 30 -5 -3 -6 -8 -38 -11 -72 -3 -34 -8 -64 -11 -67 -4 -3 -14 -14 -22 -25
-14 -19 -14 -19 3 -6 16 13 17 10 11 -45 -3 -32 -7 -79 -8 -104 -2 -32 -9 -48
-25 -58 -11 -8 -21 -21 -21 -30 0 -13 3 -12 20 3 11 10 20 13 20 7 0 -6 -4
-13 -9 -16 -5 -3 -7 -16 -3 -28 3 -14 2 -19 -6 -14 -17 10 -15 -9 3 -24 8 -6
23 -9 35 -5 21 7 25 -1 11 -24 -5 -8 -16 -11 -30 -6 -11 3 -21 2 -21 -3 0 -5
-10 -14 -22 -20 l-23 -11 23 0 c12 -1 22 -7 22 -16 0 -8 6 -12 13 -10 6 2 30
7 52 10 110 15 165 28 165 37 0 6 -10 8 -22 4 -54 -15 -78 -18 -78 -8 0 5 16
13 35 16 19 4 35 11 35 15 0 12 -70 -14 -82 -30 -7 -11 -11 -11 -15 -1 -2 6
-10 9 -15 6 -7 -4 -8 -2 -4 5 4 6 12 9 17 6 5 -4 9 -2 9 3 0 17 -13 22 -27 10
-10 -8 -12 -8 -8 4 4 11 18 15 48 13 46 -3 69 3 62 15 -3 4 6 10 20 12 13 3
26 0 29 -6 3 -7 5 -7 5 2 1 6 13 12 29 12 49 0 102 19 96 35 -4 8 -10 12 -15
9 -5 -3 -9 1 -9 8 0 8 -3 9 -8 3 -20 -29 -74 -2 -55 27 4 7 1 8 -7 3 -10 -6
-12 -4 -7 9 4 10 3 15 -4 11 -6 -4 -9 6 -7 27 3 34 -18 124 -34 145 -13 16
-47 13 -87 -9 -50 -28 -50 -13 0 33 29 27 38 40 25 37 -10 -1 -21 3 -23 10 -3
6 1 12 7 12 9 0 9 4 -1 16 -9 11 -10 20 -2 32 5 9 9 27 8 40 -2 21 7 26 42 25
14 -1 9 10 -16 42 -12 15 -9 14 11 -3 14 -13 34 -22 44 -20 13 2 -2 20 -58 71
-41 37 -77 67 -79 66 -2 0 -13 -10 -23 -22z m64 -237 c0 -5 -4 -10 -9 -10 -6
0 -13 5 -16 10 -3 6 1 10 9 10 9 0 16 -4 16 -10z m40 -390 c0 -5 -5 -10 -11
-10 -5 0 -7 5 -4 10 3 6 8 10 11 10 2 0 4 -4 4 -10z m-137 -72 c4 -10 8 -10
15 1 6 8 12 9 16 3 3 -6 -3 -13 -14 -17 -21 -7 -40 0 -40 16 0 13 17 11 23 -3z"/>
<path d="M3420 3030 c20 -13 33 -13 25 0 -3 6 -14 10 -23 10 -15 0 -15 -2 -2
-10z"/>
<path d="M2895 2939 c-4 -6 -5 -12 -2 -15 2 -3 7 2 10 11 7 17 1 20 -8 4z"/>
<path d="M4385 2843 c-20 -59 -39 -115 -41 -123 -3 -9 1 -7 11 5 17 21 79 214
72 222 -3 2 -22 -44 -42 -104z"/>
<path d="M2500 2925 c-8 -9 -15 -28 -16 -43 -3 -24 -1 -25 10 -10 7 10 17 14
22 10 4 -4 2 1 -6 11 -12 16 -12 20 0 27 8 5 12 12 9 15 -4 3 -12 -2 -19 -10z"/>
<path d="M2860 2921 c0 -10 19 -25 25 -20 1 2 -3 10 -11 17 -8 7 -14 8 -14 3z"/>
<path d="M3381 2907 c-10 -16 -11 -22 -2 -25 9 -3 9 -8 1 -17 -8 -10 -2 -20
27 -41 21 -16 77 -66 125 -113 48 -46 101 -93 117 -104 31 -19 31 -19 31 2 0
14 -21 37 -60 68 -58 45 -81 75 -40 53 14 -8 20 -8 20 0 0 6 20 -5 45 -26 31
-25 45 -32 45 -21 0 21 -105 114 -211 187 -84 58 -85 58 -98 37z"/>
<path d="M2560 2869 c0 -5 5 -7 10 -4 6 3 10 8 10 11 0 2 -4 4 -10 4 -5 0 -10
-5 -10 -11z"/>
<path d="M2863 2812 c-9 -6 -7 -11 7 -20 12 -7 20 -8 20 -2 0 5 -5 10 -11 10
-5 0 -7 5 -4 10 7 12 4 12 -12 2z"/>
<path d="M3080 2799 c0 -5 5 -7 10 -4 6 3 10 8 10 11 0 2 -4 4 -10 4 -5 0 -10
-5 -10 -11z"/>
<path d="M5033 2792 c-20 -13 -37 -171 -20 -188 3 -3 3 -17 1 -30 -3 -15 3
-32 16 -46 11 -12 18 -28 16 -35 -3 -7 2 -13 10 -13 9 0 14 -6 11 -12 -6 -19
11 -48 29 -48 18 0 66 30 78 48 12 21 25 -3 27 -48 l0 -35 14 38 c8 20 17 64
21 98 4 37 11 58 18 56 6 -2 11 -13 10 -25 0 -12 3 -19 8 -16 7 5 13 -75 8
-120 -3 -30 77 41 92 81 13 36 16 37 37 24 19 -12 7 -39 -22 -50 -14 -5 -30
-26 -41 -53 -10 -23 -24 -57 -31 -75 -12 -27 -12 -32 1 -37 8 -3 14 -12 14
-20 0 -14 34 -40 52 -41 4 0 13 -6 19 -12 10 -10 16 -9 30 3 16 15 17 14 12
-5 -4 -15 -1 -21 10 -21 9 0 19 5 22 10 10 16 28 11 21 -6 -4 -10 5 -6 25 10
31 27 49 33 49 17 0 -5 11 -11 25 -13 13 -3 22 -2 20 2 -3 4 3 14 12 21 14 12
16 12 11 -1 -3 -10 37 6 108 41 63 31 166 73 229 94 63 20 115 39 115 40 0 2
-17 1 -38 -2 -40 -5 -122 12 -122 27 0 4 -23 16 -51 25 -66 22 -56 31 12 11
61 -19 59 -18 59 -8 0 12 -125 72 -149 72 -12 0 -21 5 -21 10 0 15 -148 81
-226 100 -18 4 -38 4 -45 -1 -8 -4 -16 -3 -20 2 -3 6 -24 11 -45 12 -22 0 -44
4 -51 10 -7 5 -28 13 -48 17 -33 7 -37 6 -51 -21 -19 -39 -26 -37 -18 5 l6 34
-46 7 c-25 4 -46 11 -46 16 0 5 -9 9 -19 9 -11 0 -32 5 -48 12 -15 6 -30 12
-33 13 -3 0 -14 6 -26 12 -11 6 -25 9 -31 5z m367 -497 c0 -8 -4 -15 -10 -15
-5 0 -10 7 -10 15 0 8 5 15 10 15 6 0 10 -7 10 -15z"/>
<path d="M3090 2760 c0 -5 7 -7 15 -4 8 4 15 8 15 10 0 2 -7 4 -15 4 -8 0 -15
-4 -15 -10z"/>
<path d="M2850 2750 c20 -13 33 -13 25 0 -3 6 -14 10 -23 10 -15 0 -15 -2 -2
-10z"/>
<path d="M2840 2726 c0 -2 7 -7 16 -10 8 -3 12 -2 9 4 -6 10 -25 14 -25 6z"/>
<path d="M3185 2700 c3 -5 8 -10 11 -10 2 0 4 5 4 10 0 6 -5 10 -11 10 -5 0
-7 -4 -4 -10z"/>
<path d="M3291 2663 c5 -21 9 -41 9 -45 0 -3 11 -20 25 -37 l26 -30 -38 -27
c-21 -16 -39 -29 -41 -30 -1 -1 2 -12 8 -26 l11 -24 72 14 c40 8 74 16 75 17
5 5 -124 199 -141 214 -13 10 -14 7 -6 -26z"/>
<path d="M2840 2661 c0 -13 29 -35 37 -27 3 3 1 6 -5 6 -7 0 -12 7 -12 15 0 8
-4 15 -10 15 -5 0 -10 -4 -10 -9z"/>
<path d="M3221 2644 c0 -11 3 -14 6 -6 3 7 2 16 -1 19 -3 4 -6 -2 -5 -13z"/>
<path d="M3140 2630 c-8 -5 -10 -10 -5 -10 6 0 17 5 25 10 8 5 11 10 5 10 -5
0 -17 -5 -25 -10z"/>
<path d="M3165 2600 c-3 -5 -1 -10 4 -10 6 0 11 5 11 10 0 6 -2 10 -4 10 -3 0
-8 -4 -11 -10z"/>
<path d="M3130 2566 c0 -2 9 -6 20 -9 11 -3 20 -1 20 4 0 5 -9 9 -20 9 -11 0
-20 -2 -20 -4z"/>
<path d="M2820 2510 c0 -5 5 -10 10 -10 6 0 10 5 10 10 0 6 -4 10 -10 10 -5 0
-10 -4 -10 -10z"/>
<path d="M4228 2492 c-10 -2 -18 -8 -18 -13 0 -6 4 -8 9 -4 5 3 12 1 16 -5 4
-6 12 -8 18 -4 7 3 4 -1 -6 -9 -9 -8 -52 -20 -95 -26 -42 -7 -101 -17 -130
-23 -58 -12 -58 -10 -21 -95 10 -24 25 -43 34 -43 8 0 15 -5 15 -11 0 -5 4 -8
9 -4 6 3 18 -4 29 -15 12 -13 25 -18 36 -14 14 5 16 14 11 48 -4 22 -15 50
-24 61 -12 14 -12 17 -1 8 8 -6 19 -11 24 -10 5 1 14 -12 20 -30 15 -42 31
-56 22 -19 -5 20 -3 32 6 37 21 13 27 11 21 -10 -3 -11 0 -28 6 -38 9 -16 10
-16 11 7 1 23 2 24 14 7 13 -16 15 -16 30 8 9 14 21 23 26 20 6 -4 10 3 10 14
0 10 -6 22 -12 24 -7 3 -3 6 9 6 20 1 23 6 21 44 -1 28 -7 46 -20 55 -18 13
-16 38 3 27 5 -4 9 -2 9 4 0 10 -44 12 -82 3z m42 -122 c0 -5 -5 -10 -11 -10
-5 0 -7 5 -4 10 3 6 8 10 11 10 2 0 4 -4 4 -10z"/>
<path d="M6330 2470 c0 -4 10 -10 23 -13 12 -3 46 -12 75 -20 59 -17 72 -5 15
14 -21 7 -38 12 -38 11 0 -1 -17 3 -37 7 -21 5 -38 5 -38 1z"/>
<path d="M4080 2463 c-19 -3 -38 -8 -43 -12 -4 -4 18 -4 48 -1 30 3 57 9 61
13 7 7 -3 7 -66 0z"/>
<path d="M2820 2379 c0 -5 5 -7 10 -4 6 3 10 8 10 11 0 2 -4 4 -10 4 -5 0 -10
-5 -10 -11z"/>
<path d="M3120 2379 c0 -5 5 -7 10 -4 6 3 10 8 10 11 0 2 -4 4 -10 4 -5 0 -10
-5 -10 -11z"/>
<path d="M2839 2364 c-7 -9 -24 -20 -37 -25 -14 -5 -22 -12 -19 -16 7 -7 77
38 77 50 0 11 -6 8 -21 -9z"/>
<path d="M3145 2371 c-3 -6 3 -15 14 -20 26 -14 41 -14 17 0 -15 9 -16 13 -5
20 11 7 11 9 -3 9 -9 0 -19 -4 -23 -9z"/>
<path d="M3229 2363 c-13 -16 -12 -17 4 -4 16 13 21 21 13 21 -2 0 -10 -8 -17
-17z"/>
<path d="M3107 2353 c-14 -13 -6 -23 19 -23 22 0 25 2 14 15 -14 16 -23 19
-33 8z"/>
<path d="M3450 2258 c0 -8 72 -68 82 -68 16 0 49 42 44 55 -5 14 -126 26 -126
13z"/>
<path d="M2484 2228 c-18 -20 -18 -21 -1 -15 10 4 30 7 44 7 21 0 24 2 13 15
-17 21 -34 19 -56 -7z"/>
<path d="M5720 2186 c-21 -17 -39 -35 -39 -39 -1 -4 -5 -13 -11 -20 -47 -57
-80 -100 -80 -103 0 -2 7 -1 15 2 18 7 20 -12 3 -20 -7 -3 -2 -3 11 0 13 3 27
1 30 -5 5 -8 30 -7 91 5 46 8 92 13 102 11 10 -3 16 -2 13 3 -2 4 14 10 36 14
40 6 41 8 35 38 -14 70 -64 123 -131 138 -31 7 -40 4 -75 -24z"/>
<path d="M3568 1553 c7 -3 16 -2 19 1 4 3 -2 6 -13 5 -11 0 -14 -3 -6 -6z"/>
<path d="M3428 1523 c7 -3 16 -2 19 1 4 3 -2 6 -13 5 -11 0 -14 -3 -6 -6z"/>
<path d="M3328 1453 c7 -3 16 -2 19 1 4 3 -2 6 -13 5 -11 0 -14 -3 -6 -6z"/>
</g>
</svg>
