<?xml version="1.0" encoding="UTF-8"?>
<svg xmlns="http://www.w3.org/2000/svg" xmlns:xlink="http://www.w3.org/1999/xlink" viewBox="0 0 150 150" width="150px" height="150px">
<g id="surface1910655">
<path style=" stroke:none;fill-rule:nonzero;fill:rgb(100%,100%,100%);fill-opacity:1;" d="M 134.695312 43.5 C 133.5 36.902344 127.804688 32.097656 121.195312 30.597656 C 111.304688 28.5 93 27 73.195312 27 C 53.402344 27 34.804688 28.5 24.902344 30.597656 C 18.304688 32.097656 12.597656 36.597656 11.402344 43.5 C 10.195312 51 9 61.5 9 75 C 9 88.5 10.195312 99 11.695312 106.5 C 12.902344 113.097656 18.597656 117.902344 25.195312 119.402344 C 35.695312 121.5 53.695312 123 73.5 123 C 93.304688 123 111.304688 121.5 121.804688 119.402344 C 128.402344 117.902344 134.097656 113.402344 135.304688 106.5 C 136.5 99 138 88.195312 138.304688 75 C 137.695312 61.5 136.195312 51 134.695312 43.5 Z M 57 96 L 57 54 L 93.597656 75 Z M 57 96 "/>
</g>
</svg>
