<?xml version="1.0" standalone="no"?>
<!DOCTYPE svg PUBLIC "-//W3C//DTD SVG 20010904//EN"
 "http://www.w3.org/TR/2001/REC-SVG-20010904/DTD/svg10.dtd">
<svg version="1.0" xmlns="http://www.w3.org/2000/svg"
 width="1093.000000pt" height="677.000000pt" viewBox="0 0 1093.000000 677.000000"
 preserveAspectRatio="xMidYMid meet">

<g transform="translate(0.000000,677.000000) scale(0.100000,-0.100000)"
fill="#000000" stroke="none">
<path d="M10214 6708 c-15 -13 -41 -27 -57 -33 -22 -7 -40 -29 -69 -80 -22
-38 -43 -74 -48 -79 -4 -4 -2091 -8 -4656 -8 -3834 1 -4648 3 -4655 14 -5 7
-16 47 -25 89 -19 88 -32 99 -113 99 -46 0 -50 -2 -122 -77 -111 -116 -125
-126 -185 -134 -45 -6 -64 -16 -117 -59 -125 -105 -130 -140 -113 -805 4 -143
10 -267 13 -275 3 -8 5 -76 4 -150 -1 -130 12 -358 23 -410 3 -14 9 -38 12
-55 15 -72 37 -105 104 -160 l69 -55 1578 0 c1478 0 1585 -1 1684 -18 130 -23
227 -71 338 -171 100 -88 138 -168 157 -326 17 -141 17 -619 0 -780 -11 -106
-17 -129 -53 -202 -36 -74 -40 -87 -32 -120 5 -21 12 -50 15 -65 l7 -28 1126
0 c1228 0 1179 -2 1427 58 179 43 359 0 477 -116 33 -31 69 -73 82 -93 27 -41
41 -141 50 -357 5 -116 3 -153 -9 -190 -9 -26 -27 -88 -40 -138 l-25 -90 22
-75 23 -74 114 -91 c107 -86 116 -96 161 -180 46 -85 48 -95 62 -219 l13 -130
-36 -147 -37 -147 24 -76 c29 -90 40 -97 156 -98 l78 -1 14 -50 c37 -132 75
-291 75 -312 0 -13 -9 -48 -20 -77 l-21 -55 22 -56 c26 -70 38 -76 167 -76
124 0 246 22 397 70 66 21 235 73 375 115 140 42 325 98 410 125 186 57 452
139 685 210 94 28 233 71 310 95 77 24 182 56 234 70 70 20 102 34 125 57 17
17 92 70 167 119 96 63 141 98 153 121 9 18 28 84 41 147 l25 114 -46 175
c-43 165 -51 185 -156 391 -104 200 -134 247 -238 370 -113 133 -199 240 -220
276 -13 22 -63 104 -112 182 -70 112 -117 209 -226 460 l-139 318 -28 180
c-16 99 -28 194 -28 210 0 17 12 109 27 205 l27 175 91 180 c89 177 92 182
196 287 57 59 119 112 136 119 17 7 69 29 116 49 77 34 99 39 227 49 235 20
354 66 421 164 51 73 68 242 27 265 -12 6 -15 96 -17 547 -3 591 0 557 -63
607 -26 20 -43 23 -141 27 l-111 3 -50 87 c-28 47 -56 96 -62 109 -11 20 -18
22 -100 22 -76 0 -92 -3 -117 -22z m-2869 -277 l900 -7 -925 -4 c-1352 -5
-1505 -5 -2280 0 -640 4 -671 5 -340 10 533 8 1617 8 2645 1z m-3781 -155 c30
-14 58 -26 63 -26 29 -1 203 -150 203 -174 0 -5 7 -17 15 -26 8 -9 12 -25 8
-38 -6 -25 -23 -30 -23 -6 0 11 -5 14 -16 10 -9 -3 -20 -6 -25 -6 -5 0 -9 -8
-9 -17 -1 -10 -26 -40 -58 -66 -110 -92 -135 -110 -130 -89 1 4 -12 21 -29 39
-20 22 -37 31 -52 28 -19 -4 -20 -2 -6 19 14 20 14 27 0 59 -11 27 -27 42 -61
58 -43 19 -46 23 -40 50 7 34 -18 42 -29 9 -9 -28 -23 -25 -31 8 -9 34 -20 42
-65 42 -45 0 -61 -17 -53 -58 6 -28 3 -32 -22 -38 -22 -6 -31 -2 -48 18 -39
48 -61 52 -124 27 -32 -13 -77 -43 -102 -66 -24 -24 -52 -43 -62 -43 -10 0
-24 -13 -33 -30 -9 -16 -18 -30 -21 -30 -2 0 -1 8 4 18 5 9 21 42 35 72 27 62
121 161 179 191 20 10 39 23 43 28 9 16 116 52 180 61 33 5 104 7 157 5 79 -2
107 -8 152 -29z m-248 -244 c-22 -5 -30 3 -21 18 5 8 11 7 22 -2 15 -12 14
-13 -1 -16z m460 -104 c-4 -26 -18 -40 -29 -29 -7 7 -6 15 3 26 15 18 29 20
26 3z m71 -25 c-3 -10 -5 -4 -5 12 0 17 2 24 5 18 2 -7 2 -21 0 -30z m-125
-35 c-7 -7 -12 -8 -12 -2 0 14 12 26 19 19 2 -3 -1 -11 -7 -17z m-652 2 c0 -5
-4 -10 -10 -10 -5 0 -10 5 -10 10 0 6 5 10 10 10 6 0 10 -4 10 -10z m777 -87
c-3 -10 -5 -2 -5 17 0 19 2 27 5 18 2 -10 2 -26 0 -35z m-119 12 c-3 -3 -9 2
-12 12 -6 14 -5 15 5 6 7 -7 10 -15 7 -18z m-3298 -455 c19 -6 11 -8 -32 -9
-33 -1 -58 3 -58 9 0 12 54 12 90 0z m7588 -143 l37 -15 -32 -12 c-30 -11 -33
-15 -33 -56 0 -24 -4 -44 -10 -44 -5 0 -10 6 -10 14 0 25 -39 45 -76 39 -30
-5 -34 -4 -28 13 4 11 12 25 17 32 7 8 5 18 -5 30 -35 40 -33 45 10 39 38 -7
42 -5 64 25 l23 33 3 -41 c3 -38 7 -43 40 -57z m-2533 -722 l400 -16 48 -47
c61 -58 121 -145 157 -226 33 -75 40 -104 50 -231 16 -209 -54 -391 -206 -536
-76 -71 -136 -111 -202 -135 -79 -28 -79 -26 -37 -141 4 -13 115 12 220 49
102 36 247 119 319 182 142 126 250 337 282 551 15 103 26 135 75 214 8 12 20
20 27 19 21 -4 110 -261 128 -368 14 -88 14 -102 -2 -185 -10 -55 -34 -127
-60 -185 -38 -84 -51 -102 -109 -151 -78 -67 -179 -112 -310 -139 -80 -16
-158 -18 -695 -21 -604 -4 -605 -4 -688 19 -46 12 -122 42 -170 66 -157 80
-291 245 -339 416 -21 76 -23 106 -23 287 0 199 1 204 29 283 23 61 43 95 87
145 32 36 74 75 93 86 166 99 138 97 926 64z"/>
</g>
</svg>
