<?xml version="1.0" standalone="no"?>
<!DOCTYPE svg PUBLIC "-//W3C//DTD SVG 20010904//EN"
 "http://www.w3.org/TR/2001/REC-SVG-20010904/DTD/svg10.dtd">
<svg version="1.0" xmlns="http://www.w3.org/2000/svg"
 width="1456.000000pt" height="506.000000pt" viewBox="0 0 1456.000000 506.000000"
 preserveAspectRatio="xMidYMid meet">

<g transform="translate(0.000000,506.000000) scale(0.100000,-0.100000)"
fill="#000000" stroke="none">
<path d="M8512 4750 c-22 -14 -41 -39 -58 -76 -26 -60 -30 -84 -13 -101 7 -7
9 -29 5 -60 -4 -26 -12 -103 -18 -170 -10 -111 -13 -122 -32 -125 -12 -1 -84
-1 -161 3 l-140 5 113 2 c100 2 112 4 112 20 0 35 -21 42 -120 42 -115 0 -130
-10 -130 -82 l0 -45 47 -6 c26 -3 71 -3 100 0 44 5 53 3 53 -10 0 -20 -99 -42
-138 -31 -32 8 -371 9 -379 0 -10 -10 -73 -7 -73 4 0 6 -7 10 -15 10 -8 0 -15
-3 -15 -7 0 -5 -179 -9 -398 -11 -265 -1 -392 1 -382 8 19 13 -791 17 -811 4
-5 -3 -9 -32 -9 -65 l0 -59 -35 0 c-25 0 -37 5 -42 18 -3 9 -24 36 -46 60
l-41 42 -117 0 -117 0 -7 30 c-8 37 -23 39 -31 3 -9 -38 -13 -43 -28 -37 -7 3
-12 15 -12 27 1 19 -6 23 -54 29 -30 3 -101 6 -158 7 -62 1 -111 6 -123 14
-17 10 -23 10 -26 0 -6 -16 -363 -19 -363 -3 0 12 -37 13 -44 2 -5 -8 -320
-26 -446 -26 -109 1 -320 17 -320 26 0 11 -38 10 -45 -2 -9 -14 -317 -13 -350
2 -19 9 -30 8 -48 -1 -25 -13 -313 -10 -376 4 -22 5 -32 4 -28 -2 4 -6 -35
-12 -101 -16 -69 -4 -119 -12 -141 -23 -24 -12 -36 -13 -44 -5 -6 6 -38 11
-72 12 -36 1 -51 4 -38 7 l22 7 -24 12 c-19 8 -25 8 -25 0 0 -9 -2 -9 -8 0 -5
9 -28 7 -91 -5 -66 -13 -85 -20 -91 -36 -8 -19 -9 -19 -9 -3 -1 11 -10 21 -22
24 -13 4 -18 11 -14 21 5 13 2 12 -14 -2 -15 -14 -33 -17 -78 -14 -58 3 -58 3
-61 -26 -2 -16 2 -39 8 -51 6 -12 10 -39 8 -60 -4 -49 -28 -60 -29 -13 0 18
-10 47 -22 65 -100 144 -349 488 -384 530 -60 71 -141 116 -213 116 -69 1
-117 -23 -134 -66 -9 -21 -17 -139 -25 -342 -7 -170 -15 -357 -18 -414 l-6
-104 -134 5 c-79 3 -139 10 -146 17 -14 14 -77 14 -136 0 -31 -7 -47 -6 -57 2
-14 11 -70 4 -90 -12 -7 -6 -16 -4 -24 6 -17 21 -46 19 -63 -5 -8 -11 -17 -17
-20 -13 -4 3 -2 12 4 20 10 11 -34 13 -262 13 -257 0 -300 -4 -301 -26 0 -5
-3 -15 -6 -22 -4 -11 -6 -11 -12 -1 -13 20 -30 -59 -30 -139 0 -91 15 -154 46
-187 l23 -25 304 0 c246 0 307 3 323 14 16 13 21 12 36 -1 12 -10 28 -13 50
-9 18 3 90 7 160 8 85 2 131 7 140 16 8 8 46 12 113 12 89 0 104 -3 120 -20
26 -29 134 -29 160 0 17 19 31 20 214 20 184 0 198 -1 214 -20 13 -15 29 -20
66 -20 78 0 94 -12 120 -89 13 -37 22 -87 21 -111 -3 -68 -3 -68 38 -79 51
-15 3188 -15 3197 -1 4 6 60 10 134 10 l128 0 41 44 c32 35 41 53 47 97 6 42
14 60 37 81 17 15 27 31 23 37 -3 6 1 11 9 11 9 0 16 -3 16 -8 0 -4 18 -6 40
-4 22 2 40 8 40 13 0 12 37 12 44 0 10 -15 -12 -61 -29 -61 -9 0 -20 -11 -25
-25 -10 -27 -47 -34 -68 -13 -9 9 -12 9 -12 0 0 -18 40 -35 70 -28 24 4 30 1
43 -27 34 -71 39 -118 32 -276 -6 -134 -5 -162 9 -196 l17 -40 -34 33 -34 33
-7 -34 c-6 -34 0 -67 13 -67 3 0 12 -10 20 -21 11 -19 11 -21 -3 -16 -23 9
-31 -18 -19 -64 8 -30 7 -39 -3 -43 -10 -4 -13 -31 -11 -110 1 -87 -1 -108
-16 -124 -16 -17 -23 -42 -13 -42 9 0 152 71 170 85 14 11 20 31 24 84 2 38 1
78 -3 88 -13 32 -9 204 5 213 17 10 27 185 11 194 -8 5 -11 76 -11 228 l0 221
-25 -23 c-14 -13 -25 -19 -25 -14 0 18 59 54 89 54 22 0 28 -4 26 -17 -2 -10
-7 -35 -10 -56 -3 -21 -10 -35 -15 -32 -5 3 -6 -48 -3 -120 4 -91 3 -125 -5
-125 -16 0 -16 -96 -1 -106 8 -4 9 -31 5 -85 -6 -61 -4 -84 8 -108 20 -38 20
-47 1 -31 -25 21 -39 -3 -43 -73 -2 -47 1 -71 16 -99 11 -20 15 -39 10 -40 -5
-2 -12 -28 -15 -59 -4 -41 -1 -64 12 -88 19 -37 11 -56 -11 -26 -14 18 -16 19
-25 3 -5 -9 -34 -31 -64 -48 l-55 -31 0 -57 c-1 -31 -3 -91 -6 -132 -6 -68 -5
-73 10 -61 14 12 16 12 10 -3 -4 -10 0 -18 12 -23 10 -4 19 -2 22 5 2 7 11 12
20 12 13 0 18 -10 19 -43 3 -66 29 -152 69 -231 22 -43 35 -80 31 -90 -9 -24
-19 -20 -45 20 -13 19 -28 34 -35 31 -22 -7 -58 -94 -75 -181 l-17 -87 -40 41
c-47 48 -41 57 -86 -125 -64 -254 -214 -724 -237 -743 -10 -7 -12 -16 -6 -21
5 -5 79 -28 164 -51 85 -23 216 -59 290 -80 238 -69 614 -173 643 -178 26 -4
27 -2 27 34 0 22 19 100 41 174 78 254 81 268 70 289 -15 27 -14 31 8 31 15 0
23 13 35 54 23 78 21 86 -15 86 -26 0 -29 2 -20 14 10 11 8 17 -6 25 -14 8 -9
10 29 11 l47 0 16 52 c8 28 15 57 15 64 0 18 -114 22 -274 9 -141 -12 -150
-16 -162 -81 -8 -44 -32 -64 -48 -43 -6 9 -15 16 -21 17 -5 1 -13 16 -16 34
l-5 33 -20 -32 c-10 -18 -21 -33 -24 -33 -29 1 -78 133 -125 345 -20 88 -58
250 -85 360 -27 110 -52 223 -55 250 -3 28 -8 65 -11 83 -7 43 12 41 30 -3 8
-19 22 -38 30 -41 8 -3 19 -19 25 -35 13 -37 33 -39 26 -1 -6 26 -6 26 10 7
38 -47 105 -121 170 -188 39 -40 84 -90 100 -111 38 -50 92 -106 102 -106 10
0 124 -70 140 -86 7 -6 35 -17 63 -24 29 -7 54 -18 56 -25 6 -15 67 -13 86 3
8 6 30 18 50 26 34 14 36 18 47 88 10 66 22 187 40 402 l6 78 525 -1 c447 -2
526 -4 533 -16 4 -8 18 -15 30 -15 12 0 45 -11 72 -24 49 -23 52 -27 124 -169
l73 -146 -36 -44 c-20 -24 -36 -47 -36 -50 0 -3 37 -23 83 -45 l82 -40 158
-310 c133 -263 157 -316 157 -354 0 -35 -6 -50 -25 -68 -30 -28 -32 -51 -7
-73 17 -15 27 -15 135 4 65 11 199 37 300 59 414 89 537 122 537 143 0 7 -27
59 -61 117 -34 58 -167 290 -297 515 -129 226 -287 500 -350 610 -63 110 -119
206 -125 213 -12 16 -17 15 -152 -32 l-100 -34 -3 -46 c-4 -52 8 -79 44 -102
19 -13 28 -14 37 -5 18 18 24 13 19 -19 -4 -26 -7 -29 -33 -23 -25 5 -29 2
-29 -16 0 -30 27 -92 52 -118 29 -31 17 -38 -27 -18 -26 13 -52 16 -98 13 -34
-3 -71 -2 -82 3 -20 7 -20 8 1 8 11 1 28 7 37 14 16 11 16 18 2 102 -9 50 -18
97 -20 106 -7 21 -54 46 -63 34 -4 -6 -20 -10 -37 -10 -39 0 -67 -44 -47 -75
11 -17 10 -20 -7 -20 -11 0 -23 5 -26 10 -4 6 -16 8 -26 5 -11 -4 -27 -1 -35
6 -12 10 -20 10 -35 1 -16 -10 -19 -9 -19 7 0 23 28 36 45 21 9 -7 21 -7 39 0
39 14 35 43 -19 165 -7 17 -16 40 -20 53 -3 12 -10 22 -15 22 -5 0 -7 7 -4 15
4 8 1 15 -5 15 -6 0 -11 10 -11 21 0 12 -9 36 -20 54 l-21 33 -40 -16 c-28
-11 -43 -12 -50 -5 -8 8 0 20 29 40 l40 29 -112 0 c-88 -1 -117 3 -137 16 -14
9 -54 22 -88 29 -49 9 -75 22 -116 55 -30 24 -56 44 -58 44 -3 0 -10 -20 -16
-45 -8 -34 -16 -45 -31 -45 -26 0 -28 5 -36 108 -4 51 -10 92 -14 92 -4 0 -4
15 -1 33 5 23 3 35 -7 43 -9 6 -17 34 -20 67 -4 48 0 66 23 113 40 82 41 129
5 232 -16 47 -30 88 -30 90 0 3 37 2 83 -2 95 -8 105 -8 175 0 28 3 52 3 52 0
0 -3 -10 -26 -22 -51 -12 -24 -19 -48 -15 -51 13 -13 182 -42 191 -33 14 12
49 11 41 -1 -8 -12 20 -24 35 -15 6 4 -16 36 -55 78 -35 39 -63 72 -62 74 2 1
163 3 358 3 409 1 444 6 523 79 l28 26 -16 -32 c-9 -18 -24 -37 -33 -42 -10
-6 -14 -11 -9 -11 6 0 -5 -16 -24 -35 -19 -19 -28 -35 -21 -35 17 0 71 29 71
38 0 5 16 16 35 25 27 13 35 14 35 4 0 -7 9 -23 20 -35 24 -25 25 -32 5 -32
-8 0 -24 10 -35 23 -21 22 -22 22 -36 3 -31 -43 -1 -86 62 -86 18 0 21 -4 16
-22 -4 -18 -2 -20 14 -13 10 4 51 11 89 15 39 4 83 12 99 19 63 25 37 -15 -49
-77 -27 -20 -52 -39 -55 -42 -3 -3 -12 -6 -20 -8 -41 -10 -52 -48 -22 -75 24
-22 31 -21 83 7 27 14 43 30 43 40 -1 9 6 16 15 16 9 0 25 7 35 15 16 12 20
33 26 132 6 109 7 103 8 -88 2 -242 -2 -273 -32 -265 -60 17 -105 18 -137 2
-42 -21 -52 -20 -74 4 -18 20 -18 19 -58 -10 -23 -17 -48 -30 -56 -30 -10 0
-6 5 9 13 16 8 28 26 34 50 9 36 8 40 -30 78 l-40 40 -115 -12 c-84 -8 -132
-9 -184 0 l-70 11 -27 -33 c-33 -38 -34 -47 -9 -47 11 0 23 -4 26 -10 3 -5 15
-10 26 -10 10 0 19 5 19 10 0 6 7 10 15 10 8 0 15 -8 15 -19 0 -16 -7 -18 -62
-16 -80 3 -78 3 -78 18 0 8 -22 19 -52 26 -62 14 -298 27 -323 17 -17 -6 -17
-8 0 -26 10 -11 15 -23 12 -26 -7 -8 -97 18 -97 27 0 29 -165 38 -165 9 0 -8
-3 -19 -7 -25 -3 -5 -9 -34 -13 -62 -9 -67 3 -83 131 -175 114 -81 131 -91
150 -84 7 3 18 -2 23 -12 8 -15 16 -15 85 -3 42 7 96 19 120 27 43 15 44 16
52 72 5 31 8 63 7 70 0 7 26 40 59 73 57 58 61 61 96 54 46 -8 49 -11 34 -35
-8 -13 -8 -21 -1 -26 7 -4 8 -23 5 -48 -6 -39 -4 -44 19 -54 36 -17 31 -29
-11 -24 -25 3 -38 10 -41 23 -3 11 -11 15 -21 12 -12 -5 -14 -2 -9 11 11 27
-12 15 -31 -17 -16 -27 -16 -29 1 -38 9 -6 17 -17 17 -24 0 -8 9 -15 19 -15
25 0 38 -20 20 -31 -11 -6 -10 -11 4 -27 9 -10 17 -24 17 -30 0 -7 10 -12 23
-12 13 0 28 -5 35 -12 10 -10 1 -16 -40 -29 -30 -10 -43 -18 -31 -18 12 -1 27
-11 34 -22 11 -21 10 -22 -22 -16 -19 3 -42 8 -51 12 -27 11 -23 -15 19 -111
29 -67 41 -84 57 -84 31 0 63 25 70 55 4 17 19 31 41 41 38 15 42 23 23 43 -7
8 0 6 15 -4 l28 -18 -36 -25 c-19 -14 -35 -33 -35 -43 0 -16 8 -15 98 8 53 15
100 29 105 33 4 4 0 38 -8 75 -18 76 -14 119 16 175 52 97 115 132 252 138 77
3 100 8 110 21 6 10 19 20 28 23 20 8 29 58 29 173 0 50 3 127 7 172 l6 82 41
3 c34 3 41 7 46 28 6 24 9 25 100 28 55 2 97 -1 104 -8 5 -5 52 -10 104 -10
89 0 97 -2 156 -35 l63 -35 290 0 291 0 46 -82 c25 -46 69 -113 97 -150 45
-60 54 -68 84 -68 32 0 36 -5 86 -92 29 -51 55 -106 59 -123 l6 -30 117 -3
c113 -3 117 -3 117 -25 1 -65 4 -67 111 -67 l99 0 0 -60 0 -60 90 0 90 0 0 60
0 60 119 0 120 0 307 -220 c287 -206 310 -220 351 -220 41 0 43 1 43 30 0 17
4 30 9 30 5 0 190 -120 412 -268 222 -147 479 -317 571 -377 137 -91 167 -115
172 -138 3 -16 19 -42 35 -58 27 -26 36 -29 95 -29 86 0 139 22 168 68 54 86
52 38 55 1166 4 1026 4 1051 -16 1115 -24 80 -72 137 -122 146 -19 3 -790 4
-1713 3 l-1679 -3 -10 -28 c-6 -19 -6 -36 1 -50 27 -55 45 -162 36 -211 -16
-84 -27 -88 -252 -87 -160 1 -197 -2 -226 -16 -33 -15 -40 -15 -105 0 -38 10
-109 17 -159 17 l-90 0 -6 98 c-9 135 -23 202 -44 203 -9 0 -50 1 -91 1 -72 0
-74 0 -84 29 -11 27 -15 29 -64 29 -28 0 -55 5 -58 10 -14 23 -21 -2 -14 -47
12 -73 10 -364 -2 -333 -7 16 -13 20 -17 13 -4 -7 -26 -11 -49 -10 -23 0 -45
-2 -49 -5 -3 -4 1 -28 10 -54 l16 -47 -58 61 c-32 34 -65 62 -75 62 -22 0 -21
6 1 38 28 41 42 89 42 148 0 48 3 56 30 76 31 23 39 55 18 76 -9 9 -7 12 9 12
11 0 26 7 33 15 8 9 21 13 36 9 13 -3 24 -2 24 4 0 12 -34 22 -78 22 -32 0
-32 0 -16 25 15 23 15 25 0 31 -20 8 -21 38 0 54 9 8 14 25 12 44 -4 37 -39
48 -69 20 -18 -16 -20 -16 -40 2 -20 18 -41 19 -283 21 -143 1 -273 2 -287 2
-17 1 -30 9 -37 25 -8 19 -18 24 -42 24 -16 -1 -33 2 -37 5 -3 4 0 7 8 7 11 0
14 9 11 35 -2 19 -8 35 -12 35 -5 0 -6 9 -3 20 5 17 0 20 -27 20 -25 0 -31 3
-26 16 3 9 6 17 6 19 0 2 16 13 35 25 20 12 48 45 66 78 18 31 36 59 41 60 12
5 10 52 -2 52 -5 0 -10 24 -10 53 0 61 -14 92 -25 57 l-7 -22 -23 22 c-13 13
-25 37 -27 54 -3 28 -7 31 -38 34 -22 1 -47 -5 -68 -18z m30 -142 c-7 -7 -12
-8 -12 -2 0 14 12 26 19 19 2 -3 -1 -11 -7 -17z m-6419 -374 c65 -97 117 -183
115 -192 -7 -36 -46 -42 -274 -42 -203 0 -222 1 -238 19 -22 24 -30 77 -22
145 l7 56 38 0 c21 0 43 6 49 13 9 10 42 144 42 170 0 4 37 7 83 7 l82 0 118
-176z m1474 -96 c-3 -8 -6 -5 -6 6 -1 11 2 17 5 13 3 -3 4 -12 1 -19z m4769 7
c18 -14 18 -14 -6 -15 -20 0 -22 -2 -10 -10 11 -7 0 -10 -38 -10 -49 0 -51 1
-40 20 7 10 24 21 38 23 14 2 28 5 31 6 3 0 14 -6 25 -14z m-1191 -62 c39 -5
55 -12 73 -34 l24 -29 -34 -7 -33 -8 45 -5 c37 -4 46 -9 54 -32 5 -15 7 -31 3
-34 -4 -4 -75 -8 -159 -9 -84 -1 -170 -5 -190 -10 -37 -7 -38 -7 -38 23 0 17
-4 34 -10 37 -6 4 -10 -8 -10 -29 0 -34 -1 -35 -67 -57 -81 -26 -195 -81 -241
-116 -18 -14 -36 -22 -40 -18 -3 3 -1 9 5 13 19 12 26 70 10 86 -13 13 -17 12
-35 -7 -21 -24 -94 -141 -105 -171 -4 -11 -10 -16 -14 -13 -3 4 8 35 25 70 22
43 64 97 130 168 l99 104 109 6 c68 3 90 7 59 9 l-50 3 45 7 c30 5 36 7 18 8
-16 1 -28 6 -28 10 0 10 35 29 65 36 27 6 228 5 290 -1z m560 -3 c3 -4 -7 -34
-20 -65 l-26 -57 34 -44 c19 -25 46 -54 61 -65 l26 -20 29 23 c16 13 32 34 36
48 l7 25 13 -24 12 -24 17 25 c9 14 14 31 12 39 -2 8 -7 26 -10 40 -5 24 -4
26 32 23 20 -1 39 -2 41 -3 2 -1 -4 -10 -13 -20 -10 -11 -16 -30 -14 -43 3
-20 10 -24 58 -29 30 -3 58 -4 63 -2 4 2 7 25 7 50 l0 46 64 -7 c64 -6 96 -1
96 15 0 5 -8 9 -17 9 -15 0 -15 1 -1 13 9 6 18 21 20 32 4 22 35 30 75 20 18
-4 23 -10 18 -23 -4 -9 -10 -55 -15 -102 -7 -78 -6 -87 13 -107 24 -26 49 -29
67 -8 21 25 72 28 135 7 32 -10 61 -24 63 -30 3 -9 -3 -10 -24 -2 -15 6 -34 8
-42 5 -8 -3 -20 0 -28 6 -19 15 -68 7 -72 -12 -2 -10 10 -26 26 -37 24 -18 34
-19 71 -11 24 5 45 8 48 6 10 -11 -12 -37 -39 -46 -44 -15 -69 -14 -83 6 -7 9
-17 13 -24 8 -9 -5 -6 -14 11 -32 33 -35 59 -48 68 -33 5 8 13 1 24 -20 9 -18
16 -34 16 -36 0 -5 -74 4 -92 11 -11 4 -18 3 -18 -4 0 -6 -7 -11 -15 -11 -8 0
-15 -4 -15 -10 0 -6 26 -10 59 -10 54 0 62 3 124 50 92 70 147 126 147 150 0
11 6 20 14 20 24 0 27 15 11 60 -19 53 -19 50 5 50 11 0 27 11 36 25 13 20 25
25 56 25 l40 0 -21 -34 c-25 -41 -26 -70 -2 -115 l18 -34 21 23 c11 12 26 36
32 54 23 61 34 76 53 76 18 0 19 -1 3 -22 -28 -39 -30 -50 -15 -77 13 -24 40
-35 159 -69 21 -6 25 -14 28 -54 4 -65 -14 -126 -48 -160 l-28 -28 -186 0
c-137 0 -186 3 -186 12 0 6 -10 22 -22 35 -15 16 -17 22 -7 18 16 -6 36 22 24
33 -9 9 -58 -22 -63 -40 -2 -10 -11 -18 -19 -18 -7 0 -31 -9 -53 -20 -35 -18
-59 -20 -225 -20 -108 0 -184 4 -181 9 5 7 -55 149 -70 170 -2 2 -11 1 -20 -3
-13 -5 -15 -9 -6 -18 21 -21 13 -31 -11 -15 -17 11 -28 12 -41 5 -13 -7 -28
-5 -56 7 -32 14 -41 15 -59 3 -18 -11 -23 -11 -31 2 -7 11 -10 8 -10 -15 0
-21 3 -26 9 -16 5 7 14 10 20 7 18 -11 13 -34 -9 -41 -16 -5 -20 -15 -20 -51
0 -31 -4 -44 -14 -44 -8 0 -17 9 -21 19 -14 45 -88 143 -137 181 -66 52 -79
82 -48 115 26 27 20 42 -34 94 -40 39 -44 51 -17 51 16 0 17 5 11 39 -7 38 -6
40 19 43 47 6 71 6 76 -2z m1375 3 c0 -5 -29 -9 -65 -11 -41 -2 -65 1 -65 7 0
7 26 11 65 11 36 0 65 -3 65 -7z m-947 -17 c9 -7 17 -20 17 -28 0 -20 -61 -31
-75 -14 -11 12 -55 10 -69 -5 -20 -19 -44 -10 -42 16 1 26 11 34 18 14 5 -14
75 -1 91 17 15 17 37 17 60 0z m797 4 c0 -5 -20 -11 -45 -12 -25 -1 -52 -2
-62 -2 -9 -1 -18 5 -20 12 -4 9 13 12 61 12 37 0 66 -4 66 -10z m-249 -40 c11
0 17 -4 14 -10 -10 -16 -41 -12 -56 7 -12 15 -12 16 4 10 10 -4 28 -7 38 -7z
m-315 -46 c-3 -9 -6 -18 -6 -20 0 -3 -4 -3 -10 1 -11 7 -2 35 12 35 6 0 7 -7
4 -16z m-576 -24 c0 -16 -4 -30 -10 -30 -11 0 -14 43 -3 53 11 12 13 8 13 -23z
m-4790 -1 c0 -5 -30 -9 -67 -9 -41 0 -63 4 -57 9 19 19 124 18 124 0z m770 0
c0 -5 -29 -9 -65 -9 -67 0 -91 16 -32 22 45 4 97 -3 97 -13z m380 0 c0 -5 -27
-9 -60 -9 -60 0 -84 16 -32 22 40 4 92 -3 92 -13z m380 0 c0 -5 -27 -9 -60 -9
-63 0 -84 16 -27 22 44 4 87 -2 87 -13z m384 -1 c-6 -10 -102 -9 -119 1 -14 8
52 17 92 12 18 -2 30 -7 27 -13z m3831 12 c3 -5 1 -10 -4 -10 -6 0 -11 5 -11
10 0 6 2 10 4 10 3 0 8 -4 11 -10z m-5359 -11 c5 -8 32 -10 89 -5 45 3 84 3
88 0 11 -11 -16 -54 -35 -54 -10 0 -18 -5 -18 -10 0 -6 -8 -14 -17 -17 -10 -4
-31 -16 -46 -27 -61 -45 -198 -18 -281 54 -55 49 -49 64 23 56 38 -4 62 -3 66
4 9 14 122 13 131 -1z m2159 -15 c15 -16 17 -42 13 -260 -2 -173 -7 -247 -15
-255 -10 -10 -28 -5 -85 21 -80 36 -104 52 -67 44 l24 -5 -25 15 c-14 8 -49
18 -78 22 -37 4 -56 12 -63 26 -6 11 -26 26 -45 34 -30 12 -34 19 -35 52 -1
35 -2 35 -9 -11 -5 -27 -11 -51 -13 -53 -2 -3 -8 19 -13 48 l-8 53 -4 -42 c-2
-29 -8 -43 -18 -43 -8 0 -14 5 -14 10 0 6 -7 10 -15 10 -8 0 -15 -7 -15 -15 0
-11 -11 -15 -40 -15 -42 0 -47 -7 -29 -43 6 -12 -13 1 -42 29 -35 34 -85 66
-141 93 -76 36 -88 45 -88 66 0 32 -13 32 -39 -1 -28 -36 -26 -62 9 -117 33
-53 32 -55 -49 -72 -31 -7 -94 -23 -141 -35 -47 -13 -110 -26 -140 -29 -45 -5
-54 -9 -52 -24 4 -23 -24 -22 -88 3 -28 11 -56 18 -61 15 -5 -4 -9 0 -9 7 0 7
-3 24 -6 38 -4 17 -3 21 4 12 7 -10 31 -12 98 -8 49 2 90 5 92 5 1 1 1 16 1
34 -2 30 -2 30 -6 4 -5 -29 -23 -28 -23 2 0 17 -5 17 -72 -5 -40 -13 -74 -24
-76 -24 -2 0 -2 16 0 36 2 30 9 40 35 54 18 10 39 23 47 29 23 19 27 -4 5 -28
-12 -12 -19 -24 -17 -26 6 -6 102 15 133 29 17 8 64 30 105 49 41 19 109 50
150 69 112 53 132 60 167 59 12 0 32 12 45 28 13 15 30 28 38 28 8 0 69 17
135 37 66 20 127 39 136 42 14 4 16 -2 12 -41 -3 -26 -1 -45 4 -45 12 0 66 58
82 87 10 20 20 21 150 22 119 2 141 -1 156 -15z m610 6 c27 -7 25 -8 -15 -8
-25 0 -58 4 -75 8 -27 7 -25 8 15 8 25 0 59 -4 75 -8z m-3595 -8 c0 -4 14 -13
30 -19 21 -8 30 -18 30 -35 1 -22 1 -22 15 -4 14 18 15 18 57 -8 48 -29 78
-51 78 -57 0 -5 -81 3 -266 25 -56 6 -108 9 -115 5 -8 -4 -27 -13 -43 -20 -35
-17 -51 -55 -37 -87 6 -12 11 -38 11 -57 0 -27 -4 -35 -18 -35 -10 0 -23 5
-30 12 -17 17 -16 135 1 145 8 4 20 21 28 38 8 16 32 42 54 57 45 31 55 34 55
15 0 -9 12 -11 40 -9 40 4 51 15 28 26 -7 3 2 3 20 0 20 -3 32 -1 32 5 0 6 7
11 15 11 8 0 15 -4 15 -8z m3470 -3 c0 -5 4 -8 9 -4 12 7 34 -32 26 -45 -3 -5
14 -18 38 -28 31 -14 46 -27 51 -46 7 -27 -19 -122 -35 -132 -5 -3 -7 -10 -4
-15 4 -5 2 -9 -4 -9 -5 0 -15 -24 -21 -54 -11 -55 -33 -77 -54 -56 -16 16 -21
287 -6 315 7 13 10 29 7 37 -4 9 -6 7 -6 -4 -1 -23 -51 -25 -51 -3 0 8 -4 15
-10 15 -5 0 -10 9 -10 20 0 16 7 20 35 20 19 0 35 -5 35 -11z m-2992 -70 c11
0 12 -2 5 -6 -7 -2 -14 -14 -14 -26 -1 -17 -2 -18 -6 -4 -2 9 -10 17 -18 17
-10 0 -11 5 -2 25 8 17 13 20 15 10 2 -8 11 -15 20 -16z m8165 -5 c9 -4 17
-12 17 -20 0 -17 89 -57 113 -50 14 3 16 0 12 -14 -8 -24 18 -32 67 -21 35 8
39 7 57 -23 44 -71 87 -226 63 -226 -4 0 -25 9 -47 20 -29 15 -59 20 -115 20
-42 0 -80 -3 -83 -6 -4 -4 6 -23 22 -43 28 -36 51 -74 51 -85 0 -3 -36 -6 -80
-6 -68 0 -89 4 -142 30 -34 17 -85 33 -114 36 -47 6 -53 4 -82 -24 l-31 -31
-36 41 c-26 31 -33 47 -29 65 5 19 2 23 -17 24 -37 0 -98 86 -101 141 l-3 43
80 7 c43 4 84 9 91 12 6 2 17 -1 24 -7 9 -9 14 -9 17 0 3 8 13 9 35 2 18 -5
33 -7 35 -6 1 2 -2 30 -7 62 -10 61 -5 82 11 52 6 -9 19 -17 30 -17 11 0 18
-4 15 -9 -9 -15 23 -36 36 -23 14 14 38 4 31 -14 -10 -26 25 -15 46 15 18 25
19 30 6 41 -18 15 -20 34 -2 26 6 -3 20 -9 30 -12z m1279 -84 c16 -22 19 -22
35 -8 27 23 51 29 94 22 48 -8 51 -24 5 -24 -36 0 -55 -13 -36 -25 6 -4 45 -9
86 -12 58 -5 78 -3 84 7 6 10 12 11 22 3 18 -15 306 -17 324 -2 9 7 19 7 33 0
29 -16 46 -14 32 2 -6 8 -8 17 -4 20 13 13 31 7 36 -13 6 -25 27 -26 27 -2 0
21 -51 73 -95 95 l-30 16 32 1 c17 0 35 -4 38 -10 3 -5 18 -10 33 -10 17 0 32
-8 40 -21 12 -19 20 -21 79 -16 45 3 73 1 91 -9 48 -25 122 -14 122 18 0 4
-10 16 -22 28 l-22 20 33 -6 c22 -5 36 -3 41 6 13 22 30 1 23 -30 -3 -17 0
-36 6 -44 9 -11 8 -15 -5 -20 -14 -5 -15 -9 -5 -19 8 -8 72 -13 213 -15 l200
-4 -5 -27 c-3 -16 -19 -55 -34 -87 l-28 -59 -167 -3 c-140 -2 -167 -5 -172
-18 -3 -9 -4 -20 0 -25 7 -12 91 -11 99 1 9 15 25 12 19 -4 -3 -7 9 -25 25
-39 17 -14 31 -28 31 -30 0 -13 -41 -13 -52 0 -23 28 -57 34 -86 16 -15 -10
-31 -23 -35 -30 -11 -18 -36 -16 -43 2 -4 8 -12 15 -20 15 -8 0 -14 9 -14 20
0 28 -40 50 -127 71 -62 15 -120 18 -305 19 -134 0 -237 -4 -248 -10 -13 -7
-21 -7 -25 0 -8 13 -61 13 -84 0 -30 -16 -23 -57 14 -80 52 -32 75 -23 75 31
0 10 5 19 10 19 6 0 10 -4 10 -10 0 -5 7 -10 15 -10 8 0 15 -4 15 -9 0 -4 11
-20 26 -36 14 -15 24 -29 22 -30 -11 -11 -158 -7 -188 5 -25 11 -35 11 -38 2
-2 -7 -23 -12 -53 -12 -39 0 -47 3 -43 15 4 8 17 15 30 15 55 0 13 49 -78 90
-37 17 -66 20 -206 20 l-164 0 -30 -31 c-35 -35 -27 -61 11 -37 19 11 24 11
35 -4 17 -23 28 -23 43 1 14 23 62 36 76 22 6 -6 18 -11 28 -11 12 0 15 -6 11
-26 -3 -18 -8 -22 -15 -15 -16 16 -77 14 -77 -3 0 -8 -7 -16 -15 -20 -8 -3
-15 -12 -15 -21 0 -21 -9 -19 -28 6 -16 18 -22 19 -76 11 -39 -6 -70 -6 -88 0
-29 10 -58 53 -58 86 0 26 -20 44 -36 31 -9 -7 -19 -7 -33 0 -11 6 -36 11 -56
11 -40 0 -40 -2 -9 -79 8 -18 14 -40 14 -47 0 -36 -24 -5 -76 99 -71 140 -99
176 -180 228 -35 23 -62 44 -60 46 2 2 32 -10 65 -27 l62 -31 195 1 c179 1
195 3 189 18 -4 9 -10 26 -13 37 -3 11 -12 25 -20 31 -13 9 -10 12 16 16 24 3
33 0 38 -14 3 -10 9 -18 14 -18 4 0 7 -7 6 -16 0 -9 6 -21 15 -26 16 -11 32
-2 87 50 23 22 26 23 57 8 44 -21 109 -22 102 -1 -5 11 0 13 23 8 26 -5 31 -2
41 23 l11 29 21 -41 c12 -22 30 -51 39 -64z m-10312 78 c0 -7 -7 -21 -14 -30
-12 -16 -35 -18 -219 -18 -178 0 -206 2 -211 16 -17 44 -18 44 219 44 174 0
225 -3 225 -12z m4675 -6 c-6 -4 -10 -14 -10 -22 0 -15 -50 -38 -61 -28 -14
15 9 48 39 56 33 9 49 6 32 -6z m-3016 -41 c-15 -5 -22 6 -14 19 6 9 10 9 16
-1 5 -8 4 -15 -2 -18z m4881 -7 c0 -8 -7 -14 -15 -14 -15 0 -21 21 -9 33 10 9
24 -2 24 -19z m2218 -1 c3 -19 -1 -23 -22 -23 -21 0 -26 5 -26 26 0 21 4 25
23 22 14 -2 23 -11 25 -25z m770 4 c3 -12 -3 -17 -22 -17 -28 0 -29 1 -20 25
8 20 38 15 42 -8z m-2008 -41 c0 -39 -6 -30 -13 19 -4 27 -3 35 3 25 5 -8 10
-28 10 -44z m29 -20 c1 -42 -5 -29 -12 24 -4 30 -3 38 3 25 5 -11 9 -33 9 -49z
m38 32 c-3 -7 -5 -2 -5 12 0 14 2 19 5 13 2 -7 2 -19 0 -25z m30 0 c-3 -7 -5
-2 -5 12 0 14 2 19 5 13 2 -7 2 -19 0 -25z m-2479 -4 c92 -30 52 -53 -61 -33
-46 7 -111 9 -181 5 -98 -6 -112 -9 -134 -31 -27 -28 -42 -32 -43 -12 0 6 -4
2 -9 -10 -7 -18 -17 -23 -47 -23 l-38 0 34 21 c51 31 33 31 -52 0 -95 -36
-156 -71 -227 -130 -49 -41 -52 -43 -32 -14 27 38 75 79 102 88 11 3 19 11 17
17 -3 19 102 77 181 100 39 12 72 24 72 28 0 3 28 7 62 8 33 1 64 5 67 8 12
12 236 -4 289 -22z m1967 -4 c7 0 16 -7 19 -16 6 -17 -12 -103 -25 -118 -4 -5
-4 9 1 30 12 53 4 56 -10 4 -6 -23 -14 -49 -16 -58 -5 -15 -4 -15 6 -2 9 13
11 12 8 -4 -2 -11 -12 -20 -23 -22 -11 -1 -32 -5 -47 -8 l-27 -5 19 42 c13 27
20 65 20 106 l0 64 31 -7 c17 -3 37 -6 44 -6z m-6635 -40 c0 -5 -4 -10 -10
-10 -5 0 -10 5 -10 10 0 6 5 10 10 10 6 0 10 -4 10 -10z m100 -10 c-12 -23
-30 -27 -30 -7 0 17 10 27 27 27 11 0 11 -5 3 -20z m75 9 c4 -6 17 -14 29 -19
20 -8 20 -8 -8 -19 -33 -13 -31 -14 -40 22 -6 27 6 38 19 16z m6964 -72 c0
-10 -3 -15 -9 -12 -5 3 -9 25 -9 48 1 40 2 40 9 12 4 -16 8 -38 9 -48z m-3555
28 l17 -30 -20 24 c-12 13 -21 28 -21 34 0 12 0 11 24 -28z m3573 -17 c-2 -13
-4 -5 -4 17 -1 22 1 32 4 23 2 -10 2 -28 0 -40z m-9413 26 c10 -27 7 -34 -18
-34 -29 0 -39 12 -30 34 8 21 40 21 48 0z m196 6 c0 -5 -22 -10 -49 -10 -28 0
-53 5 -56 10 -4 6 15 10 49 10 31 0 56 -4 56 -10z m9117 -37 c-3 -10 -5 -2 -5
17 0 19 2 27 5 18 2 -10 2 -26 0 -35z m-7235 -18 c10 -10 -5 -57 -19 -62 -19
-7 -26 2 -28 37 -1 25 2 30 20 30 12 0 24 -2 27 -5z m3905 -31 c-4 -21 -1 -25
14 -21 23 6 23 4 4 -33 -14 -27 -5 -44 10 -20 3 5 20 19 38 31 22 15 16 6 -20
-30 -29 -29 -53 -56 -53 -62 0 -19 -28 -8 -33 14 -2 12 -7 29 -9 37 -3 8 -3
12 -1 8 9 -17 23 -7 23 16 0 26 19 86 27 86 3 0 3 -12 0 -26z m-3779 6 c28 0
30 -39 3 -64 -17 -16 -21 -16 -62 0 -57 22 -55 19 -28 49 16 16 31 24 44 20
11 -2 30 -5 43 -5z m3712 -55 c-1 -11 -27 20 -41 50 -6 11 1 7 15 -10 14 -16
26 -34 26 -40z m-3930 35 l25 -20 -26 0 c-27 0 -54 21 -42 33 10 10 16 8 43
-13z m1057 14 c-3 -3 -12 -4 -19 -1 -8 3 -5 6 6 6 11 1 17 -2 13 -5z m-658
-19 c99 -13 138 -27 116 -43 -12 -9 -17 -34 -17 -89 0 -39 -2 -43 -23 -43 -31
0 -84 21 -67 27 6 3 12 9 12 14 0 6 -8 6 -19 -1 -18 -9 -51 -5 -51 7 0 3 11
19 25 35 32 38 24 51 -20 32 -41 -17 -79 -19 -70 -3 4 5 0 18 -8 27 -7 9 -17
25 -20 35 -8 21 2 21 142 2z m878 -11 c-3 -3 -12 -4 -19 -1 -8 3 -5 6 6 6 11
1 17 -2 13 -5z m73 -14 c0 -12 -17 -12 -45 0 -17 7 -15 9 13 9 17 1 32 -3 32
-9z m160 -31 c0 -4 -6 -9 -14 -12 -9 -4 -16 3 -18 18 -4 20 -3 22 14 12 10 -7
18 -15 18 -18z m4136 4 c-10 -10 -19 5 -10 18 6 11 8 11 12 0 2 -7 1 -15 -2
-18z m-4101 -3 c3 -5 1 -10 -4 -10 -6 0 -11 5 -11 10 0 6 2 10 4 10 3 0 8 -4
11 -10z m128 -17 c4 -2 4 -9 1 -15 -10 -16 -114 5 -114 24 0 9 94 2 113 -9z
m-1573 -8 c0 -19 -21 -19 -46 0 -18 14 -17 14 14 15 22 0 32 -5 32 -15z m3621
-5 c34 -19 23 -40 -20 -40 -43 0 -55 9 -45 34 7 18 36 21 65 6z m53 -22 c-9
-14 -23 2 -17 18 4 12 8 13 14 3 4 -7 5 -17 3 -21z m1730 16 c9 -24 0 -31 -34
-26 -35 5 -40 29 -7 35 12 2 25 5 28 6 4 0 10 -6 13 -15z m726 1 c30 -7 45
-14 33 -14 -13 -1 -23 -6 -23 -12 0 -13 -162 -2 -171 12 -7 11 -69 0 -69 -12
0 -5 -30 -9 -67 -9 -47 0 -72 5 -84 16 -17 15 -20 15 -43 0 -14 -9 -40 -16
-58 -16 l-33 1 30 24 c30 25 32 25 230 25 135 -1 218 -5 255 -15z m458 3 c-9
-28 -79 -39 -230 -36 l-148 3 15 23 c16 21 21 22 191 22 136 0 175 -3 172 -12z
m4322 -3 c0 -8 -7 -15 -15 -15 -8 0 -15 -4 -15 -10 0 -5 -4 -10 -9 -10 -5 0
-4 11 2 25 13 27 37 34 37 10z m-10770 1 c0 -2 -7 -7 -16 -10 -8 -3 -12 -2 -9
4 6 10 25 14 25 6z m9965 -36 c3 -5 -1 -10 -9 -10 -9 0 -16 5 -16 10 0 6 4 10
9 10 6 0 13 -4 16 -10z m-5121 -26 c9 -3 16 -10 16 -16 0 -14 -43 -5 -48 10
-4 13 7 15 32 6z m-54 -24 c0 -11 -2 -20 -5 -20 -3 0 -14 9 -25 20 l-20 20 25
0 c18 0 25 -5 25 -20z m123 2 c-20 -21 -33 -19 -33 4 0 8 10 14 25 14 24 0 24
-1 8 -18z m4223 -50 c1 -34 -3 -62 -7 -62 -5 0 -12 0 -16 0 -13 -1 -20 94 -9
113 19 30 30 12 32 -51z m-5066 24 c-6 -8 -18 -12 -26 -9 -10 4 -14 1 -13 -8
2 -8 -7 -30 -19 -49 l-22 -35 0 30 c0 22 9 39 31 58 34 29 71 39 49 13z m1158
-45 c3 -8 -1 -12 -9 -9 -7 2 -15 10 -17 17 -3 8 1 12 9 9 7 -2 15 -10 17 -17z
m-218 -24 c0 -18 -2 -19 -10 -7 -13 20 -13 43 0 35 6 -3 10 -16 10 -28z m3744
17 c21 -8 2 -35 -20 -28 -48 14 -50 17 -24 24 14 5 26 8 27 9 1 1 9 -2 17 -5z
m1257 -11 c13 -15 12 -15 -8 -4 -24 12 -29 21 -14 21 5 0 15 -7 22 -17z
m-5571 -56 c0 -18 -54 -100 -58 -87 -5 14 19 84 32 92 17 11 26 9 26 -5z
m6746 -7 c27 0 14 -18 -16 -22 -25 -4 -30 -1 -30 15 0 13 5 17 16 13 9 -3 22
-6 30 -6z m-6666 -26 c0 -8 -4 -14 -10 -14 -5 0 -10 9 -10 21 0 11 5 17 10 14
6 -3 10 -13 10 -21z m600 16 c0 -5 -2 -10 -4 -10 -3 0 -8 5 -11 10 -3 6 -1 10
4 10 6 0 11 -4 11 -10z m-661 -66 c-30 -59 -30 -59 -24 -19 6 34 42 91 52 82
2 -2 -11 -30 -28 -63z m6390 44 l146 -2 -165 -6 -165 -5 -13 -28 c-14 -29 -32
-28 -32 3 0 10 -6 20 -12 23 -22 8 35 27 66 22 16 -3 94 -6 175 -7z m-6813
-83 c13 -31 31 -58 39 -61 20 -8 19 -21 -3 -26 -25 -7 -78 23 -76 42 0 8 2 34
2 58 1 23 4 42 8 42 3 0 16 -25 30 -55z m326 3 c-7 -7 -12 -22 -12 -34 0 -24
-29 -47 -73 -58 -24 -6 -28 -4 -25 11 3 17 109 105 117 97 3 -2 -1 -10 -7 -16z
m628 3 c0 -24 -36 -69 -46 -58 -5 4 -3 16 4 25 7 9 15 25 18 35 8 23 24 22 24
-2z m-244 -88 c18 -11 18 -12 -1 -12 -22 -1 -85 51 -85 69 0 7 15 -1 33 -16
19 -16 42 -34 53 -41z m-330 -24 l-16 -34 6 40 c3 22 8 49 12 60 6 18 7 17 10
-6 2 -15 -4 -42 -12 -60z m754 71 c0 -5 -4 -10 -10 -10 -5 0 -10 5 -10 10 0 6
5 10 10 10 6 0 10 -4 10 -10z m-1224 -45 c16 -12 17 -16 4 -24 -17 -11 -40 3
-40 25 0 18 11 18 36 -1z m294 0 c0 -8 -9 -15 -20 -15 -11 0 -20 7 -20 15 0 8
9 15 20 15 11 0 20 -7 20 -15z m2200 5 c0 -5 -2 -10 -4 -10 -3 0 -8 5 -11 10
-3 6 -1 10 4 10 6 0 11 -4 11 -10z m-1400 -78 l-13 -27 -10 32 c-7 25 -6 37 4
49 12 15 14 14 23 -5 6 -14 5 -30 -4 -49z m1251 13 c36 -16 69 -39 69 -48 0
-3 -18 3 -40 14 -21 10 -57 19 -80 19 -29 0 -40 4 -40 15 0 20 47 20 91 0z
m-1903 -7 c17 -17 15 -28 -7 -28 -25 0 -47 26 -29 33 20 8 23 8 36 -5z m1370
-8 l33 -20 -23 -30 c-12 -17 -23 -30 -25 -30 -1 0 -9 13 -17 28 -8 15 -26 34
-40 42 -14 7 -26 17 -26 22 0 16 65 8 98 -12z m718 -25 c21 -23 22 -25 4 -25
-10 0 -23 6 -27 13 -4 8 -17 19 -28 25 -19 11 -19 11 4 12 13 0 34 -11 47 -25z
m-76 -20 c0 -30 -3 -35 -24 -35 -23 0 -23 0 -8 35 9 19 20 35 24 35 4 0 8 -16
8 -35z m-885 14 c4 -6 5 -12 2 -15 -7 -7 -37 7 -37 17 0 13 27 11 35 -2z
m-1143 -41 c-15 -15 -26 -4 -18 18 5 13 9 15 18 6 9 -9 9 -15 0 -24z m1566
-10 c-3 -7 -17 -14 -32 -16 -22 -3 -27 -8 -23 -22 3 -11 -1 -24 -9 -31 -11 -9
-14 -8 -14 6 0 10 -8 24 -17 31 -23 16 -16 23 38 33 62 12 61 12 57 -1z
m-1418 -7 c0 -6 -4 -13 -10 -16 -5 -3 -10 1 -10 9 0 9 5 16 10 16 6 0 10 -4
10 -9z m6501 -28 c18 -18 14 -65 -7 -80 -26 -19 -982 -19 -1008 0 -24 18 -24
67 0 84 25 18 996 15 1015 -4z m-5261 -3 c0 -5 -2 -10 -4 -10 -3 0 -8 5 -11
10 -3 6 -1 10 4 10 6 0 11 -4 11 -10z m-1402 -7 c-10 -2 -26 -2 -35 0 -10 3
-2 5 17 5 19 0 27 -2 18 -5z m100 -16 c4 -19 -6 -21 -27 -8 -16 10 -5 34 12
28 7 -2 13 -11 15 -20z m76 -2 c6 -17 -31 -52 -43 -39 -5 5 -12 19 -15 31 -5
16 -2 22 11 25 24 6 40 -1 47 -17z m676 -19 c-5 -15 -10 -40 -10 -55 0 -31
-23 -57 -40 -46 -5 3 -10 26 -10 50 0 38 4 46 32 63 18 12 34 19 36 18 1 -2
-2 -15 -8 -30z m-962 -28 l-13 -23 -3 23 c-4 28 21 66 26 39 2 -9 -3 -26 -10
-39z m67 30 c25 -11 32 -32 17 -55 -12 -20 -52 13 -52 43 0 28 1 28 35 12z
m95 -38 c0 -22 -2 -40 -5 -40 -2 0 -12 14 -20 30 -17 32 -13 50 11 50 10 0 14
-12 14 -40z m42 -5 c6 -14 8 -28 4 -33 -9 -8 -36 26 -36 45 0 22 20 14 32 -12z
m1341 18 c-7 -2 -21 -2 -30 0 -10 3 -4 5 12 5 17 0 24 -2 18 -5z m-1860 -49
c-1 -5 17 -9 40 -10 57 0 200 -33 209 -47 6 -9 10 -9 16 -1 5 8 27 8 85 -1 42
-7 80 -13 82 -14 3 0 25 -1 50 -1 l45 0 0 -46 0 -46 -112 7 c-136 8 -148 11
-148 35 0 10 -4 22 -10 25 -5 3 -10 -3 -10 -14 0 -28 -18 -27 -149 5 -134 33
-171 50 -170 78 0 11 3 16 5 10 3 -7 14 -10 25 -7 14 4 18 11 13 25 -5 16 -2
19 13 16 10 -2 17 -8 16 -14z m2380 -79 c23 -32 6 -32 -30 0 -25 22 -26 24 -8
24 11 0 28 -11 38 -24z m4877 -410 c0 -363 -2 -435 -14 -435 -38 0 -40 20 -40
418 -1 213 2 399 7 414 4 14 15 29 25 31 9 3 18 5 20 6 1 0 2 -195 2 -434z
m-6464 400 c-9 -13 -16 -33 -16 -43 0 -16 -10 -20 -61 -26 -34 -3 -86 -6 -114
-6 l-53 0 -4 36 c-2 19 1 38 6 42 10 7 115 16 215 20 l43 2 -16 -25z m650 -79
c38 -84 48 -165 29 -239 -9 -34 -27 -81 -40 -105 -33 -60 -31 -62 10 -16 47
52 90 146 98 214 6 50 0 86 -30 184 -6 18 -2 19 41 13 146 -20 244 -142 234
-290 -5 -75 -29 -129 -80 -176 -21 -20 -38 -44 -38 -53 0 -17 -23 -18 -350
-18 -327 0 -350 1 -350 18 0 9 -19 35 -42 57 -58 56 -82 115 -81 196 1 126 73
223 193 260 14 4 105 8 203 8 l178 1 25 -54z m379 -27 c7 -10 -21 -49 -36 -49
-4 0 -17 14 -29 30 l-21 30 40 0 c22 0 43 -5 46 -11z m478 -6 c-7 -2 -21 -2
-30 0 -10 3 -4 5 12 5 17 0 24 -2 18 -5z m-2057 -21 c11 -7 7 -82 -5 -82 -3 0
-13 5 -21 10 -13 9 -13 11 0 20 13 9 13 12 -1 23 -28 22 -3 49 27 29z m79 -8
c14 -6 14 -8 -2 -26 -17 -19 -17 -20 0 -33 23 -17 7 -28 -28 -19 -21 5 -25 12
-25 45 0 40 14 49 55 33z m1605 -2 c0 -13 -12 -22 -22 -16 -10 6 -1 24 13 24
5 0 9 -4 9 -8z m-1739 -97 c41 -7 48 -11 53 -36 7 -39 26 -37 26 2 0 28 2 30
28 25 15 -3 73 -8 130 -12 l102 -7 2 -91 1 -91 6 83 c8 93 14 102 76 102 22 0
69 3 105 6 l65 6 0 -96 0 -96 -33 -6 c-87 -17 -471 -2 -483 18 -4 6 -11 8 -16
5 -12 -8 -148 26 -240 59 -70 26 -73 28 -72 58 2 30 2 30 6 4 2 -16 8 -28 13
-28 11 0 19 63 9 75 -15 16 -10 23 19 28 33 6 139 1 203 -8z m-281 -51 c0 -21
-4 -33 -10 -29 -17 10 -11 65 7 65 2 0 3 -16 3 -36z m1968 -183 c18 -22 41
-41 51 -43 17 -3 18 -6 7 -27 -13 -23 -13 -23 -59 34 -26 31 -47 61 -47 66 0
19 18 8 48 -30z m642 -36 c0 -8 -7 -15 -15 -15 -13 0 -14 3 -3 15 16 18 18 18
18 0z m130 -18 c0 -2 -11 -25 -24 -50 -13 -26 -29 -80 -36 -122 -7 -41 -17
-75 -22 -75 -5 0 -7 -13 -3 -30 6 -29 -16 -108 -38 -138 -24 -31 -27 9 -9 94
18 81 27 157 15 127 -3 -7 -11 -13 -19 -13 -11 0 -12 5 -5 18 5 9 10 22 11 27
1 6 8 9 16 7 17 -3 18 10 3 25 -9 9 -7 19 6 40 30 45 105 110 105 90z m-2264
-31 c24 -18 8 -38 -31 -38 -27 0 -45 15 -45 40 0 17 52 15 76 -2z m-686 -16
c0 -5 -2 -10 -4 -10 -3 0 -8 5 -11 10 -3 6 -1 10 4 10 6 0 11 -4 11 -10z m150
-20 c6 -11 8 -20 6 -20 -3 0 -10 9 -16 20 -6 11 -8 20 -6 20 3 0 10 -9 16 -20z
m622 -56 l32 -16 -28 -15 c-23 -12 -33 -12 -57 -3 -33 14 -36 25 -11 39 23 14
28 14 64 -5z m1658 -34 c0 -5 -10 -10 -22 -10 -19 0 -20 2 -8 10 19 13 30 13
30 0z m25 -60 c-3 -5 -11 -10 -16 -10 -6 0 -7 5 -4 10 3 6 11 10 16 10 6 0 7
-4 4 -10z m-1610 -43 c10 -8 15 -19 11 -25 -8 -14 -36 -16 -36 -3 0 5 -16 12
-35 15 -19 4 -35 11 -35 16 0 15 74 12 95 -3z m2309 -32 c3 -8 1 -15 -3 -15
-5 0 -9 -10 -9 -22 0 -48 -8 -103 -15 -101 -37 11 -41 21 -28 64 22 80 42 107
55 74z m-3 -193 c-13 -4 -41 16 -41 29 0 5 12 2 26 -8 15 -9 21 -19 15 -21z
m-64 -4 c-3 -8 -6 -5 -6 6 -1 11 2 17 5 13 3 -3 4 -12 1 -19z m-23 -34 c15
-14 26 -27 23 -30 -2 -3 -20 9 -38 25 -40 37 -26 41 15 5z m99 -8 c22 -33 31
-72 18 -80 -13 -8 -37 29 -46 72 -8 38 6 42 28 8z m-385 -7 c-3 -23 -33 -48
-44 -37 -3 4 -4 19 0 33 8 33 49 36 44 4z m298 -149 c8 0 14 -5 14 -11 0 -19
-35 -4 -37 16 -2 11 0 14 3 8 3 -7 12 -13 20 -13z m216 -17 c17 -19 30 -73 18
-73 -13 0 -38 35 -45 63 -8 31 4 36 27 10z m-3121 -106 c5 -21 8 -46 6 -55 -3
-12 -5 -10 -6 6 0 12 -15 51 -31 85 -30 60 -30 61 -5 32 14 -16 30 -47 36 -68z
m2914 63 c38 -19 65 -46 65 -65 0 -8 6 -15 14 -15 17 0 50 -49 49 -72 -1 -11
5 -18 16 -18 12 0 26 -19 43 -57 29 -67 34 -110 14 -132 -7 -9 -27 -41 -43
-71 -17 -30 -36 -56 -42 -58 -14 -5 -15 64 -2 73 6 3 8 29 5 58 -4 34 -2 47 4
38 8 -10 11 -11 17 0 5 7 0 19 -13 30 -26 20 -29 41 -5 32 11 -4 14 -3 9 5 -4
7 -13 12 -20 12 -7 0 -23 23 -34 50 -12 28 -27 50 -34 50 -16 0 -42 -65 -33
-79 10 -17 -7 -61 -24 -61 -11 0 -12 -3 -4 -8 19 -12 1 -68 -20 -64 -10 2 -17
-2 -17 -8 0 -5 6 -10 13 -10 6 0 -1 -12 -17 -26 -15 -14 -38 -24 -49 -22 -27
4 -43 59 -26 90 11 21 12 21 25 4 9 -13 19 -16 31 -11 10 5 21 7 26 7 4 -1 7
3 7 8 0 6 -6 10 -14 10 -7 0 -19 7 -26 15 -7 9 -19 14 -25 11 -13 -5 10 112
25 128 5 5 6 14 4 21 -3 7 2 39 12 71 9 33 19 53 21 47 5 -15 43 -18 43 -3 0
5 -11 12 -25 16 -14 3 -22 10 -19 15 3 5 8 8 12 6 4 -2 20 -9 37 -17z m275
-49 c13 -25 13 -41 0 -41 -5 0 -10 11 -10 24 0 13 -6 27 -12 29 -10 4 -10 6
-1 6 7 1 17 -8 23 -18z m-2750 -312 l50 -11 -21 -29 c-15 -22 -28 -29 -54 -29
-46 0 -82 -15 -88 -37 -3 -10 -5 -3 -6 16 -1 30 -3 33 -26 27 -15 -4 -25 -2
-25 4 0 6 11 15 25 20 14 5 25 16 25 24 0 27 41 32 120 15z m2415 -125 c-48
-41 -75 -57 -82 -50 -9 9 16 33 58 55 49 26 59 24 24 -5z m-2855 -106 c0 -4
-7 -8 -15 -8 -10 0 -15 10 -15 28 1 26 1 26 15 8 8 -11 15 -23 15 -28z m590
16 c0 -8 -4 -12 -10 -9 -5 3 -10 10 -10 16 0 5 5 9 10 9 6 0 10 -7 10 -16z"/>
<path d="M6960 4016 c0 -8 48 -12 66 -5 13 5 7 8 -23 8 -24 1 -43 -1 -43 -3z"/>
<path d="M6908 4003 c6 -2 18 -2 25 0 6 3 1 5 -13 5 -14 0 -19 -2 -12 -5z"/>
<path d="M7998 3831 c-25 -24 -22 -44 8 -75 29 -28 69 -34 98 -13 22 16 11 47
-16 47 -10 0 -16 5 -13 10 4 6 11 8 16 5 17 -11 9 11 -11 28 -26 22 -60 21
-82 -2z"/>
<path d="M5070 3744 c0 -9 5 -14 12 -12 18 6 21 28 4 28 -9 0 -16 -7 -16 -16z"/>
<path d="M5458 3716 c-20 -15 -24 -41 -7 -51 14 -9 49 24 49 47 0 21 -18 23
-42 4z"/>
<path d="M5552 3535 c0 -16 2 -22 5 -12 2 9 2 23 0 30 -3 6 -5 -1 -5 -18z"/>
<path d="M11235 3779 c-4 -5 3 -9 14 -9 12 0 21 -7 21 -15 0 -11 11 -15 37
-15 37 0 37 0 15 16 -31 21 -80 35 -87 23z"/>
<path d="M12395 3781 c-3 -5 -19 -12 -35 -16 -31 -7 -33 -24 -2 -24 9 0 37 -1
61 -1 53 -1 59 4 36 30 -19 21 -50 27 -60 11z"/>
<path d="M9362 1359 c2 -7 10 -15 17 -17 8 -3 12 1 9 9 -2 7 -10 15 -17 17 -8
3 -12 -1 -9 -9z"/>
<path d="M9325 1341 c-4 -8 -1 -19 8 -28 19 -20 30 -1 13 22 -10 14 -15 15
-21 6z"/>
<path d="M9290 1295 c0 -8 5 -15 10 -15 6 0 10 7 10 15 0 8 -4 15 -10 15 -5 0
-10 -7 -10 -15z"/>
<path d="M9375 1300 c-3 -5 1 -13 10 -16 22 -9 29 1 11 15 -10 8 -16 9 -21 1z"/>
<path d="M9340 1260 c0 -5 5 -10 10 -10 6 0 10 5 10 10 0 6 -4 10 -10 10 -5 0
-10 -4 -10 -10z"/>
<path d="M9435 1260 c3 -5 8 -10 11 -10 2 0 4 5 4 10 0 6 -5 10 -11 10 -5 0
-7 -4 -4 -10z"/>
<path d="M9305 1230 c3 -5 10 -10 16 -10 5 0 9 5 9 10 0 6 -7 10 -16 10 -8 0
-12 -4 -9 -10z"/>
<path d="M9450 1210 c0 -5 4 -10 9 -10 6 0 13 5 16 10 3 6 -1 10 -9 10 -9 0
-16 -4 -16 -10z"/>
<path d="M9320 1170 c0 -5 5 -10 10 -10 6 0 10 5 10 10 0 6 -4 10 -10 10 -5 0
-10 -4 -10 -10z"/>
<path d="M9280 1145 c0 -8 7 -15 16 -15 14 0 14 3 4 15 -7 8 -14 15 -16 15 -2
0 -4 -7 -4 -15z"/>
<path d="M9512 1129 c2 -7 10 -15 17 -17 8 -3 12 1 9 9 -2 7 -10 15 -17 17 -8
3 -12 -1 -9 -9z"/>
<path d="M9530 1065 c0 -8 5 -15 10 -15 6 0 10 7 10 15 0 8 -4 15 -10 15 -5 0
-10 -7 -10 -15z"/>
<path d="M9488 1054 c-10 -9 4 -44 18 -44 21 0 25 17 8 34 -17 18 -18 18 -26
10z"/>
<path d="M9444 3884 c-7 -28 7 -44 39 -44 12 0 17 8 17 31 0 16 -4 28 -9 24
-5 -3 -12 -1 -16 5 -11 18 -24 11 -31 -16z"/>
<path d="M9409 3770 c-21 -17 -22 -21 -9 -30 8 -6 34 -9 57 -7 26 3 44 0 47
-7 2 -6 5 3 5 19 1 21 -2 26 -8 16 -7 -11 -12 -10 -22 8 -17 26 -40 27 -70 1z"/>
<path d="M6340 3383 c0 -22 2 -25 10 -13 13 20 13 40 0 40 -5 0 -10 -12 -10
-27z"/>
<path d="M8497 3315 c-8 -18 -38 -20 -56 -2 -11 10 -13 9 -9 -3 6 -21 52 -24
68 -5 7 8 11 18 8 21 -3 3 -8 -2 -11 -11z"/>
<path d="M9301 3301 c-9 -6 -7 -10 8 -14 12 -3 21 -1 21 3 0 14 -15 19 -29 11z"/>
<path d="M7920 3271 c0 -11 5 -23 10 -26 6 -4 10 5 10 19 0 14 -4 26 -10 26
-5 0 -10 -9 -10 -19z"/>
<path d="M8933 3274 c-9 -24 14 -63 42 -70 36 -9 75 10 75 38 l0 21 -25 -23
c-31 -29 -58 -19 -63 24 -4 29 -19 35 -29 10z"/>
<path d="M7931 3184 c0 -11 3 -14 6 -6 3 7 2 16 -1 19 -3 4 -6 -2 -5 -13z"/>
<path d="M9458 3163 c-18 -43 -16 -53 12 -53 25 0 43 35 36 66 -9 35 -29 29
-48 -13z"/>
<path d="M8720 2940 c-9 -6 -10 -10 -3 -10 6 0 15 5 18 10 8 12 4 12 -15 0z"/>
<path d="M8758 2924 c-3 -5 -2 -18 2 -28 3 -11 9 -15 12 -10 3 5 2 18 -2 28
-3 11 -9 15 -12 10z"/>
<path d="M8704 2699 c-4 -8 -2 -15 5 -17 7 -2 17 -16 23 -31 l12 -26 4 24 c5
29 -31 71 -44 50z"/>
<path d="M6822 1371 c-46 -6 -71 -20 -72 -42 0 -16 44 -49 72 -54 101 -17 184
-25 276 -25 115 0 114 -1 128 91 l7 39 -179 -1 c-99 -1 -203 -5 -232 -8z"/>
<path d="M6630 1224 c0 -8 5 -12 10 -9 6 4 8 11 5 16 -9 14 -15 11 -15 -7z"/>
<path d="M7037 1208 c-7 -25 -3 -33 12 -23 13 8 15 45 2 45 -5 0 -11 -10 -14
-22z"/>
<path d="M6662 1183 c-2 -26 0 -35 7 -28 14 14 18 57 6 62 -6 2 -12 -13 -13
-34z"/>
</g>
</svg>
