<?xml version="1.0" standalone="no"?>
<!DOCTYPE svg PUBLIC "-//W3C//DTD SVG 20010904//EN"
 "http://www.w3.org/TR/2001/REC-SVG-20010904/DTD/svg10.dtd">
<svg version="1.0" xmlns="http://www.w3.org/2000/svg"
 width="810.000000pt" height="453.000000pt" viewBox="0 0 810.000000 453.000000"
 preserveAspectRatio="xMidYMid meet">

<g transform="translate(0.000000,453.000000) scale(0.100000,-0.100000)"
fill="#000000" stroke="none">
<path d="M4603 3454 c-9 -15 -18 -45 -18 -68 -4 -151 -4 -156 -24 -156 -10 0
-24 7 -31 15 -9 11 -27 15 -59 13 -38 -3 -47 -7 -49 -25 -2 -14 3 -23 15 -26
17 -4 17 -4 -1 -12 -11 -5 -21 -3 -26 5 -4 7 -10 8 -13 3 -4 -6 -171 -10 -437
-9 l-430 2 0 -28 c0 -23 -4 -28 -25 -28 -15 0 -31 9 -41 25 -14 22 -24 25 -70
25 -41 0 -54 4 -54 15 0 13 -46 15 -352 15 -194 0 -517 1 -718 2 l-365 3 3
-42 c3 -43 -10 -59 -21 -25 -6 16 -111 168 -141 204 -8 9 -22 28 -31 41 -35
53 -131 72 -151 29 -4 -9 -10 -97 -13 -195 l-6 -178 -277 1 -277 1 -7 -36 c-3
-20 -3 -55 2 -78 l9 -42 410 0 c226 0 420 -1 433 -3 37 -3 72 -46 72 -86 0
-29 4 -37 23 -41 13 -4 359 -5 770 -3 732 3 746 3 762 23 8 11 18 32 21 47 7
29 40 65 50 55 4 -4 1 -13 -6 -22 -10 -12 -7 -21 19 -50 l31 -36 -1 -182 c0
-109 -5 -187 -11 -194 -8 -10 -6 -13 7 -13 16 0 17 -10 11 -116 -3 -64 -9
-120 -11 -124 -3 -4 -9 -39 -15 -78 -10 -75 -56 -242 -96 -356 -14 -38 -21
-72 -17 -76 4 -4 60 -22 123 -39 63 -17 138 -38 165 -46 99 -29 159 -45 171
-45 6 0 17 21 24 48 7 26 23 85 37 132 62 210 86 329 101 504 l7 90 64 -3 63
-3 -22 24 c-69 73 -77 135 -26 194 31 36 32 37 127 42 109 5 118 0 127 -73 2
-25 8 -45 13 -45 14 0 15 35 2 74 -7 22 -11 41 -9 44 12 11 91 -26 110 -51 32
-43 29 -114 -7 -163 -24 -34 -25 -39 -10 -42 43 -6 99 -28 111 -42 7 -8 25
-39 39 -69 21 -43 24 -58 14 -72 -17 -28 -14 -34 22 -47 24 -8 39 -24 54 -54
11 -24 36 -72 55 -108 19 -36 43 -86 53 -113 17 -44 17 -49 1 -65 -43 -49 -4
-45 342 32 35 7 66 17 69 20 7 7 -7 37 -64 137 -21 36 -60 104 -86 150 -26 46
-59 102 -73 124 -13 22 -29 49 -34 60 -10 19 -23 42 -98 170 -20 34 -36 77
-39 106 -5 45 -4 50 29 83 23 23 48 37 74 41 81 13 81 13 88 52 3 21 6 64 6
96 0 50 2 57 20 57 12 0 20 7 20 16 0 15 11 16 92 9 52 -4 101 -13 112 -21 15
-10 56 -14 156 -14 l136 0 24 -42 c31 -56 60 -88 79 -88 9 0 28 -25 46 -60
l29 -60 53 0 c41 0 51 -3 47 -14 -4 -12 5 -16 42 -18 46 -3 48 -4 49 -33 0
-28 3 -30 35 -30 33 0 35 1 32 33 l-4 32 59 0 c55 0 62 -3 136 -58 196 -145
227 -162 227 -126 0 9 4 14 8 12 4 -1 89 -57 187 -122 99 -65 209 -138 246
-162 36 -24 75 -57 87 -74 24 -32 57 -39 94 -19 46 24 48 49 49 546 2 469 0
503 -33 531 -11 9 -196 12 -763 13 -664 1 -750 -1 -760 -15 -10 -13 -48 -16
-234 -18 -146 -2 -225 0 -229 7 -8 12 -70 35 -94 35 -20 0 -30 37 -17 61 5 10
6 20 2 22 -5 2 -75 5 -158 6 -121 2 -153 5 -167 18 -10 9 -18 22 -18 29 0 7
-8 20 -17 30 -16 16 -16 18 5 34 12 10 22 23 22 28 0 5 6 15 14 21 20 17 8 59
-27 92 -16 16 -31 29 -33 29 -2 0 -11 -12 -21 -26z m-2812 -209 c63 -92 63
-102 -3 -107 -29 -1 -82 -1 -118 2 l-65 5 -3 41 c-2 34 0 42 16 46 13 4 23 18
27 39 11 49 13 50 58 47 38 -3 44 -7 88 -73z m2719 -45 c0 -5 -11 -10 -25 -10
-14 0 -25 5 -25 10 0 6 11 10 25 10 14 0 25 -4 25 -10z m40 0 c0 -5 -4 -10 -9
-10 -6 0 -13 5 -16 10 -3 6 1 10 9 10 9 0 16 -4 16 -10z m330 -23 c0 -9 -11
-12 -35 -9 -41 5 -37 22 6 22 17 0 29 -5 29 -13z m-2710 -46 c0 -6 -4 -13 -10
-16 -5 -3 -10 1 -10 9 0 9 5 16 10 16 6 0 10 -4 10 -9z m178 -8 c2 -8 -5 -13
-17 -13 -12 0 -21 6 -21 16 0 18 31 15 38 -3z m162 7 c0 -5 -4 -10 -10 -10 -5
0 -10 5 -10 10 0 6 5 10 10 10 6 0 10 -4 10 -10z m173 -5 c1 -5 -6 -11 -15
-13 -11 -2 -18 3 -18 13 0 17 30 18 33 0z m167 0 c0 -8 -7 -15 -15 -15 -9 0
-12 6 -9 15 4 8 10 15 15 15 5 0 9 -7 9 -15z m173 0 c1 -5 -6 -11 -15 -13 -11
-2 -18 3 -18 13 0 17 30 18 33 0z m507 -25 c0 -23 -10 -26 -28 -8 -18 18 -15
28 8 28 13 0 20 -7 20 -20z m1167 5 c2 -7 -13 -9 -38 -7 -29 3 -37 7 -28 13
18 12 61 7 66 -6z m-2879 -31 c-2 -8 -6 -15 -10 -15 -5 1 -48 1 -98 1 -73 0
-90 3 -90 15 0 12 18 15 101 15 86 0 100 -2 97 -16z m2516 -1 c-16 -8 -40 -16
-54 -18 -36 -3 -40 -4 -40 -13 0 -10 79 -2 86 9 3 5 10 9 15 9 6 0 7 -4 4 -10
-3 -5 -2 -10 3 -10 5 0 14 10 21 23 l11 22 -6 -22 c-7 -30 26 -32 44 -3 7 11
21 20 31 20 20 0 22 -14 7 -39 -6 -10 -4 -12 10 -7 29 8 111 8 199 -2 l80 -9
-85 -2 c-67 -1 -81 -4 -66 -13 17 -9 15 -12 -20 -24 -21 -7 -40 -11 -42 -9 -3
2 -13 0 -23 -5 -12 -7 -19 -6 -21 2 -3 8 -16 5 -42 -10 -40 -24 -56 -27 -56
-12 0 5 20 18 45 29 50 22 54 26 25 34 -12 3 -33 -6 -56 -24 -43 -34 -55 -38
-29 -9 23 25 12 39 -13 17 -10 -10 -23 -17 -29 -17 -5 0 -18 -9 -28 -20 -22
-24 -43 -27 -24 -4 12 15 9 16 -29 13 -44 -5 -54 3 -24 20 14 9 13 10 -10 11
-21 0 -29 6 -34 25 -6 25 -18 32 -28 16 -6 -9 -90 -51 -102 -51 -4 0 -1 7 6
15 11 13 -13 15 -186 18 l-199 3 213 1 c175 1 218 4 237 17 14 9 32 16 42 16
10 0 25 6 34 13 9 7 49 13 89 14 71 1 72 1 44 -14z m-3298 -64 c10 -17 -13
-36 -27 -22 -12 12 -4 33 11 33 5 0 12 -5 16 -11z m3056 -51 c-18 -18 -14 -32
4 -17 14 12 16 11 13 -6 -3 -16 -14 -21 -54 -23 -28 -1 -57 -5 -65 -9 -23 -9
37 -23 71 -16 22 4 29 2 29 -11 0 -9 -7 -16 -15 -16 -9 0 -12 -6 -9 -15 4 -9
0 -15 -10 -15 -9 0 -16 4 -16 10 0 5 -18 19 -40 30 l-39 20 -26 -24 c-14 -13
-25 -31 -25 -41 0 -11 -5 -15 -15 -11 -8 3 -15 1 -15 -5 0 -5 7 -12 16 -16 13
-5 13 -7 2 -14 -9 -6 -7 -9 9 -9 16 0 22 6 21 18 -3 36 2 62 13 62 7 0 9 -10
5 -25 -9 -34 1 -50 20 -34 19 16 28 5 15 -18 -6 -10 -11 -14 -11 -9 0 5 -11
-1 -25 -14 -14 -13 -25 -19 -25 -13 0 16 -39 23 -68 12 -17 -7 -27 -6 -32 1
-5 7 -11 6 -20 -5 -7 -9 -19 -14 -27 -11 -7 3 -17 0 -23 -7 -33 -39 -50 -60
-50 -64 0 -12 73 0 88 15 11 11 26 16 36 12 15 -5 14 -8 -8 -29 -13 -13 -29
-20 -35 -17 -5 4 -12 2 -15 -3 -3 -5 -22 -7 -42 -4 -33 5 -35 4 -25 -15 15
-28 14 -32 -4 -26 -9 4 -15 0 -15 -10 0 -9 -5 -16 -10 -16 -6 0 -10 8 -8 18 2
9 -3 16 -9 14 -7 -1 -13 8 -13 19 0 18 2 19 15 9 12 -10 15 -10 15 4 0 9 4 16
9 16 17 0 20 54 4 67 -13 10 -14 13 -2 17 76 22 112 43 160 90 37 36 86 69
154 104 95 47 123 56 97 30z m158 -32 c0 -2 -7 -7 -16 -10 -8 -3 -12 -2 -9 4
6 10 25 14 25 6z m100 -6 c0 -5 -5 -10 -11 -10 -5 0 -7 5 -4 10 3 6 8 10 11
10 2 0 4 -4 4 -10z m83 -7 c-7 -2 -19 -2 -25 0 -7 3 -2 5 12 5 14 0 19 -2 13
-5z m-312 -36 c-13 -13 -26 -3 -16 12 3 6 11 8 17 5 6 -4 6 -10 -1 -17z m83 7
c4 -10 1 -14 -6 -12 -15 5 -23 28 -10 28 5 0 13 -7 16 -16z m182 1 c-26 -19
-42 -19 -26 0 7 8 20 15 29 15 13 -1 13 -3 -3 -15z m-226 -5 c0 -5 -5 -10 -11
-10 -5 0 -7 5 -4 10 3 6 8 10 11 10 2 0 4 -4 4 -10z m100 -10 c-6 -11 -15 -20
-20 -20 -6 0 -5 9 2 20 7 11 16 20 21 20 4 0 3 -9 -3 -20z m68 6 c-10 -7 -18
-18 -18 -25 0 -14 0 -14 45 5 20 8 34 10 30 5 -8 -14 1 -14 24 -1 11 5 30 6
47 0 17 -5 22 -9 11 -9 -30 -2 -13 -26 19 -27 16 -1 37 -5 47 -9 30 -13 18
-23 -22 -18 -21 3 -47 0 -58 -5 -18 -10 -20 -8 -16 12 5 23 3 23 -60 22 -48
-1 -71 -7 -86 -20 -11 -10 -27 -16 -36 -13 -9 4 -15 1 -15 -8 0 -7 -9 -17 -21
-20 -11 -4 -18 -9 -15 -12 3 -4 1 -12 -5 -19 -8 -10 -3 -10 26 -1 21 6 39 17
42 24 3 7 12 13 20 13 8 0 11 -5 7 -11 -4 -8 1 -9 17 -4 29 9 25 4 -25 -30
-52 -35 -91 -43 -100 -19 -5 12 -10 14 -14 8 -10 -17 -49 -26 -57 -15 -4 7
-12 7 -24 -1 -10 -6 -26 -8 -36 -5 -19 8 -15 32 6 32 20 0 40 30 33 50 -4 9
-16 20 -28 25 -16 6 -13 8 17 7 32 -1 37 -4 37 -24 0 -13 5 -23 10 -23 6 0 10
6 10 14 0 7 8 16 18 20 9 3 23 9 31 12 11 5 12 2 7 -12 -6 -16 -4 -15 17 4 13
12 33 22 44 22 13 0 29 13 42 35 11 19 26 35 33 35 8 -1 7 -5 -4 -14z m-308
-36 c0 -5 -4 -10 -10 -10 -5 0 -10 5 -10 10 0 6 5 10 10 10 6 0 10 -4 10 -10z
m145 -21 c-10 -15 -25 -10 -19 6 4 8 10 12 15 9 5 -3 7 -10 4 -15z m234 -23
c-2 -2 -17 -6 -34 -10 -22 -5 -26 -4 -15 4 14 9 59 15 49 6z m-345 -41 c-9
-14 -19 -24 -21 -21 -6 6 20 46 30 46 4 0 0 -11 -9 -25z m-34 5 c0 -5 -5 -10
-11 -10 -5 0 -7 5 -4 10 3 6 8 10 11 10 2 0 4 -4 4 -10z m354 -47 c-23 -15
-55 -27 -78 -29 -58 -3 -74 -43 -18 -45 20 -1 22 -2 7 -6 -11 -2 -29 -6 -41
-8 -28 -6 -92 -67 -86 -83 2 -7 -5 -12 -17 -12 -25 0 -26 6 -6 26 24 24 17 37
-9 17 -16 -12 -23 -26 -22 -43 3 -28 -10 -60 -24 -60 -6 0 -7 25 -3 63 3 34 3
59 -2 55 -8 -8 -16 -65 -16 -123 0 -22 -7 -47 -15 -57 -14 -15 -14 -17 4 -27
17 -9 20 -7 25 17 3 15 13 36 22 47 15 19 15 19 9 -10 -11 -51 -32 -95 -49
-101 -9 -4 -25 2 -36 12 -19 17 -19 19 -2 25 17 6 17 7 1 14 -14 6 -15 11 -5
33 6 15 16 31 22 35 6 5 4 7 -6 4 -14 -5 -16 5 -15 71 1 52 6 83 16 95 16 18
65 23 75 7 11 -18 24 -11 31 15 5 19 11 24 24 20 10 -3 21 -1 25 5 4 6 14 9
22 6 8 -3 33 4 56 16 40 21 106 44 136 47 8 0 -4 -11 -25 -26z m-408 1 c-3 -9
-6 -18 -6 -20 0 -2 -12 -4 -27 -3 -28 0 -28 1 -5 11 12 6 22 15 22 20 0 4 5 8
11 8 6 0 8 -7 5 -16z m494 12 c0 -3 -4 -8 -10 -11 -5 -3 -10 -1 -10 4 0 6 5
11 10 11 6 0 10 -2 10 -4z m-556 -21 c-4 -8 -11 -15 -16 -15 -6 0 -5 6 2 15 7
8 14 15 16 15 2 0 1 -7 -2 -15z m-240 -42 c-10 -7 -20 -10 -23 -7 -3 3 2 11
12 18 9 7 18 19 18 27 1 8 4 5 6 -5 3 -12 -2 -25 -13 -33z m106 17 c0 -5 -5
-10 -11 -10 -5 0 -7 5 -4 10 3 6 8 10 11 10 2 0 4 -4 4 -10z m635 0 c-3 -5
-14 -10 -23 -9 -14 0 -13 2 3 9 27 11 27 11 20 0z m2485 -35 c7 -8 10 -22 6
-30 -5 -13 -39 -15 -235 -15 -202 0 -230 2 -235 16 -15 40 7 44 234 44 180 0
220 -3 230 -15z m-2560 -39 c-105 -40 -120 -44 -125 -35 -4 5 0 9 8 9 8 0 20
6 27 14 11 14 42 21 100 24 21 1 19 -1 -10 -12z m60 -11 c0 -10 -56 -32 -69
-27 -9 3 -2 10 20 17 40 15 49 17 49 10z m403 -54 c-2 -3 -16 8 -31 24 l-27
28 31 -24 c17 -13 30 -26 27 -28z m2177 -167 c0 -181 -1 -195 -17 -192 -16 3
-18 21 -20 183 -1 99 0 186 2 193 3 6 11 12 20 12 13 0 15 -27 15 -196z
m-2980 11 c0 -8 -4 -15 -10 -15 -5 0 -10 7 -10 15 0 8 5 15 10 15 6 0 10 -7
10 -15z"/>
<path d="M4500 2995 c-15 -18 1 -20 18 -3 9 9 12 9 12 0 0 -6 7 -9 15 -6 23 9
18 24 -9 24 -13 0 -29 -7 -36 -15z"/>
<path d="M3827 2793 c-4 -3 -7 -11 -7 -17 0 -6 5 -5 12 2 6 6 9 14 7 17 -3 3
-9 2 -12 -2z"/>
<path d="M4041 2616 c-11 -13 -11 -20 -3 -28 15 -15 24 -5 20 23 -3 21 -4 21
-17 5z"/>
<path d="M4030 2520 c0 -5 5 -10 10 -10 6 0 10 5 10 10 0 6 -4 10 -10 10 -5 0
-10 -4 -10 -10z"/>
</g>
</svg>
